<svg xmlns="http://www.w3.org/2000/svg" xmlns:xlink="http://www.w3.org/1999/xlink" viewBox="285 6.3 400 18.4" enable-background="new 285 6.3 400 18.4"><defs><path id="a" d="M284 6.6h400v18.5h-400z"/></defs><clipPath id="b"><use xlink:href="#a" overflow="visible"/></clipPath><path clip-path="url(#b)" fill="#fff" d="M679.7 17.9c-1.5 0-2.9-1.1-2.9-2.9s1.4-2.9 2.9-2.9 3.1 1.1 3.1 2.9-1.4 2.9-3.1 2.9m0 4.4c1.4 0 2.5-.4 3.3-1.1.6-.6 1.1-1.6 1.1-3v-6.9h-1.3v1.5c-.6-.9-1.8-1.8-3.3-1.8-2 0-4 1.5-4 4 0 2.4 1.9 3.9 4 3.9 1.5 0 2.6-.8 3.3-1.8v1c0 2-1.3 3-3 3-1.3 0-2.3-.4-3.3-1.1l-.6 1c1.2.9 2.4 1.3 3.8 1.3m-13.7-2.7h1.3v-4.8c0-1.6 1.1-2.6 2.5-2.6 1.5 0 2.4 1 2.4 2.5v4.9h1.3v-5.2c0-2-1.1-3.4-3.3-3.4-1.5 0-2.4.8-2.9 1.6v-1.5h-1.3v8.5zm-4.3 0h1.3v-8.4h-1.3v8.4zm0-10.3h1.4v-1.4h-1.4v1.4zm-7.1 9.5c-1.6 0-3-1.3-3-3.3s1.4-3.3 3-3.3c1.5 0 3 1.3 3 3.3 0 1.9-1.4 3.3-3 3.3m-.3 1.1c1.5 0 2.5-.9 3.3-1.9v1.6h1.3v-11.9h-1.3v5c-.6-1-1.6-1.8-3.3-1.8-2 0-4 1.6-4 4.4 0 3 2 4.6 4 4.6m-13.6-.3h1.3v-4.8c0-1.6 1.1-2.6 2.5-2.6 1.5 0 2.4 1 2.4 2.5v4.9h1.3v-5.2c0-2-1.1-3.4-3.3-3.4-1.5 0-2.4.8-2.9 1.6v-1.5h-1.3v8.5zm-6.6-.7c-1.1 0-2.1-.6-2.1-1.6s.9-1.8 2.5-1.8c1 0 1.9.1 2.5.4v.8c0 1.2-1.4 2.2-2.9 2.2m-.3 1c1.5 0 2.5-.6 3-1.5v1.3h1.3v-5.2c0-1.1-.3-1.9-.9-2.5-.6-.6-1.5-.9-2.8-.9-1.3 0-2.1.3-3 .8l.4 1c.8-.4 1.5-.6 2.5-.6 1.6 0 2.5.8 2.5 2.3v.3c-.8-.3-1.5-.4-2.6-.4-2.1 0-3.6 1-3.6 2.8.1 1.6 1.7 2.6 3.2 2.6m-6.3-.1c.6 0 1.1-.1 1.5-.4v-1c-.5.3-.8.3-1.3.3-.9 0-1.4-.4-1.4-1.4v-4.9h2.6v-1.1h-2.6v-2.6h-1.3v2.5h-1v1.1h1.1v5c0 1.8 1 2.5 2.4 2.5m-7.9 0c1.6 0 3-.9 3-2.5 0-1.5-1.4-2-2.8-2.4-1.1-.4-2.1-.6-2.1-1.5 0-.8.6-1.3 1.6-1.3.8 0 1.8.3 2.5.8l.6-1c-.9-.6-2-.9-3-.9-1.6 0-2.9 1-2.9 2.4 0 1.5 1.5 2 2.8 2.4 1.1.3 2.1.6 2.1 1.5 0 .8-.8 1.4-1.8 1.4s-2-.4-2.9-1.1l-.8 1.1c1.1.7 2.4 1.1 3.7 1.1m-9.4-.2h1.3v-3.4c0-2.5 1.5-3.9 3.4-3.9h.1v-1.3c-1.6-.1-2.8 1-3.4 2.4v-2.3h-1.3v8.4h-.1zm-9-4.6c.1-1.6 1.3-2.9 2.8-2.9 1.6 0 2.5 1.4 2.6 2.9h-5.4zm2.9 4.9c1.6 0 2.6-.6 3.5-1.6l-.8-.8c-.6.8-1.5 1.1-2.6 1.1-1.5 0-2.8-1-3-2.9h6.7v-.4c0-2.5-1.4-4.4-3.9-4.4-2.4 0-4 2-4 4.4 0 2.8 1.9 4.6 4.1 4.6m-10.7-1.1c-1.6 0-3-1.3-3-3.3s1.4-3.3 3-3.3c1.5 0 3 1.3 3 3.3.1 1.9-1.5 3.3-3 3.3m-.2 1.1c1.5 0 2.5-.9 3.3-1.9v1.6h1.3v-11.9h-1.3v5c-.6-1-1.6-1.8-3.3-1.8-2 0-4 1.6-4 4.4 0 3 2 4.6 4 4.6m-13.6-.3h1.3v-4.8c0-1.6 1.1-2.6 2.5-2.6 1.5 0 2.4 1 2.4 2.5v4.9h1.3v-5.2c0-2-1.1-3.4-3.3-3.4-1.5 0-2.4.8-2.9 1.6v-1.5h-1.3v8.5zm-6.9.3c1.5 0 2.3-.8 2.9-1.6v1.5h1.3v-8.6h-1.3v4.8c0 1.6-1.1 2.6-2.5 2.6-1.5 0-2.4-1-2.4-2.5v-4.9h-1.3v5.3c0 2 1.1 3.4 3.3 3.4m-15.1-1.1c-1.6 0-3-1.3-3-3.3s1.4-3.3 3-3.3c1.5 0 3 1.3 3 3.3 0 1.9-1.5 3.3-3 3.3m-.3 1.1c1.5 0 2.5-.9 3.3-1.9v1.6h1.3v-11.9h-1.3v5c-.6-1-1.6-1.8-3.3-1.8-2 0-4 1.6-4 4.4 0 3 2 4.6 4 4.6m-13.6-.3h1.3v-4.8c0-1.6 1.1-2.6 2.5-2.6 1.5 0 2.4 1 2.4 2.5v4.9h1.3v-5.2c0-2-1.1-3.4-3.3-3.4-1.5 0-2.4.8-2.9 1.6v-1.5h-1.3v8.5zm-6.6-.7c-1.1 0-2.1-.6-2.1-1.6s.9-1.8 2.5-1.8c1 0 1.9.1 2.5.4v.8c-.2 1.2-1.4 2.2-2.9 2.2m-.3 1c1.5 0 2.5-.6 3-1.5v1.3h1.3v-5.2c0-1.1-.3-1.9-.9-2.5-.6-.6-1.5-.9-2.8-.9s-2.1.3-3 .8l.4 1c.8-.4 1.5-.6 2.5-.6 1.6 0 2.5.8 2.5 2.3v.3c-.8-.3-1.5-.4-2.6-.4-2.1 0-3.6 1-3.6 2.8.1 1.6 1.6 2.6 3.2 2.6m-16.3-4.9c.1-1.6 1.3-2.9 2.8-2.9 1.6 0 2.5 1.4 2.6 2.9h-5.4zm2.9 4.9c1.6 0 2.6-.6 3.5-1.6l-.8-.8c-.6.8-1.5 1.1-2.6 1.1-1.5 0-2.8-1-3-2.9h6.7v-.4c0-2.5-1.4-4.4-3.9-4.4-2.4 0-4 2-4 4.4-.1 2.8 1.8 4.6 4.1 4.6m-10-.3h1.3v-3.4c0-2.5 1.5-3.9 3.4-3.9h.1v-1.3c-1.6-.1-2.8 1-3.4 2.4v-2.3h-1.3v8.4h-.1zm-6.6-.7c-1.1 0-2.1-.6-2.1-1.6s.9-1.8 2.5-1.8c1 0 1.9.1 2.5.4v.8c0 1.2-1.3 2.2-2.9 2.2m-.3 1c1.5 0 2.5-.6 3-1.5v1.3h1.3v-5.2c0-1.1-.3-1.9-.9-2.5-.6-.6-1.5-.9-2.8-.9-1.3 0-2.1.3-3 .8l.4 1c.8-.4 1.5-.6 2.5-.6 1.6 0 2.5.8 2.5 2.3v.3c-.8-.3-1.5-.4-2.6-.4-2.1 0-3.6 1-3.6 2.8.1 1.6 1.7 2.6 3.2 2.6m-8 0c1.6 0 2.6-.6 3.4-1.6l-.8-.8c-.6.8-1.5 1.3-2.6 1.3-1.8 0-3.1-1.5-3.1-3.3s1.3-3.3 3-3.3c1.1 0 1.9.6 2.5 1.3l.9-.9c-.8-.9-1.8-1.5-3.4-1.5-2.5 0-4.3 2-4.3 4.4.1 2.4 2 4.4 4.4 4.4m-18.8-.3h1.3v-4.8c0-1.6 1.1-2.6 2.5-2.6 1.5 0 2.4 1 2.4 2.5v4.9h1.3v-5.2c0-2-1.1-3.4-3.3-3.4-1.5 0-2.4.8-2.9 1.6v-5h-1.3v12zm-3.8.2c.6 0 1.1-.1 1.5-.4v-1c-.5.3-.8.3-1.3.3-.9 0-1.4-.4-1.4-1.4v-4.9h2.6v-1.1h-2.6v-2.6h-1.3v2.5h-1.1v1.1h1.1v5c.2 1.8 1.3 2.5 2.5 2.5m-6.9-.2h1.3v-8.4h-1.3v8.4zm-.1-10.3h1.4v-1.4h-1.4v1.4zm-11.8 10.5h1.1l2.3-6.7 2.3 6.7h1.1l3-8.6h-1.3l-2.3 6.8-2.4-6.8h-1l-2.3 6.8-2.3-6.8h-1.4l3.2 8.6zm-12.5 0c1.6 0 3-.9 3-2.5 0-1.5-1.4-2-2.8-2.4-1.1-.4-2.1-.6-2.1-1.5 0-.8.6-1.3 1.6-1.3.8 0 1.8.3 2.5.8l.6-1c-.9-.6-2-.9-3-.9-1.6 0-2.9 1-2.9 2.4 0 1.5 1.5 2 2.8 2.4 1.1.3 2.1.6 2.1 1.5 0 .8-.8 1.4-1.8 1.4s-2-.4-2.9-1.1l-.6.9c1 .9 2.3 1.3 3.5 1.3m-12.8-.2h1.3v-4.8c0-1.6 1.1-2.6 2.5-2.6 1.5 0 2.4 1 2.4 2.5v4.9h1.3v-5.2c0-2-1.1-3.4-3.3-3.4-1.5 0-2.4.8-2.9 1.6v-1.5h-1.3v8.5zm-6.7-.8c-1.8 0-3.1-1.5-3.1-3.3s1.3-3.3 3.1-3.3 3.1 1.5 3.1 3.3c0 1.8-1.3 3.3-3.1 3.3m-.1 1.1c2.5 0 4.4-2 4.4-4.4s-1.9-4.4-4.4-4.4c-2.5 0-4.4 2-4.4 4.4.1 2.4 1.9 4.4 4.4 4.4m-7.9-.3h1.3v-8.4h-1.3v8.4zm-.1-10.3h1.4v-1.4h-1.4v1.4zm-3.8 10.5c.6 0 1.1-.1 1.5-.4v-1c-.4.3-.8.3-1.3.3-.9 0-1.4-.4-1.4-1.4v-4.9h2.6v-1.1h-2.6v-2.6h-1.3v2.5h-1.1v1.1h1.1v5c.1 1.8 1.1 2.5 2.5 2.5m-9.8.1c1.5 0 2.3-.8 2.9-1.6v1.5h1.3v-8.6h-1.3v4.8c0 1.6-1.1 2.6-2.5 2.6-1.5 0-2.4-1-2.4-2.5v-4.9h-1.3v5.3c0 2 1.3 3.4 3.3 3.4m-7.3-.3h1.3v-11.9h-1.3v11.9zm-6.8-.8c-1.8 0-3.1-1.5-3.1-3.3s1.3-3.3 3.1-3.3 3.1 1.5 3.1 3.3-1.2 3.3-3.1 3.3m0 1.1c2.5 0 4.4-2 4.4-4.4s-1.9-4.4-4.4-4.4-4.4 2-4.4 4.4 1.9 4.4 4.4 4.4m-9.2-.1c1.6 0 3-.9 3-2.5 0-1.5-1.4-2-2.8-2.4-1.1-.4-2.1-.6-2.1-1.5 0-.8.6-1.3 1.6-1.3.8 0 1.8.3 2.5.8l.6-1c-.9-.4-2.1-.8-3.1-.8-1.6 0-2.9 1-2.9 2.4 0 1.5 1.5 2 2.8 2.4 1.1.4 2.1.6 2.1 1.5 0 .8-.8 1.4-1.8 1.4s-2-.4-2.9-1.1l-.6.9c1.1.8 2.3 1.2 3.6 1.2m-14.8-1.9c-1.5 0-2.9-1.1-2.9-2.9s1.4-2.9 2.9-2.9c1.6 0 3.1 1.1 3.1 2.9s-1.5 2.9-3.1 2.9m0 4.4c1.4 0 2.5-.4 3.3-1.1.6-.6 1.1-1.6 1.1-3v-6.9h-1.3v1.5c-.6-.9-1.8-1.8-3.3-1.8-2 0-4 1.5-4 4 0 2.4 1.9 3.9 4 3.9 1.5 0 2.6-.8 3.3-1.8v1c0 2-1.3 3-3 3-1.3 0-2.3-.4-3.3-1.1l-.6 1c1.1.9 2.4 1.3 3.8 1.3m-13.8-2.7h1.3v-4.8c0-1.6 1.1-2.6 2.5-2.6 1.5 0 2.4 1 2.4 2.5v4.9h1.3v-5.2c0-2-1.1-3.4-3.3-3.4-1.5 0-2.4.8-2.9 1.6v-1.5h-1.3v8.5zm-4.1 0h1.3v-8.4h-1.3v8.4zm-.1-10.3h1.4v-1.4h-1.4v1.4zm-6.8 10.5h1.1l3.6-8.6h-1.4l-2.9 7-2.8-7h-1.4c.1 0 3.8 8.6 3.8 8.6zm-9.1-1c-1.8 0-3.1-1.5-3.1-3.3s1.3-3.3 3.1-3.3 3.1 1.5 3.1 3.3-1.2 3.3-3.1 3.3m0 1.1c2.5 0 4.4-2 4.4-4.4s-1.9-4.4-4.4-4.4-4.4 2-4.4 4.4 1.9 4.4 4.4 4.4m-19.3-.3h1.3v-4.8c0-1.5 1-2.6 2.4-2.6s2.1.9 2.1 2.5v4.9h1.3v-4.9c0-1.6 1-2.6 2.3-2.6 1.4 0 2.1.9 2.1 2.5v4.9h1.3v-5c0-2.1-1.1-3.4-3.1-3.4-1.5 0-2.4.8-3 1.6-.5-1-1.4-1.6-2.8-1.6s-2.1.8-2.8 1.6v-1.5h-1.3v8.4h.2z"/><defs><path id="c" d="M284 6.6h400v18.5h-400z"/></defs><clipPath id="d"><use xlink:href="#c" overflow="visible"/></clipPath><path clip-path="url(#d)" stroke="#fff" stroke-width=".697" d="M285.4 7.1h16.7v16.5h-5.5v-7.3l-8.2 8.2-3.8-3.8 8.2-8.2h-7.4v-5.4z" fill="none"/></svg>