<?xml version="1.0" encoding="utf-8"?>
<!-- Generator: Adobe Illustrator 18.1.1, SVG Export Plug-In . SVG Version: 6.00 Build 0)  -->
<svg version="1.1" id="Layer_1" xmlns="http://www.w3.org/2000/svg" xmlns:xlink="http://www.w3.org/1999/xlink" x="0px" y="0px"
	 viewBox="285 6.3 400 18.4" enable-background="new 285 6.3 400 18.4" xml:space="preserve">
<g>
	<defs>
		<rect id="SVGID_1_" x="284" y="6.6" width="400" height="18.5"/>
	</defs>
	<clipPath id="SVGID_2_">
		<use xlink:href="#SVGID_1_"  overflow="visible"/>
	</clipPath>
	<path clip-path="url(#SVGID_2_)" fill="#FFFFFF" d="M679.7,17.9c-1.5,0-2.9-1.1-2.9-2.9s1.4-2.9,2.9-2.9s3.1,1.1,3.1,2.9
		S681.4,17.9,679.7,17.9 M679.7,22.3c1.4,0,2.5-0.4,3.3-1.1c0.6-0.6,1.1-1.6,1.1-3v-6.9h-1.3v1.5c-0.6-0.9-1.8-1.8-3.3-1.8
		c-2,0-4,1.5-4,4c0,2.4,1.9,3.9,4,3.9c1.5,0,2.6-0.8,3.3-1.8v1c0,2-1.3,3-3,3c-1.3,0-2.3-0.4-3.3-1.1l-0.6,1
		C677.1,21.9,678.3,22.3,679.7,22.3 M666,19.6h1.3v-4.8c0-1.6,1.1-2.6,2.5-2.6c1.5,0,2.4,1,2.4,2.5v4.9h1.3v-5.2
		c0-2-1.1-3.4-3.3-3.4c-1.5,0-2.4,0.8-2.9,1.6v-1.5H666V19.6z M661.7,19.6h1.3v-8.4h-1.3V19.6z M661.7,9.3h1.4V7.9h-1.4V9.3z
		 M654.6,18.8c-1.6,0-3-1.3-3-3.3s1.4-3.3,3-3.3c1.5,0,3,1.3,3,3.3C657.6,17.4,656.2,18.8,654.6,18.8 M654.3,19.9
		c1.5,0,2.5-0.9,3.3-1.9v1.6h1.3V7.7h-1.3v5c-0.6-1-1.6-1.8-3.3-1.8c-2,0-4,1.6-4,4.4C650.3,18.3,652.3,19.9,654.3,19.9 M640.7,19.6
		h1.3v-4.8c0-1.6,1.1-2.6,2.5-2.6c1.5,0,2.4,1,2.4,2.5v4.9h1.3v-5.2c0-2-1.1-3.4-3.3-3.4c-1.5,0-2.4,0.8-2.9,1.6v-1.5h-1.3V19.6z
		 M634.1,18.9c-1.1,0-2.1-0.6-2.1-1.6c0-1,0.9-1.8,2.5-1.8c1,0,1.9,0.1,2.5,0.4v0.8C637,17.9,635.6,18.9,634.1,18.9 M633.8,19.9
		c1.5,0,2.5-0.6,3-1.5v1.3h1.3v-5.2c0-1.1-0.3-1.9-0.9-2.5c-0.6-0.6-1.5-0.9-2.8-0.9c-1.3,0-2.1,0.3-3,0.8l0.4,1
		c0.8-0.4,1.5-0.6,2.5-0.6c1.6,0,2.5,0.8,2.5,2.3v0.3c-0.8-0.3-1.5-0.4-2.6-0.4c-2.1,0-3.6,1-3.6,2.8
		C630.7,18.9,632.3,19.9,633.8,19.9 M627.5,19.8c0.6,0,1.1-0.1,1.5-0.4v-1c-0.5,0.3-0.8,0.3-1.3,0.3c-0.9,0-1.4-0.4-1.4-1.4v-4.9
		h2.6v-1.1h-2.6V8.7h-1.3v2.5H624v1.1h1.1v5C625.1,19.1,626.1,19.8,627.5,19.8 M619.6,19.8c1.6,0,3-0.9,3-2.5c0-1.5-1.4-2-2.8-2.4
		c-1.1-0.4-2.1-0.6-2.1-1.5c0-0.8,0.6-1.3,1.6-1.3c0.8,0,1.8,0.3,2.5,0.8l0.6-1c-0.9-0.6-2-0.9-3-0.9c-1.6,0-2.9,1-2.9,2.4
		c0,1.5,1.5,2,2.8,2.4c1.1,0.3,2.1,0.6,2.1,1.5c0,0.8-0.8,1.4-1.8,1.4s-2-0.4-2.9-1.1l-0.8,1.1C617,19.4,618.3,19.8,619.6,19.8
		 M610.2,19.6h1.3v-3.4c0-2.5,1.5-3.9,3.4-3.9h0.1v-1.3c-1.6-0.1-2.8,1-3.4,2.4v-2.3h-1.3v8.4H610.2z M601.2,15
		c0.1-1.6,1.3-2.9,2.8-2.9c1.6,0,2.5,1.4,2.6,2.9H601.2L601.2,15z M604.1,19.9c1.6,0,2.6-0.6,3.5-1.6l-0.8-0.8
		c-0.6,0.8-1.5,1.1-2.6,1.1c-1.5,0-2.8-1-3-2.9h6.7v-0.4c0-2.5-1.4-4.4-3.9-4.4c-2.4,0-4,2-4,4.4C600,18.1,601.9,19.9,604.1,19.9
		 M593.4,18.8c-1.6,0-3-1.3-3-3.3s1.4-3.3,3-3.3c1.5,0,3,1.3,3,3.3C596.5,17.4,594.9,18.8,593.4,18.8 M593.2,19.9
		c1.5,0,2.5-0.9,3.3-1.9v1.6h1.3V7.7h-1.3v5c-0.6-1-1.6-1.8-3.3-1.8c-2,0-4,1.6-4,4.4C589.2,18.3,591.2,19.9,593.2,19.9 M579.6,19.6
		h1.3v-4.8c0-1.6,1.1-2.6,2.5-2.6c1.5,0,2.4,1,2.4,2.5v4.9h1.3v-5.2c0-2-1.1-3.4-3.3-3.4c-1.5,0-2.4,0.8-2.9,1.6v-1.5h-1.3
		L579.6,19.6L579.6,19.6z M572.7,19.9c1.5,0,2.3-0.8,2.9-1.6v1.5h1.3v-8.6h-1.3V16c0,1.6-1.1,2.6-2.5,2.6c-1.5,0-2.4-1-2.4-2.5v-4.9
		h-1.3v5.3C569.4,18.5,570.5,19.9,572.7,19.9 M557.6,18.8c-1.6,0-3-1.3-3-3.3s1.4-3.3,3-3.3c1.5,0,3,1.3,3,3.3
		C560.6,17.4,559.1,18.8,557.6,18.8 M557.3,19.9c1.5,0,2.5-0.9,3.3-1.9v1.6h1.3V7.7h-1.3v5c-0.6-1-1.6-1.8-3.3-1.8c-2,0-4,1.6-4,4.4
		C553.3,18.3,555.3,19.9,557.3,19.9 M543.7,19.6h1.3v-4.8c0-1.6,1.1-2.6,2.5-2.6c1.5,0,2.4,1,2.4,2.5v4.9h1.3v-5.2
		c0-2-1.1-3.4-3.3-3.4c-1.5,0-2.4,0.8-2.9,1.6v-1.5h-1.3V19.6L543.7,19.6z M537.1,18.9c-1.1,0-2.1-0.6-2.1-1.6c0-1,0.9-1.8,2.5-1.8
		c1,0,1.9,0.1,2.5,0.4v0.8C539.8,17.9,538.6,18.9,537.1,18.9 M536.8,19.9c1.5,0,2.5-0.6,3-1.5v1.3h1.3v-5.2c0-1.1-0.3-1.9-0.9-2.5
		c-0.6-0.6-1.5-0.9-2.8-0.9s-2.1,0.3-3,0.8l0.4,1c0.8-0.4,1.5-0.6,2.5-0.6c1.6,0,2.5,0.8,2.5,2.3v0.3c-0.8-0.3-1.5-0.4-2.6-0.4
		c-2.1,0-3.6,1-3.6,2.8C533.7,18.9,535.2,19.9,536.8,19.9 M520.5,15c0.1-1.6,1.3-2.9,2.8-2.9c1.6,0,2.5,1.4,2.6,2.9
		C525.9,15,520.5,15,520.5,15z M523.4,19.9c1.6,0,2.6-0.6,3.5-1.6l-0.8-0.8c-0.6,0.8-1.5,1.1-2.6,1.1c-1.5,0-2.8-1-3-2.9h6.7v-0.4
		c0-2.5-1.4-4.4-3.9-4.4c-2.4,0-4,2-4,4.4C519.2,18.1,521.1,19.9,523.4,19.9 M513.4,19.6h1.3v-3.4c0-2.5,1.5-3.9,3.4-3.9h0.1v-1.3
		c-1.6-0.1-2.8,1-3.4,2.4v-2.3h-1.3v8.4H513.4z M506.8,18.9c-1.1,0-2.1-0.6-2.1-1.6c0-1,0.9-1.8,2.5-1.8c1,0,1.9,0.1,2.5,0.4v0.8
		C509.7,17.9,508.4,18.9,506.8,18.9 M506.5,19.9c1.5,0,2.5-0.6,3-1.5v1.3h1.3v-5.2c0-1.1-0.3-1.9-0.9-2.5c-0.6-0.6-1.5-0.9-2.8-0.9
		c-1.3,0-2.1,0.3-3,0.8l0.4,1c0.8-0.4,1.5-0.6,2.5-0.6c1.6,0,2.5,0.8,2.5,2.3v0.3c-0.8-0.3-1.5-0.4-2.6-0.4c-2.1,0-3.6,1-3.6,2.8
		C503.4,18.9,505,19.9,506.5,19.9 M498.5,19.9c1.6,0,2.6-0.6,3.4-1.6l-0.8-0.8c-0.6,0.8-1.5,1.3-2.6,1.3c-1.8,0-3.1-1.5-3.1-3.3
		s1.3-3.3,3-3.3c1.1,0,1.9,0.6,2.5,1.3l0.9-0.9c-0.8-0.9-1.8-1.5-3.4-1.5c-2.5,0-4.3,2-4.3,4.4C494.2,17.9,496.1,19.9,498.5,19.9
		 M479.7,19.6h1.3v-4.8c0-1.6,1.1-2.6,2.5-2.6c1.5,0,2.4,1,2.4,2.5v4.9h1.3v-5.2c0-2-1.1-3.4-3.3-3.4c-1.5,0-2.4,0.8-2.9,1.6v-5
		h-1.3L479.7,19.6L479.7,19.6z M475.9,19.8c0.6,0,1.1-0.1,1.5-0.4v-1c-0.5,0.3-0.8,0.3-1.3,0.3c-0.9,0-1.4-0.4-1.4-1.4v-4.9h2.6
		v-1.1h-2.6V8.7h-1.3v2.5h-1.1v1.1h1.1v5C473.6,19.1,474.7,19.8,475.9,19.8 M469,19.6h1.3v-8.4H469V19.6z M468.9,9.3h1.4V7.9h-1.4
		V9.3z M457.1,19.8h1.1l2.3-6.7l2.3,6.7h1.1l3-8.6h-1.3l-2.3,6.8l-2.4-6.8h-1l-2.3,6.8l-2.3-6.8h-1.4L457.1,19.8L457.1,19.8z
		 M444.6,19.8c1.6,0,3-0.9,3-2.5c0-1.5-1.4-2-2.8-2.4c-1.1-0.4-2.1-0.6-2.1-1.5c0-0.8,0.6-1.3,1.6-1.3c0.8,0,1.8,0.3,2.5,0.8l0.6-1
		c-0.9-0.6-2-0.9-3-0.9c-1.6,0-2.9,1-2.9,2.4c0,1.5,1.5,2,2.8,2.4c1.1,0.3,2.1,0.6,2.1,1.5c0,0.8-0.8,1.4-1.8,1.4s-2-0.4-2.9-1.1
		l-0.6,0.9C442.1,19.4,443.4,19.8,444.6,19.8 M431.8,19.6h1.3v-4.8c0-1.6,1.1-2.6,2.5-2.6c1.5,0,2.4,1,2.4,2.5v4.9h1.3v-5.2
		c0-2-1.1-3.4-3.3-3.4c-1.5,0-2.4,0.8-2.9,1.6v-1.5h-1.3V19.6z M425.1,18.8c-1.8,0-3.1-1.5-3.1-3.3s1.3-3.3,3.1-3.3
		c1.8,0,3.1,1.5,3.1,3.3C428.2,17.3,426.9,18.8,425.1,18.8 M425,19.9c2.5,0,4.4-2,4.4-4.4s-1.9-4.4-4.4-4.4c-2.5,0-4.4,2-4.4,4.4
		C420.7,17.9,422.5,19.9,425,19.9 M417.1,19.6h1.3v-8.4h-1.3V19.6z M417,9.3h1.4V7.9H417V9.3z M413.2,19.8c0.6,0,1.1-0.1,1.5-0.4v-1
		c-0.4,0.3-0.8,0.3-1.3,0.3c-0.9,0-1.4-0.4-1.4-1.4v-4.9h2.6v-1.1h-2.6V8.7h-1.3v2.5h-1.1v1.1h1.1v5
		C410.8,19.1,411.8,19.8,413.2,19.8 M403.4,19.9c1.5,0,2.3-0.8,2.9-1.6v1.5h1.3v-8.6h-1.3V16c0,1.6-1.1,2.6-2.5,2.6
		c-1.5,0-2.4-1-2.4-2.5v-4.9h-1.3v5.3C400.1,18.5,401.4,19.9,403.4,19.9 M396.1,19.6h1.3V7.7h-1.3V19.6z M389.3,18.8
		c-1.8,0-3.1-1.5-3.1-3.3s1.3-3.3,3.1-3.3c1.8,0,3.1,1.5,3.1,3.3S391.2,18.8,389.3,18.8 M389.3,19.9c2.5,0,4.4-2,4.4-4.4
		s-1.9-4.4-4.4-4.4s-4.4,2-4.4,4.4S386.8,19.9,389.3,19.9 M380.1,19.8c1.6,0,3-0.9,3-2.5c0-1.5-1.4-2-2.8-2.4
		c-1.1-0.4-2.1-0.6-2.1-1.5c0-0.8,0.6-1.3,1.6-1.3c0.8,0,1.8,0.3,2.5,0.8l0.6-1c-0.9-0.4-2.1-0.8-3.1-0.8c-1.6,0-2.9,1-2.9,2.4
		c0,1.5,1.5,2,2.8,2.4c1.1,0.4,2.1,0.6,2.1,1.5c0,0.8-0.8,1.4-1.8,1.4c-1,0-2-0.4-2.9-1.1l-0.6,0.9
		C377.6,19.4,378.8,19.8,380.1,19.8 M365.3,17.9c-1.5,0-2.9-1.1-2.9-2.9s1.4-2.9,2.9-2.9c1.6,0,3.1,1.1,3.1,2.9
		S366.9,17.9,365.3,17.9 M365.3,22.3c1.4,0,2.5-0.4,3.3-1.1c0.6-0.6,1.1-1.6,1.1-3v-6.9h-1.3v1.5c-0.6-0.9-1.8-1.8-3.3-1.8
		c-2,0-4,1.5-4,4c0,2.4,1.9,3.9,4,3.9c1.5,0,2.6-0.8,3.3-1.8v1c0,2-1.3,3-3,3c-1.3,0-2.3-0.4-3.3-1.1l-0.6,1
		C362.6,21.9,363.9,22.3,365.3,22.3 M351.5,19.6h1.3v-4.8c0-1.6,1.1-2.6,2.5-2.6c1.5,0,2.4,1,2.4,2.5v4.9h1.3v-5.2
		c0-2-1.1-3.4-3.3-3.4c-1.5,0-2.4,0.8-2.9,1.6v-1.5h-1.3C351.5,11.2,351.5,19.6,351.5,19.6z M347.4,19.6h1.3v-8.4h-1.3V19.6z
		 M347.3,9.3h1.4V7.9h-1.4V9.3z M340.5,19.8h1.1l3.6-8.6h-1.4l-2.9,7l-2.8-7h-1.4C336.8,11.2,340.5,19.8,340.5,19.8z M331.4,18.8
		c-1.8,0-3.1-1.5-3.1-3.3s1.3-3.3,3.1-3.3c1.8,0,3.1,1.5,3.1,3.3S333.3,18.8,331.4,18.8 M331.4,19.9c2.5,0,4.4-2,4.4-4.4
		s-1.9-4.4-4.4-4.4s-4.4,2-4.4,4.4S328.9,19.9,331.4,19.9 M312.1,19.6h1.3v-4.8c0-1.5,1-2.6,2.4-2.6c1.4,0,2.1,0.9,2.1,2.5v4.9h1.3
		v-4.9c0-1.6,1-2.6,2.3-2.6c1.4,0,2.1,0.9,2.1,2.5v4.9h1.3v-5c0-2.1-1.1-3.4-3.1-3.4c-1.5,0-2.4,0.8-3,1.6c-0.5-1-1.4-1.6-2.8-1.6
		c-1.4,0-2.1,0.8-2.8,1.6v-1.5h-1.3v8.4H312.1z"/>
</g>
<g>
	<defs>
		<rect id="SVGID_3_" x="284" y="6.6" width="400" height="18.5"/>
	</defs>
	<clipPath id="SVGID_4_">
		<use xlink:href="#SVGID_3_"  overflow="visible"/>
	</clipPath>
	<path clip-path="url(#SVGID_4_)" fill="none" stroke="#FFFFFF" stroke-width="0.697" d="M285.4,7.1h16.7v16.5h-5.5v-7.3l-8.2,8.2
		l-3.8-3.8l8.2-8.2h-7.4V7.1z"/>
</g>
</svg>
