<svg xmlns="http://www.w3.org/2000/svg" xmlns:xlink="http://www.w3.org/1999/xlink" viewBox="0 0 575 175" enable-background="new 0 0 575 175"><defs><path id="a" d="M2 0h572.7v176h-572.7z"/></defs><clipPath id="b"><use xlink:href="#a" overflow="visible"/></clipPath><path clip-path="url(#b)" fill="#fff" d="M478.9 69.9v-9.3h8.1v9.3h4.3v-20.9h-4.3v8h-8.1v-8h-4.3v20.9h4.3zm-25.5-20.9v3.7h6.3v17.2h4.4v-17.2h6.2v-3.7h-16.9zm-4 0h-4.4v20.9h4.3v-20.9zm-34.9 0l5.9 20.9h4l2.5-12.2.7-4 .7 4 2.5 12.2h4.2l6-20.9h-4.4l-2.8 12.1-.6 3.2-.6-3.3-2.6-12h-4.6l-2.4 12-.6 3.3-.6-3.3-2.8-12h-4.5zm-30.1 14.5c0 2.2.8 3.9 2.4 5.1 1.6 1.2 3.7 1.9 6.5 1.9 2.7 0 4.8-.6 6.2-1.9 1.5-1.3 2.2-2.8 2.2-4.8 0-1.9-.6-3.3-1.9-4.3-.8-.6-2-1.1-3.6-1.5l-3.7-.9c-1.4-.3-2.3-.6-2.8-.9-.7-.4-1-.9-1-1.7 0-.8.3-1.4 1-1.9s1.6-.7 2.8-.7c1 0 1.9.2 2.6.5 1 .5 1.6 1.4 1.7 2.7h4.2c-.1-2.2-.9-3.9-2.5-5.1-1.6-1.2-3.5-1.7-5.7-1.7-2.7 0-4.7.6-6.1 1.9-1.4 1.2-2.1 2.8-2.1 4.7 0 2 .7 3.6 2.1 4.5.8.6 2.4 1.1 4.6 1.6l2.3.5c1.3.3 2.3.6 2.9 1 .6.4.9.9.9 1.6 0 1.2-.6 2-1.9 2.4-.7.2-1.5.3-2.6.3-1.8 0-3-.4-3.7-1.3-.4-.5-.7-1.2-.8-2.1h-4zm-21.8 6.4h4.1v-14.8l8.5 14.8h4.4v-20.9h-4.1v14.6l-8.3-14.6h-4.6v20.9zm-5-10.5c0-3.8-1.1-6.7-3.2-8.6-1.6-1.6-3.9-2.4-6.8-2.4s-5.3.8-6.8 2.4c-2.1 1.9-3.2 4.8-3.2 8.6 0 3.7 1.1 6.6 3.2 8.6 1.6 1.6 3.9 2.4 6.8 2.4s5.3-.8 6.8-2.4c2.2-1.9 3.2-4.8 3.2-8.6m-10 7.4c-1.7 0-3.1-.6-4.1-1.9-1-1.3-1.5-3.1-1.5-5.4 0-2.3.5-4.2 1.5-5.4 1-1.3 2.4-1.9 4.1-1.9 1.7 0 3.1.6 4.1 1.9 1 1.3 1.5 3.1 1.5 5.4 0 2.4-.5 4.2-1.5 5.4-1 1.3-2.3 1.9-4.1 1.9m-15-17.8h-4.3v20.9h4.3v-20.9zm-25.2 0v3.7h6.3v17.2h4.4v-17.2h6.2v-3.7h-16.9zm-20.9 12.9c0 2.2.3 3.9 1 5.2 1.3 2.3 3.7 3.4 7.4 3.4 3.6 0 6.1-1.1 7.3-3.4.7-1.2 1-3 1-5.2v-12.9h-4.4v12.8c0 1.4-.2 2.5-.5 3.1-.5 1.2-1.7 1.8-3.4 1.8-1.8 0-2.9-.6-3.4-1.8-.3-.7-.5-1.7-.5-3.1v-12.8h-4.4v12.9zm-19.5 8h14.8v-3.8h-10.4v-17.1h-4.4v20.9zm-5-10.5c0-3.8-1.1-6.7-3.2-8.6-1.6-1.6-3.9-2.4-6.8-2.4-3 0-5.3.8-6.8 2.4-2.1 1.9-3.2 4.8-3.2 8.6 0 3.7 1.1 6.6 3.2 8.6 1.6 1.6 3.9 2.4 6.8 2.4 3 0 5.3-.8 6.8-2.4 2.1-1.9 3.2-4.8 3.2-8.6m-10 7.4c-1.7 0-3.1-.6-4.1-1.9-1-1.3-1.5-3.1-1.5-5.4 0-2.3.5-4.2 1.5-5.4 1-1.3 2.4-1.9 4.1-1.9 1.7 0 3.1.6 4.1 1.9 1 1.3 1.5 3.1 1.5 5.4 0 2.4-.5 4.2-1.5 5.4-1 1.3-2.4 1.9-4.1 1.9m-31.4-3.3c0 2.2.8 3.9 2.4 5.1 1.6 1.2 3.7 1.9 6.5 1.9 2.7 0 4.8-.6 6.2-1.9 1.5-1.3 2.2-2.8 2.2-4.8 0-1.9-.6-3.3-1.9-4.3-.8-.6-2-1.1-3.6-1.5l-3.7-.9c-1.4-.3-2.3-.6-2.8-.9-.7-.4-1-.9-1-1.7 0-.8.3-1.4 1-1.9s1.6-.7 2.8-.7c1 0 1.9.2 2.6.5 1 .5 1.6 1.4 1.7 2.7h4.2c-.1-2.2-.9-3.9-2.5-5.1-1.6-1.2-3.5-1.7-5.7-1.7-2.7 0-4.7.6-6.1 1.9-1.4 1.2-2.1 2.8-2.1 4.7 0 2 .7 3.6 2.1 4.5.8.6 2.4 1.1 4.6 1.6l2.3.5c1.3.3 2.3.6 2.9 1 .6.4.9.9.9 1.6 0 1.2-.6 2-1.9 2.4-.7.2-1.5.3-2.6.3-1.8 0-3-.4-3.7-1.3-.4-.5-.7-1.2-.8-2.1h-4zm-14.7-7.9c-.2-2-1.2-3.7-2.8-5-1.6-1.3-3.7-2-6.4-2-3.1 0-5.5 1-7.4 3.1-1.9 2-2.8 4.7-2.8 8.1 0 3.3.9 6 2.8 7.9 1.8 1.9 4 2.9 6.8 2.9 1.7 0 3.1-.4 4.2-1.1.7-.4 1.4-1.1 2.3-2.1l.4 2.6h2.9v-11.3h-8.7v3.5h4.8c-.2 1.4-.8 2.5-1.7 3.3-.9.8-2.1 1.3-3.6 1.3s-2.8-.5-4-1.6c-1.2-1.1-1.8-2.9-1.8-5.4 0-2.5.5-4.4 1.6-5.7 1.1-1.3 2.5-1.9 4.1-1.9.9 0 1.7.2 2.4.5 1.3.6 2.1 1.6 2.4 3h4.5zm-41.1 14.3h4.1v-14.8l8.5 14.8h4.4v-20.9h-4.1v14.6l-8.3-14.6h-4.6v20.9zm-5.8-20.9h-4.3v20.9h4.3v-20.9zm-17.4 15.9l-4.5-15.9h-4.7l7.1 20.9h4.1l7.1-20.9h-4.5l-4.6 15.9zm-12.7-5.5c0-3.8-1.1-6.7-3.2-8.6-1.6-1.6-3.9-2.4-6.8-2.4-3 0-5.3.8-6.8 2.4-2.1 1.9-3.2 4.8-3.2 8.6 0 3.7 1.1 6.6 3.2 8.6 1.6 1.6 3.9 2.4 6.8 2.4 3 0 5.3-.8 6.8-2.4 2.2-1.9 3.2-4.8 3.2-8.6m-10 7.4c-1.7 0-3.1-.6-4.1-1.9-1-1.3-1.5-3.1-1.5-5.4 0-2.3.5-4.2 1.5-5.4 1-1.3 2.4-1.9 4.1-1.9 1.7 0 3.1.6 4.1 1.9s1.5 3.1 1.5 5.4c0 2.4-.5 4.2-1.5 5.4-1 1.3-2.4 1.9-4.1 1.9m-25-1.3l-3.8-16.5h-6.3v20.9h4.1v-17.5l3.9 17.5h4.2l4-17.5v17.5h4.1v-20.9h-6.3l-3.9 16.5zM556.4 107.8c0 .3.1.4.1.5l.6.7h2.5c.5-.2.9-.3 1-.4.2-.1.6-.3 1-.4.5-.1.7-.3.8-.3l.7-.5c.3-.3.6-.5.7-.6.2-.1.4-.3.8-.7.4-.3.6-.6.6-.7.1-.1.3-.4.5-.9.2-.4.4-.8.5-.9 0-.1 0-.2.1-.5l.2-.5c0-.1.1-.3.3-.5.2-.2.3-.4.4-.5l1.1-1.1h1.5c.1 0 .2-.1.3-.4.1-.3.3-.5.3-.6.1-.1.1-.4.2-.9.1-.4.1-.8.1-.9v-.9c0-.1 0-.3-.1-.4-.1-.1-.2-.3-.2-.3h-3.2c-.1 0-.3 0-.6.1l-.7.2c-.2.1-.6.2-1 .4s-.7.3-.8.3c-.1.1-.5.4-1.2.9s-1.2.9-1.6 1.2c-.1.1-.5.4-1 .9s-.9.7-1.1.9l-.7.7c-.1.1-.2.3-.3.6l-.4.8c0 .1 0 .2-.1.5l-.2.5-.5.9c-.3.5-.4.8-.4.9-.1.1-.1.3-.1.6v.7c-.2.2-.2.4-.1.6m-6.6 38.2c.1.4.3.7.4.9.1.1.2.3.4.6s.3.4.3.5h1c.1 0 .2 0 .3-.1.1-.1.3-.2.4-.2.2-.1.6-.3 1-.6.5-.3.7-.4.7-.5.1 0 .3-.3.7-.9.4-.6.8-1.1 1.1-1.5.1-.1.2-.2.4-.5s.3-.5.4-.6l.3-.3.4-.7c.2-.4.3-.6.4-.7l.4-.8.5-1 .4-.9.2-.5c0-.1 0-.4.1-.7l.2-.7.2-.5c.1-.3.2-.6.3-1 .1-.4.2-.7.3-1 .1-.3.2-.5.2-.6.1-.1.1-.4.2-.9.1-.4.1-.7.1-.9.1-.1.1-.4.3-1 .1-.5.3-1.1.4-1.8s.3-1.2.5-1.8c.1-.6.2-.9.3-1v-.7l.2-.5c.1-.3.2-.5.2-.5v-2.9h-.8c-.2.1-.5.3-1.1.5-.5.2-.9.4-1 .5-.1 0-.2.1-.4.3l-.7.6-.8.7c-.3.2-.5.4-.6.5l-3.1 3.1-.7.9c-.3.4-.6.8-.7.9-.1.1-.4.4-.7 1-.4.5-.6.9-.7 1.1 0 .1 0 .2-.1.3-.1.1-.2.3-.2.4-.1.1-.1.3-.2.6l-.3.9c-.1.3-.2.6-.3.8-.1.2-.1.4-.1.4-.1.1-.1.4-.2.9s-.1.7-.1.9c-.1.1-.1.4-.2.7-.1.4-.1.6-.1.7v6.6000000000000005c-.4.2-.3.5-.1 1m-4.2-7.6c0-.1 0-.3.1-.8.1-.4.2-.8.2-1 0-.1 0-.3.1-.7.1-.3.2-.6.2-.7 0-.1 0-.2.1-.5s.2-.5.2-.5c0-.1 0-.4.1-.9.1-.4.2-.7.2-.9 0-.1.1-.4.3-.9.2-.4.3-.8.4-.9.1-.2.2-.4.3-.7l.5-.9c.2-.3.3-.6.4-.8.1-.2.2-.4.3-.4.1-.1.3-.4.6-.8.4-.4.6-.7.7-.9l1.4-1.4c.2-.2.4-.4.8-.7l1-.9c.3-.3.6-.6.9-.8l.5-.4c.1-.1.4-.3.9-.6.5-.4.9-.6 1.2-.8.2-.1.4-.2.7-.4l.9-.6c.3-.2.6-.3.8-.5.2-.2.4-.2.4-.2.1-.1.3-.2.7-.4.3-.2.7-.4 1-.5.4-.2.7-.4 1.1-.5s.6-.3.7-.4l.4-.4c.2-.2.3-.4.3-.5.1-.1.1-.4.2-.9.1-.4.1-.8.1-.9v-1.7000000000000002c0-.1 0-.3-.1-.4-.1-.1-.2-.3-.2-.3-.2.1-.8.4-1.7.7-.9.4-1.5.6-1.8.7-.1 0-.2 0-.4.1s-.4.1-.5.1c-.1.1-.4.1-.7.2-.4.1-.6.1-.7.1h-.4c-.1 0-.5-.1-1.1-.3-.6-.2-1-.3-1.3-.4-.1-.1-.3-.1-.6-.2s-.4-.1-.5-.1l-.5-.5-.5-.5c-.1-.1-.2-.3-.3-.6l-.4-.8c-.1-.2-.3-.6-.4-1-.2-.4-.3-.7-.3-.7v-1.4s0-.6.1-1.3c0-.1 0-.2.1-.5l.3-.9c.1-.4.2-.7.4-1 .1-.3.2-.5.3-.7.1-.1.2-.4.3-.7.1-.4.3-.7.5-1.2.2-.4.4-.8.5-1.2l.4-.8c.1-.3.4-.7.7-1.3l.7-1.1c0-.1.2-.2.5-.5.4-.3.6-.5.8-.6.1-.1.2-.1.4-.2s.3-.1.4-.2c.1-.1.3-.1.6-.2s.4-.1.5-.1h1c.1 0 .2.1.4.4.1.1.2.1.4.2s.3.1.4.1c.2-.1.7-.4 1.4-.7l1.3-.7c.1 0 .2 0 .5-.1s.5-.1.5-.1l.7-.4c.4-.2.6-.3.7-.3.2-.1.6-.3 1-.4.4-.2.7-.3.7-.3h3.5c.1 0 .2 0 .3.1.1.1.3.2.4.2l.4.4c.1.1.3.4.5.7.2.4.4.6.5.6.1.2.3.4.4.8l.3.6v3.2c0 .1 0 .2-.1.5l-.3.9c-.1.4-.2.7-.4 1-.1.3-.2.5-.3.7 0 .1-.1.2-.3.5-.2.3-.3.5-.3.6-.1.1-.3.4-.6.9-.3.4-.4.7-.5.9-.1.1-.2.4-.5.7-.3.4-.5.6-.6.7l-.4.4c-.1.1-.2.4-.4.9-.2.4-.3.7-.3.9-.1.1-.1.5-.2 1-.1.6-.1.9-.1 1-.1.1-.1.3-.2.6s-.1.4-.1.5v4.300000000000001c0 .1 0 .4.1.9.1.4.2.7.2.9v.4l-.5.9c-.3.5-.5.8-.5.9-.1.1-.3.4-.4.7l-.3.6v.4c0 .2-.1.5-.1.8l-.1.8c-.1.2-.1.4-.1.4 0 .2 0 .4-.1.8s-.1.7-.2 1.2c-.1.4-.2.8-.2 1.2-.1.4-.1.6-.1.7-.1.1-.1.4-.2.7-.1.4-.1.6-.1.7-.1.1-.1.5-.2 1.2s-.1 1.1-.1 1.2c0 .1-.1.2-.2.4s-.2.3-.2.4c0 .1 0 .2-.1.5s-.2.6-.2.9l-.2.9c-.1.3-.1.4-.1.5 0 .1 0 .3-.1.5s-.2.4-.2.5c-.2.4-.3.6-.4.6 0 .1 0 .3-.1.6l-.2.5-.5 1.1-.5 1.1c-.1.1-.1.2-.2.5s-.2.6-.3 1c-.1.4-.2.7-.3 1-.1.3-.2.5-.2.6 0 .1-.2.4-.7 1.1-.5.7-.8 1.2-1 1.7l-.8 1.1s-.6.8-.6.9c-.1.1-.3.4-.6.8-.4.4-.6.7-.8 1l-.3.3c-.1.1-.3.2-.6.4s-.4.3-.5.4c-.7.7-1.3 1.2-2.1 1.8-.7.5-1.4.8-2.2.9-.7.1-1.4-.2-2.1-.6-.7-.5-1.3-1.4-1.8-2.7 0-.1-.1-.3-.3-.7-.2-.4-.3-.8-.4-1-.1-.1-.1-.4-.2-.7-.1-.4-.1-.6-.1-.7-.1-.1-.2-.2-.4-.5s-.3-.4-.3-.5c-.1-.1-.1-.5-.2-1.1-.1-.6-.1-1.1-.1-1.4v-5.2zm-8-28.4v-.9c0-.1 0-.4.1-.9l.2-1.5c.1-.5.2-1 .2-1.5.1-.5.1-.8.1-.9.1-.1.1-.1 0-.3v-.3c-.1 0-.2 0-.3-.1-.2-.1-.3-.1-.3-.1-.1.1-.3.2-.6.5-.4.3-.6.5-.8.6l-.4.4-.6.6c-.3.3-.7.6-1.1.9l-1.2.9c-.4.3-.6.5-.6.5-.1 0-.2.1-.4.3-.2.2-.3.3-.4.3-.9 1.1-1.9 2.1-3.1 3.2-1.1 1-2.4 1.9-3.7 2.7-.4.2-.6.3-.6.4h-.7l-.4-.4-.2-.4c-.1-.1-.1-.3-.1-.3v-2.6c0-.2.1-.4.3-.5-.2-.2-.1-.5.3-.9s.8-1 1.3-1.5c.5-.6 1-1.2 1.4-1.9.4-.7.6-1.4.6-2 0-.1 0-.4.1-.7l.2-.7c0-.1 0-.4.1-.9.1-.4.2-.7.2-.9 0-.1.1-.4.3-.9.2-.5.3-.8.3-.9v-.3c.1-.1.1-.4.2-.7.1-.4.1-.6.1-.6l.4-.7c.2-.4.3-.6.4-.7l.4-.4c.1 0 .2 0 .5-.1s.5-.2.6-.2h.4l.3.2c.1.1.3.1.3.1.3.1.6.3.8.7.2.3.3.6.3.8.1.2.1.8.2 1.6s.1 1.3.1 1.6h.7c.1-.1.3-.2.7-.3.3-.1.6-.3.7-.4.1-.1.2-.2.5-.4s.6-.4.9-.7c.3-.2.6-.5.9-.6.3-.2.5-.3.6-.4.1-.1.2-.2.5-.4s.4-.3.5-.4l.4-.2c.1-.1.3-.1.3-.1.1 0 .5 0 1.1-.1.6-.1 1-.2 1.3-.2h.7c.1 0 .1 0 .2.1s.1.2.2.2c.1.1.3.3.5.6s.3.4.3.5v6.3c-.1.1-.1.2-.2.4s-.1.3-.1.4c-.1.2-.3.5-.4 1.1-.1.5-.3.9-.3 1-.1.2-.1.5-.2.9s-.1.7-.1.9v2.8c0 .1 0 .3.1.6l.2.5h.7c.1-.1.2-.1.4-.2s.3-.1.4-.1c.1-.1.2-.1.5-.2s.4-.1.5-.1c.1-.1.3-.2.5-.4s.4-.3.5-.4l1.1-1.1c.1-.1.2-.2.5-.4s.4-.3.5-.4c.1-.1.4-.2.7-.5l.7-.5c0-.1.1-.2.4-.4.1-.1.4-.4.9-.7.5-.4.7-.6.8-.7.4-.4.8-.8 1.4-1.2.6-.5 1.1-.9 1.4-1.2l.8-.2.9-.2c.2-.1.3.1.2.5 0 .4-.1.9-.2 1.5s-.2 1.1-.4 1.6c-.1.5-.2.9-.3 1l-.1.2c-.1.2-.1.3-.2.3s-.1 0-.2.1c-.1 0-.2 0-.3.1-.2.1-.3.1-.3.1-.1.1-.4.3-.7.6l-.7.5-.4.4c-.2.2-.4.4-.6.7l-.6.7-.4.4c-.1 0-.2.1-.5.3-.3.2-.5.3-.5.4l-.7.7c-.1.1-.4.3-1 .8-.6.4-1.1.8-1.4 1-.1.1-.3.3-.6.4l-.5.2c-.2.2-.8.5-1.5.9-.8.4-1.2.5-1.3.5h-.7c-.3-.1-.9-.3-1.7-.5-.8-.2-1.3-.4-1.4-.5-.1-.1-.3-.2-.6-.5-.3-.2-.4-.4-.5-.5-.1-.2-.2-.6-.4-1.3-.2-.7-.3-1.2-.3-1.5-.1-.9-.1-1.4-.1-1.6 0-.5 0-.9.1-1.3m-8.9-32.8l.4-.3c.1-.1.3-.1.6-.2.4-.1.6-.1.7-.1h1.7999999999999998c.1 0 .2 0 .3.1.1.1.3.2.4.2l.8.7c.3.4.5.6.6.6.1.3.1.5.1.6v.8c0 .1 0 .2-.1.3-.1.2-.2.3-.2.4-.2.2-.3.3-.4.3-.1.1-.2.1-.5.2s-.4.1-.5.1c-.1.1-.2.1-.4.2s-.3.1-.4.1h-.9c-.1 0-.3 0-.6-.1-.1-.1-.4-.3-.9-.8-.4-.5-.7-.8-.9-.9-.1-.1-.1-.2-.2-.5s-.1-.5-.1-.6v-1.1c.1.2.2.1.4 0m-16.9 39c-.2-1.6-.2-3.3.2-5.2.4-1.9.9-3.7 1.6-5.4.7-1.7 1.4-2.9 2-3.6l.4-.4c.2-.2.4-.4.6-.7.2-.3.5-.5.6-.8.2-.2.3-.4.4-.5l2.4-2.4c.1-.1.2-.1.4-.1h.9c.2 0 .4 0 .4.1.1.1.3.2.4.4.1.2.2.4.2.5.1.1.1.3.1.7v1.9c0 .4 0 .5-.1.5 0 .1-.2.4-.5.7-.3.4-.5.6-.5.7-.1.1-.1.2-.2.4s-.1.3-.1.4c-.8.2-1.5.9-2.3 2.1-.8 1.2-1.4 2.5-1.9 4-.5 1.4-.9 2.7-1.1 3.8-.2 1.1-.1 1.7.2 1.7.1 0 .4-.1.9-.3.5-.2.9-.4 1.3-.5.4-.2.6-.3.7-.3.3-.2.5-.3.6-.4.2-.1.6-.3 1-.6s.7-.4.8-.5l.7-.5.7-.5c.5-.2.8-.5 1.1-.8.2-.3.5-.5.7-.7.1 0 .3 0 .8-.1.4-.1.8-.2.9-.2h.7l.2.3c.1.2.1.3.1.4s0 .4-.1.9c-.1.4-.2.7-.2.9 0 .2-.1.4-.4.4-.1.1-.2.2-.5.4s-.4.3-.5.4c-.1.1-.4.5-.8 1.1-.4.6-.7 1-.8 1.1-.1.1-.3.2-.7.4-.4.2-.6.3-.7.4l-.4.7c-.1.1-.5.4-1.2.9-.7.4-1.2.7-1.5.9l-1.1.4h-1.1c-.1-.1-.4 0-.9.1s-.8.2-1 .2c-.1-.1-.3-.1-.6-.2s-.4-.1-.5-.1c-1.3-.5-2.1-1.4-2.3-3m-31.5-4.9c0 .1 0 .2.1.3.1.2.2.3.2.3h1c.1 0 .4 0 1-.1.2 0 .6 0 1.2-.1.5-.1.9-.1 1-.1.2-.1.5-.2 1-.4s1-.5 1.5-.8c.5-.3 1-.5 1.4-.8.4-.2.8-.4.9-.5.1-.1.4-.3.8-.7l1-1c.1-.1.3-.4.5-.7.2-.4.4-.6.5-.7.1-.1.1-.3.2-.5s.1-.4.1-.5c.1-.5.1-.9.1-1v-1.1c0-.1 0-.4-.1-.7l-.2-.7c0-.1-.1-.1-.3-.3-.1 0-.3 0-.5.1s-.4.1-.5.2c-.1.1-.2.2-.5.4s-.5.3-.5.3c-.1.1-.3.2-.7.4-.3.2-.7.4-1.1.5-.4.2-.8.4-1.1.5-.4.2-.6.3-.6.4-.2.1-.6.3-1.1.7-.5.3-.8.6-.9.7l-3.5 3.5-.2.3-.2.4c-.1.1-.1.3-.2.6s-.1.4-.1.5v.6000000000000001zm-15.3 3.4c-.2-.7.4-1.7 1.8-3.1.1-.1.2-.1.4-.2s.3-.1.4-.2c.1 0 .2 0 .5-.1l.5-.2c.1 0 .2-.1.4-.3s.3-.3.4-.3c.1-.1.2-.1.5-.2s.5-.1.5-.1c.1-.1.4-.4.9-.7.4-.4.7-.6.9-.7.1 0 .2 0 .4-.1s.3-.2.4-.2l.9-.7c.5-.3.8-.6.9-.7l.9-.9c.4-.5.7-.8.9-.9l.9-.5c.5-.3.8-.5.9-.6.1-.1.4-.4.9-.7.4-.4.9-.7 1.5-1.2l1.5-1.2.9-.7c.1-.1.2-.2.5-.3.3-.1.5-.3.6-.4l.4-.2c.1-.1.3-.1.3-.1.1 0 .5.1 1 .3.6.2.9.3 1 .4h.8c.1 0 .2 0 .3-.1.1-.1.3-.2.4-.2.1-.1.2-.2.5-.4s.4-.3.5-.4c.1 0 .3 0 .4-.1.1-.1.3-.2.3-.2.1 0 .2 0 .5-.1s.5-.2.5-.2c.1 0 .4-.1.7-.3.4-.2.6-.3.7-.3.1-.1.2-.1.5-.2s.4-.1.5-.1c.1-.1.3-.2.6-.5.4-.3.6-.5.8-.6l.2-.2c.1-.1.1-.1.1-.2.1-.2.2-.5.4-.9s.4-.9.7-1.3l.6-1.3.4-.8c.1-.1.2-.5.4-1l.4-1.1c0-.1 0-.2.1-.5s.1-.6.2-1 .2-.7.2-1c.1-.3.1-.5.2-.6l.7-1.1.7-1.1c.1-.1.1-.2.2-.5s.1-.4.1-.5c.1-.2.3-.5.4-.9.1-.4.3-.7.3-.9.1-.2.3-.6.6-1.1l.5-.9c0-.1.1-.2.3-.4l.4-.4c0-.1 0-.2.1-.4s.1-.3.1-.4c.1-.1.3-.3.5-.7.2-.3.4-.6.5-.7l.2-.1c.1 0 .1 0 .2.1l.7.4c.4.2.6.4.7.5.1.1.2.2.3.4l.3.4c.1.1.1.3.1.6v1.2999999999999998c0 .3 0 .4-.1.4l-.2.5c-.1.3-.2.6-.4 1l-.4 1.1c-.2.4-.3.7-.4.9l-.5 1.1c-.3.6-.5 1-.5 1.1-.1.1-.2.4-.3.9-.1.5-.3.9-.4 1.1 0 .1 0 .4-.1.7l-.2.7c-.1.3-.2.8-.4 1.3-.2.6-.3 1-.3 1.1-.1.1-.1.2-.2.4s-.1.3-.1.4c-.1.2-.3.6-.4 1.2-.2.5-.3.8-.3.9v1.4c0 .1.1.2.2.4s.2.3.2.4c.1.2.1.5.2.9s.1.7.1.8c0 .1 0 .2-.1.5s-.2.5-.2.6l-.3.5-.4.9c-.2.3-.3.6-.4.9-.1.3-.2.4-.3.5-.1.1-.2.5-.4 1.1-.2.6-.3 1-.4 1.1-.1.1-.2.5-.5 1-.3.6-.4.9-.5 1-.1.1-.1.3-.2.6s-.1.4-.1.5c0 .1 0 .4.1.9.1.4.2.7.2.9 0 .1.1.2.3.5l.6.9.7 1c.2.3.4.6.5.8.1.1.2.3.4.5s.3.3.4.3c.1.1.4.1.7.2.4.1.6.1.7.1.1 0 .3-.1.9-.3.5-.2.9-.3 1.2-.4.1 0 .2 0 .4-.1s.3-.2.4-.2c1.8-1.5 3.2-2.2 4.1-2.2 1 0 1.5.4 1.6 1.2.1.8-.2 1.8-.9 3s-1.7 2.2-3.1 3.1c-.1.1-.3 0-.6 0-.3-.1-.6-.1-.8 0-.2.1-.6.3-1 .4-.4.1-.7.3-.8.3h-3.5c-.2-.1-.5-.1-.9-.2s-.7-.1-.8-.2c-.1-.1-.4-.3-1-.8-.5-.4-.9-.8-1.2-1l-2.4-2.4c-.1-.1-.1-.2-.2-.5s-.1-.5-.2-.5l-.3-.2-.4-.2h-1c0 .1-.2.2-.7.5-.4.3-.8.5-1 .6-.1.1-.5.4-1 .7-.6.4-.9.6-1 .7-.2.1-.5.3-.8.4-.4.2-.7.4-1.1.5-.4.2-.7.3-1 .5-.3.2-.5.2-.5.2-.1 0-.3 0-.6.1s-.6.2-.9.2c-.4.1-.7.1-1 .2-.3.1-.5.1-.7.1h-1.7000000000000002c-.1 0-.4 0-.7-.1l-.7-.2-.7-.9c-.3-.5-.5-.8-.6-.9-.1-.1-.4-.3-.7-.6l-.7-.7c-.1-.1-.1-.2-.2-.4s-.1-.3-.2-.4c-.1-.1-.1-.4-.2-.9s-.1-.8-.2-.9h-1.2c-.1.1-.2.2-.5.3-.3.2-.5.3-.6.4-.1.1-.5.4-1 .9-.6.5-.9.8-1 .9-.1.1-.4.2-.8.4s-.6.3-.7.3c-.1.1-.2.2-.5.4s-.6.4-.9.5c-.3.2-.6.4-.9.5-.3.2-.4.3-.5.4-1.2-.6-1.9-1-2.1-1.7m-3.9-4.7v-.9c0-.1 0-.4.1-.9l.2-1.5c.1-.5.2-1 .2-1.5.1-.5.1-.8.1-.9.1-.1.1-.1 0-.3v-.3c-.1 0-.2 0-.3-.1-.1-.1-.3-.1-.3-.1-.1.1-.3.2-.6.5-.4.3-.6.5-.8.6l-.4.4-.6.6c-.3.3-.7.6-1.1.9l-1.2.9c-.4.3-.6.5-.6.5-.1 0-.2.1-.4.3-.2.2-.3.3-.4.3-.9 1.1-1.9 2.1-3.1 3.2-1.1 1-2.4 1.9-3.7 2.7-.4.2-.6.3-.6.4h-.6l-.4-.4-.2-.4c-.1-.1-.1-.3-.1-.3v-2.6c0-.2.1-.4.3-.5-.2-.2-.1-.5.3-.9s.8-1 1.3-1.5c.5-.6 1-1.2 1.4-1.9.4-.7.6-1.4.6-2 0-.1 0-.4.1-.7l.2-.7c0-.1 0-.4.1-.9.1-.4.2-.7.2-.9 0-.1.1-.4.3-.9.2-.5.3-.8.3-.9v-.3c.1-.1.1-.4.2-.7.1-.4.1-.6.1-.6l.4-.7c.2-.4.3-.6.4-.7l.4-.4c.1 0 .2 0 .5-.1s.5-.2.6-.2h.4l.3.2c.1.1.3.1.3.1.3.1.6.3.8.7.2.3.3.6.3.8.1.2.1.8.2 1.6s.1 1.3.1 1.6h.7c.1-.1.3-.2.7-.3.3-.1.6-.3.7-.4.1-.1.2-.2.5-.4s.6-.4.9-.7c.3-.2.6-.5.9-.6.3-.2.5-.3.6-.4.1-.1.2-.2.5-.4s.4-.3.5-.4l.4-.2c.1-.1.3-.1.3-.1.1 0 .5 0 1.1-.1.6-.1 1-.2 1.3-.2h.7c.1 0 .1 0 .2.1s.1.2.2.2c.1.1.3.3.4.6.2.3.3.4.3.5v6.3c-.1.1-.1.2-.2.4s-.1.3-.1.4c-.1.2-.3.5-.4 1.1-.1.5-.3.9-.3 1-.1.2-.1.5-.2.9s-.1.7-.1.9v2.8c0 .1 0 .3.1.6l.2.5h.7c.1-.1.2-.1.4-.2s.3-.1.4-.1c.1-.1.2-.1.5-.2s.4-.1.5-.1c.1-.1.3-.2.5-.4s.4-.3.5-.4l1.1-1.1c.1-.1.2-.2.5-.4s.4-.3.5-.4c.1-.1.4-.2.7-.5l.7-.5c0-.1.1-.2.4-.4.1-.1.4-.4.9-.7.5-.4.7-.6.8-.7.4-.4.8-.8 1.4-1.2.6-.5 1.1-.9 1.4-1.2l.8-.2.9-.2c.2-.1.3.1.2.5 0 .4-.1.9-.2 1.5s-.2 1.1-.4 1.6c-.1.5-.2.9-.3 1l-.1.2c-.1.2-.1.3-.2.3s-.1 0-.2.1c-.1 0-.2 0-.3.1-.1.1-.3.1-.3.1-.1.1-.4.3-.7.6l-.7.5-.4.4c-.2.2-.4.4-.6.7l-.6.7-.4.4c-.1 0-.2.1-.5.3-.3.2-.5.3-.5.4l-.7.7c-.1.1-.4.3-1 .8-.6.4-1.1.8-1.4 1-.1.1-.3.3-.6.4l-.5.2c-.2.2-.8.5-1.5.9-.8.4-1.2.5-1.3.5h-.7c-.3-.1-.9-.3-1.7-.5-.8-.2-1.3-.4-1.4-.5-.1-.1-.3-.2-.6-.5-.3-.2-.4-.4-.5-.5-.1-.2-.2-.6-.4-1.3-.2-.7-.3-1.2-.3-1.5-.1-.9-.1-1.4-.1-1.6 0-.5 0-.9.1-1.3m-32 .7v.5c.4.4.6.6.7.6.1.1.2.1.4.2s.3.1.4.1c.9.1 1.5.1 1.7.1h1.8c.1-.1.4-.3.7-.6.4-.4.6-.6.6-.7 0-.1.1-.3.2-.8s.3-1 .4-1.6c.1-.6.3-1.2.4-1.7l.2-.9c0-.1.1-.2.2-.4s.2-.3.2-.4c0-.1 0-.2.1-.5l.2-.5c0-.1 0-.3.1-.4.1-.1.2-.3.2-.3.1-.2.2-.4.4-.7l.6-.9.6-.9c.2-.3.3-.5.4-.7v-1.5000000000000002c-.1-.1-.2-.3-.5-.6-.2-.3-.4-.4-.5-.4-.1-.1-.2-.1-.4-.1h-1c-.2 0-.4 0-.4.1-.1 0-.2 0-.5.1s-.5.1-.6.2c-.1.1-.3.3-.7.4-.3.2-.6.3-.7.3l-.4.4-.7 2.2c-.1.1-.1.2-.2.4s-.1.3-.2.3c-.1.2-.4.6-.9 1.1-.4.6-.8 1.1-1.1 1.5-.2.3-.4.5-.4.5-.1.1-.2.4-.5 1.2-.3.7-.6 1.3-.8 1.8-.2.5-.3.8-.4.9v1.1c.4.1.4.3.4.6m-5-4.4c0-.6.2-1.4.6-2.4.4-1 .7-1.8.9-2.3.1-.1.2-.2.4-.5s.3-.4.4-.5l3.1-3.1c.1-.1.4-.1.7-.2.4-.1.6-.1.7-.2 1.1-.5 2.1-1 3.1-1.3 1-.4 1.9-1 2.8-1.8.1-.1.2-.1.5-.1h1.6c.4 0 .6 0 .6.1.1 0 .4.1 1 .4.5.3.9.5 1.2.6l.5.5c.2.2.4.4.4.5.1.1.3.4.5 1 .2.5.4.9.5 1.1.1.1.1.4.2.7.1.4.1.6.1.7v3.5c0 .1 0 .3-.1.8-.1.4-.2.8-.2 1 0 .1-.1.5-.3 1.3-.2.8-.4 1.6-.6 2.6-.2.9-.4 1.8-.6 2.6-.2.8-.3 1.2-.3 1.3.1.1.1.2.1.3v.4c.1 0 .1 0 .2.1s.2.1.2.1c.1.1.4.1 1.1.1h1.2c.1 0 .3 0 .7-.1.3-.1.5-.1.5-.2 1.3-1 2.4-1.9 3.1-2.9.7-1 1.3-1.5 1.6-1.5.3 0 .5.2.5.7v2.7c0 .3.1.5.1.6-.1.1-.3.3-.7.6l-1 .8c-.3.3-.6.5-.9.7-.3.2-.5.3-.6.4 0 .1-.1.1-.4.2-.3.1-.5.2-.6.2-.3.1-.8.3-1.3.6-.6.3-.9.4-1 .4h-.5c-.3 0-.5.1-.7.1-.1 0-.5 0-1.2.1-.1 0-.3-.1-.8-.2s-.9-.3-1.5-.5c-.5-.2-1-.4-1.5-.5-.4-.1-.7-.2-.8-.2h-1l-.5.2c-.3.1-.5.2-.5.2-.1.1-.4.1-.9.2-.4.1-.7.1-.9.2l-1.4.7h-1.4c-.2-.1-.6-.2-1.1-.3-.6-.1-.9-.3-1-.4-.1-.1-.5-.3-1-.7-.6-.4-.9-.6-1-.8-.2-.1-.6-.3-1-.6s-.7-.4-.8-.4h-.4l-.6-7.6zm-16.8 10v-.2l-.2-1.1c-.2-.6-.2-1-.2-1.1.1-3 .6-5.5 1.3-7.4.7-1.9 1.4-3.4 1.8-4.4.1-.1.1-.3.3-.6l.4-1c.2-.4.3-.7.5-1 .1-.3.2-.5.3-.5.1-.2.4-.7.9-1.3.5-.6.8-1 .9-1.2.1-.2.3-.6.5-1.3.2-.7.4-1.2.5-1.5.1-.1.1-.2.1-.5s.1-.5.1-.5c.1-.1.2-.4.5-.7l.5-.7c-.1-.1-.1-.2-.1-.3v-.4c0-.1 0-.1-.1-.2s-.2-.1-.2-.2c-.1-.1-.5-.4-1-.7-.5-.4-.9-.6-1-.7l-.2-.2c-.1-.1-.1-.1-.2-.1-.1-.2-.1-.4-.1-.4v-.5c0-.1 0-.4.1-.7.1-.4.1-.6.1-.7l.2-.2c.1-.1.1-.1.2-.1s.4 0 .9-.1c.4-.1.8-.2.9-.2h.8c.4.2.6.4.6.4h1l.4-.4.2-.5c.1-.3.3-.4.3-.5 0-.1 0-.2.1-.4s.2-.3.2-.3c0-.1.1-.3.2-.5s.3-.4.3-.5c.1-.1.2-.3.4-.7l.4-.7c.1-.1.2-.4.3-.8.1-.4.3-.6.3-.7.1-.1.2-.3.5-.5.2-.2.4-.4.4-.5.1-.1.3-.1.5-.2s.4-.1.4-.1c.1 0 .3.2.7.5.4.3.7.5.9.6.1.1.3.2.4.4.1.2.2.7.3 1.3l.2 1.1c0 .1 0 .4-.1.7-.1.4-.1.6-.1.7l-.5.9c-.3.4-.4.7-.4.9v.6c0 .1 0 .2.1.3.1.1.1.2.1.3.2.1.7.2 1.4.3.7.2 1.2.3 1.3.4l1.1.5 1.1.5c.1.1.2.1.4 0h.4c.1.1.1.1.3.2.1.1.2.1.2.2v-.1.3.3c-.2.1-.6.1-1.2.2s-1 .1-1.2.2c-.4.1-.9.1-1.6.2-.7.1-1.1.1-1.1.1h-1.4c-.1 0-.2 0-.5.1s-.5.2-.6.2l-.3.3c-.1.3-.4.8-.9 1.6s-.8 1.3-.9 1.6c-.1.1-.2.3-.4.6s-.4.7-.5 1.1c-.2.4-.4.8-.5 1.1-.2.3-.3.5-.4.6-.1.1-.2.3-.4.6s-.4.6-.5 1c-.2.4-.4.7-.5 1-.2.3-.3.5-.4.5l-.3.7c-.1.1-.2.3-.4.5-.1.2-.2.4-.3.5-.2.2-.3.3-.3.4-.1.1-.2.2-.4.5s-.3.5-.3.6c-.1.2-.3.5-.5.9l-.6 1.1-.7 1.4c-.1.1-.1.4-.1.9v.9c0 .1 0 .2-.1.5s-.1.6-.1.9l-.1.9c-.1.3-.1.4-.1.5-.1.5 0 .8.5.9.4.2 1 .2 1.5.2.6 0 1.1-.1 1.6-.4.5-.2.7-.4.7-.7h.6c.1-.1.2-.1.3-.3.1-.1.3-.2.3-.2 0 .1.2 0 .6-.3.4-.3.9-.6 1.4-.8.5-.2 1.1-.3 1.6-.1.5.1 1 .7 1.3 1.7 0 .1-.2.2-.5.5s-.5.5-.5.6c-.1.1-.3.3-.4.6-.2.3-.3.5-.3.6-.1.1-.3.3-.4.5-.1.2-.3.4-.4.4-.1.1-.4.3-.9.6-.4.3-.7.5-.9.6-.1.1-.6.3-1.5.6s-1.8.7-2.8 1c-1 .4-1.6.5-1.6.5h-.9c-.2 0-.6 0-1.1-.1-.6-.1-.9-.2-1.1-.2l-.7-.4c-.1 0-.2-.1-.5-.3-.3-.2-.5-.3-.5-.4-.1 0-.3-.1-.7-.3v-.4c.1.2.1.2.1.1m-13.3-4.5c.2.4.4.6.6.8l.5 2-.2-.4-.4-.2c-.2-.1-.4-.3-.6-.7-.2-.3-.5-.6-.8-.8-.5-.8-.7-1.2-.7-1.3l1-.8c.1.6.3 1.1.6 1.4m1-7.2l.7-.7v.4c0 .1 0 .3-.1.5s-.2.4-.2.5c0 .1 0 .2-.1.4s-.2.3-.2.4l-.7-.4c.3-.4.5-.8.6-1.1m-13.5 7.1c-.2.5-.3.7-.3.9-.1.5-.2 1.1-.4 1.8s-.3 1.4-.4 1.9c0 .6.1.9.4 1.1.3.2 1-.1 2.1-.7l2-2.2c.1-.1.4-.4.8-.9.4-.4.6-.7.8-.9.1-.1.4-.2 1-.3.5-.1.9-.1 1.1-.3.1.1.2.2.4.3l.4.4.7 1.1c.3.6.6 1 .7 1.3.1.2.2.4.5.7l.9.9c.3.3.6.6.9.8.3.2.5.4.6.5.2.2.4.3.6.3.4 0 1 0 1.7-.1s1.1-.1 1.2-.2l.6-.7v-3.4c.1-.1.2-.5.3-1.3.1-.7.3-1.2.4-1.5l.2-.5c.1-.3.2-.6.4-.9.1-.3.2-.6.4-.9.1-.3.2-.5.2-.6.1-.1.5-.2 1.2-.4s1.4-.5 2.2-.8c.8-.3 1.5-.6 2.2-.8l1.2-.4c.1 0 .1 0 .2-.1s.1-.2.2-.2l1.3-1.1c.5-.4.8-.7 1-1.1.2-.4.2-.8.1-1.3-.2-.4-.6-.9-1.4-1.4-.1 0-.2 0-.4-.1-.1 0-.2 0-.4.1-.1 0-.4.1-.9.3-.5.2-1.1.4-1.8.6l-1.8.6s-.8.3-.9.3c-.1.1-.2.1-.3 0-.1-.1-.3-.1-.3-.1l-.1-.2c.1-.1.1-.3.2-.6s.1-.4.1-.5c.1-.1.1-.2 0-.4v-.4c.1-.1.1-.5.2-1 .1-.6.1-.9.1-1v-1.8c.4-.7.5-1.1.5-1.3v-.6l.2-.7v-2.2c0-.1 0-.2-.1-.4s-.2-.4-.2-.5c0-.2-.1-.4-.4-.4-.1-.1-.3-.2-.6-.4h-1.4c-.1 0-.2 0-.3.1-.2.1-.3.2-.4.2l-.4.4c-.1.1-.3.3-.4.5l-.2.4c-.1.1-.1.4-.2.7-.1.4-.1.6-.1.7-.1.1-.2.4-.3.8-.1.4-.3.7-.4.9-.2.2-.4.7-.5 1.5-.2.8-.5 1.3-.8 1.6 0 .1 0 .2-.1.4s-.2.3-.2.4l-.5.7c-.3.3-.6.7-1 1.1l-1.1 1.2-.8.8c-.1.1-.3.4-.8.9-.5.4-.8.7-.9.9l-8 6.9c-.4-.1-.5.1-.7.6m-11.8-1.8c-.4.5-.6 1.1-.6 1.7 0 .7 0 1.3.2 1.9.1.6.4 1.2.6 1.8.3.5.5 1 .8 1.3l.4.4c.1.1.5.2 1.3.3.8.1 1.4.2 1.9.4.5.1.8.2 1.1.4.2.1.5.2.8.2h2.5c.1 0 .3-.1.7-.3.4-.2.7-.3 1-.4l.4-.2c.2-.1.3-.1.3-.2.2-.1.5-.4 1.1-.9.5-.4.9-.7 1.1-.9-.2.2-.1.2.1 0l.5-.7c.3-.3.5-.6.6-.7.1-.1.3-.4.7-.8l.8-.8.6-.6.6-.6.9-.9c.3-.7.4-1 .2-1.2-.2-.1-.2-.3-.2-.6 0-.5-.1-.8-.4-.8-.3 0-.7.2-1.1.4-.4.3-.8.6-1.3 1-.4.4-.8.7-1.1 1-.3.3-.6.6-.8.7-.4.3-.7.5-.9.6-.3.1-.5.3-.8.5-.1.1-.2.2-.5.3-.3.1-.5.3-.6.4-.2.1-.4.3-.8.4-.3.2-.5.2-.6.2-.1.1-.2.1-.5.1h-1.1c-.2 0-.4 0-.5-.1-1.2.4-2.1.4-2.6.1-.5-.3-.9-.7-1-1.3-.1-.6-.1-1.3.1-2.1s.5-1.5.9-2.2c.1-.2.4-.6.7-1.3.4-.7.6-1.2.7-1.4.1-.2.2-.5.2-.9s.1-.7.2-1c.1-.1.1-.3.2-.7.1-.3.1-.6.1-.7v-2.8l-.2-.7-.2-.7v-.4c.1-.1.2-.5.4-1.1.2-.6.3-1 .3-1.1v-2.7l-.7-.7c-.1-.1-.4-.3-.7-.4l-.7-.2c0-.2-.2-.3-.7-.3h-2.1c-.4 0-.6 0-.6.1-.1 0-.4.1-.9.4-.5.3-.8.5-.9.6-.1.1-.3.4-.4.7-.1.4-.3.6-.3.7v2.8c.1.1.2.4.5.7.3.4.5.6.5.7.1.1.1.2.2.4s.1.3.1.4c-.2.5-.3.9-.4 1-.1.1-.1.2-.2.4s-.1.3-.2.4c-.1.1-.2.3-.4.5s-.3.4-.4.5l-.4.4c-.2.2-.5.6-.9 1-.5.5-.7.7-.8.9-.1.1-.2.2-.4.5s-.3.5-.4.5c-.1.1-.4.4-.7.9-.4.5-.6.8-.8.9-.1.1-.3.3-.6.7-.3.3-.5.6-.5.7l-3.1 3.2c-.1 0-.2.1-.5.4-.3.2-.5.4-.8.5-.1.1-.5.4-1.1.7-.6.4-1 .6-1.2.6 0 .1-.1.3-.4.4-.3.2-.5.2-.6.2-.1.1-.3.2-.6.5-.3.2-.5.4-.6.5l-.2.2c-.1.1-.1.2-.2.2.2.1.7.3 1.4.6s1.2.5 1.4.6c.1.1.4.2.7.3.4.1.6.1.7.1h.30000000000000004l.1-.1c.1-.1.3-.2.7-.3.3-.2.7-.3 1.1-.5.4-.2.8-.3 1.1-.5l.7-.4.5-.7c.3-.3.4-.5.4-.6l.5-.5.4-.4c1.6-1.6 2.8-2.7 3.6-3.5.9-.8 1.5-1.4 1.8-1.9v2.9000000000000004zm-20.2-7.9h2.1c.1 0 .2 0 .5-.1s.5-.2.6-.2l.7-.4c.4-.2.6-.3.6-.4.1 0 .2-.1.4-.3l.4-.4c0-.1 0-.2.1-.3.1-.1.2-.3.2-.4.1-.2.3-.6.4-1 .1-.4.3-.7.3-.8v-2.5l-.2-.2c-.1-.1-.1-.1-.1-.2h-.4c-.1 0-.2.1-.4.4-.1.1-.4.3-.7.5-.4.2-.6.4-.7.5-.1.1-.2.2-.5.4s-.4.3-.5.3c-.2.1-.4.3-.8.6s-.6.4-.6.4c-.1.1-.2.2-.4.5s-.3.5-.4.6c-.1.2-.3.6-.5 1.2s-.4 1-.4 1.2c0 .5.1.6.3.6m-8 6.7v-.5l.1-.9c.1-.3.1-.6.1-.9v-3.6c.1-.1.3-.4.7-.7.3-.4.6-.6.7-.7.1-.1.2-.2.4-.5.2-.2.3-.4.4-.5.1-.1.3-.4.4-.7.1-.4.3-.6.3-.7.1-.1.1-.2.2-.5s.1-.5.2-.5l.4-.7c.2-.4.3-.6.4-.6 0-.1.1-.2.3-.4l.4-.4c.1-.1.3-.2.6-.4s.4-.3.5-.4c.2 0 .4-.1.4-.4l.4-.4c.2-.2.5-.4.8-.6l.8-.6c.2-.2.4-.3.4-.4.1 0 .2-.1.4-.4.2-.1.5-.3.8-.6.4-.3.6-.4.6-.5.1-.1.5-.3 1-.5.6-.2.9-.4 1-.4.1-.1.4-.1.7-.2.4-.1.6-.1.7-.1.7-.1 1-.1 1.2-.1h1.2c.1.1.2.2.4.3l.4.4c.1.1.3.5.5 1.1.2.6.4 1.1.4 1.3.1.1.1.4.2.9s.1.7.1.9v1.6c0 .1 0 .5-.1 1.3 0 .2-.1.6-.3 1.3-.2.7-.3 1.2-.5 1.5-.1.3-.3.8-.5 1.3l-.4 1.1-.9.9c-.5.5-.9.9-1.2 1.1 0 .1-.1.2-.4.3-.3.2-.5.3-.6.4-.2.1-.6.3-1 .6s-.7.4-.8.5c-.1 0-.3 0-.8.1s-.8.1-.9.1c-.1 0-.3 0-.6.1s-.6.1-1 .1-.7.1-1 .1h-.5c-.2.1-.6.1-1 .2s-.7.1-.8.1l-.4.7c-.1.1-.1.3-.2.6s-.1.4-.1.5c-.1 0-.1.1-.1.3v.8c0 .1 0 .2.1.2 0 .1.1.3.3.6.2.3.3.4.4.5.1.1.2.4.2 1.1 0 .7.2 1.1.5 1.2l.7.2c.4.1.7.2.7.3.1 0 .2 0 .5.1.2.1.4.1.4.1.1.1.1.1.2.1l.2-.1c.1 0 .2 0 .4-.1s.4-.1.5-.1c.1-.1.3-.1.8-.2.4-.1.7-.1.9-.2.1-.1.3-.1.5-.1s.4-.1.5-.1c.1-.1.2-.1.4-.2s.3-.1.4-.1l.5-.3c.3-.1.5-.2.5-.2.1-.1.5-.3 1-.5.6-.2.9-.4 1-.5.2 0 .5-.1.7-.3.2-.2.4-.3.5-.4.2-.2.7-.5 1.4-1.1.7-.5 1.4-1 2.2-1.3.7-.4 1.4-.4 2-.3.6.2.9.9.9 2.2-.3.2-.8.7-1.4 1.4-.7.7-1.1 1.2-1.3 1.4 0 .1-.1.2-.3.3-.2.2-.3.3-.4.3.4-.2.7-.4 1-.6.2-.2.5-.3.7-.4.2-.1.3-.2.2-.2-.1.1-.4.3-.9.6-.6.4-1.2.8-1.9 1.2-.7.5-1.4.9-2 1.3-.6.4-1 .6-1.1.8-.1.1-.4.3-.8.4l-.8.3c-.1.1-.4.1-.8.3-.4.1-.7.2-.8.3-.2.1-.6.3-1 .4-.5.1-.7.2-.9.2-1 0-2 0-3-.1s-2-.3-2.9-.5c-.9-.2-1.7-.6-2.3-1.1-.6-.5-1-1.1-1.2-2-.1-.1-.2-.4-.5-.7s-.4-.6-.5-.7l-.2-.3c-.1-.1-.1-.3-.1-.3-.1-.1-.1-.3-.2-.6s-.1-.4-.1-.5v-3.4zm-31.9 2.6c0 .1 0 .2.1.3.1.2.2.3.2.3h1c.1 0 .4 0 1-.1.2 0 .6 0 1.2-.1.5-.1.9-.1 1-.1.2-.1.5-.2 1-.4s1-.5 1.5-.8c.5-.3 1-.5 1.4-.8.4-.2.8-.4.9-.5.1-.1.4-.3.8-.7l1-1c.1-.1.3-.4.5-.7.2-.4.4-.6.5-.7.1-.1.1-.3.2-.5s.1-.4.1-.5c.1-.5.1-.9.1-1v-1.1c0-.1 0-.4-.1-.7l-.2-.7c0-.1-.1-.1-.3-.3-.1 0-.3 0-.5.1s-.4.1-.5.2c-.1.1-.2.2-.5.4s-.5.3-.5.3c-.1.1-.3.2-.7.4-.3.2-.7.4-1.1.5-.4.2-.8.4-1.1.5-.4.2-.6.3-.6.4-.2.1-.6.3-1.1.7-.5.3-.8.6-.9.7l-3.5 3.5-.2.3-.2.4c-.1.1-.1.3-.2.6s-.1.4-.1.5v.6000000000000001zm-15.3 3.4c-.2-.7.4-1.7 1.8-3.1.1-.1.2-.1.4-.2s.3-.1.4-.2c.1 0 .2 0 .5-.1l.5-.2c.1 0 .2-.1.4-.3.2-.2.3-.3.4-.3.1-.1.2-.1.5-.2s.5-.1.5-.1c.1-.1.4-.4.9-.7.4-.4.7-.6.9-.7.1 0 .2 0 .4-.1s.3-.2.4-.2l.9-.7c.5-.3.8-.6.9-.7l.9-.9c.4-.5.7-.8.9-.9l.9-.5c.5-.3.8-.5.9-.6.1-.1.4-.4.9-.7.4-.4.9-.7 1.5-1.2l1.5-1.2.9-.7c.1-.1.2-.2.5-.3.3-.1.5-.3.6-.4l.4-.2c.1-.1.3-.1.3-.1.1 0 .5.1 1 .3.6.2.9.3 1 .4h.8c.1 0 .2 0 .3-.1.1-.1.3-.2.4-.2.1-.1.2-.2.5-.4s.4-.3.5-.4c.1 0 .3 0 .4-.1.1-.1.3-.2.3-.2.1 0 .2 0 .5-.1s.5-.2.5-.2c.1 0 .4-.1.7-.3.4-.2.6-.3.7-.3.1-.1.2-.1.5-.2s.4-.1.5-.1c.1-.1.3-.2.6-.5.4-.3.6-.5.8-.6l.2-.2c.1-.1.1-.1.1-.2.1-.2.2-.5.4-.9s.4-.9.7-1.3l.6-1.3.4-.8c.1-.1.2-.5.4-1l.4-1.1c0-.1 0-.2.1-.5s.1-.6.2-1 .2-.7.2-1c.1-.3.1-.5.2-.6l.7-1.1.7-1.1c.1-.1.1-.2.2-.5s.1-.4.1-.5c.1-.2.3-.5.4-.9.1-.4.3-.7.3-.9.1-.2.3-.6.6-1.1l.5-.9c0-.1.1-.2.3-.4l.4-.4c0-.1 0-.2.1-.4s.1-.3.1-.4c.1-.1.3-.3.5-.7.2-.3.4-.6.5-.7l.2-.1c.1 0 .1 0 .2.1l.7.4c.4.2.6.4.7.5.1.1.2.2.3.4l.3.4c.1.1.1.3.1.6v1.2999999999999998c0 .3 0 .4-.1.4l-.2.5c-.1.3-.2.6-.4 1-.1.4-.3.7-.5 1.1-.2.4-.3.7-.4.9l-.5 1.1c-.3.6-.5 1-.5 1.1-.1.1-.2.4-.3.9l-.4 1.1c0 .1 0 .4-.1.7l-.2.7c-.1.3-.2.8-.4 1.3-.2.6-.3 1-.3 1.1-.1.1-.1.2-.2.4s-.1.3-.1.4c-.1.2-.3.6-.4 1.2-.2.5-.3.8-.3.9v1.4c0 .1.1.2.2.4s.2.3.2.4c.1.2.1.5.2.9s.1.7.1.8c0 .1 0 .2-.1.5s-.2.5-.2.6l-.3.5-.4.9c-.2.3-.3.6-.4.9-.1.3-.2.4-.3.5-.1.1-.2.5-.4 1.1-.2.6-.3 1-.4 1.1-.1.1-.2.5-.5 1-.3.6-.4.9-.5 1-.1.1-.1.3-.2.6s-.1.4-.1.5c0 .1 0 .4.1.9.1.4.2.7.2.9 0 .1.1.2.3.5l.6.9.7 1c.2.3.4.6.5.8.1.1.2.3.4.5s.3.3.4.3c.1.1.4.1.7.2.4.1.6.1.7.1.1 0 .3-.1.9-.3.5-.2.9-.3 1.2-.4.1 0 .2 0 .4-.1s.3-.2.4-.2c1.8-1.5 3.2-2.2 4.1-2.2 1 0 1.5.4 1.6 1.2.1.8-.2 1.8-.9 3s-1.7 2.2-3.1 3.1c-.1.1-.3 0-.6 0-.3-.1-.6-.1-.8 0-.2.1-.6.3-1 .4-.4.1-.7.3-.8.3h-3.4c-.2-.1-.5-.1-.9-.2s-.7-.1-.8-.2c-.1-.1-.4-.3-1-.8-.5-.4-.9-.8-1.2-1l-2.4-2.4c-.1-.1-.1-.2-.2-.5s-.1-.5-.2-.5l-.3-.2-.4-.2h-1c0 .1-.2.2-.7.5-.4.3-.8.5-1 .6-.1.1-.5.4-1 .7-.6.4-.9.6-1 .7-.2.1-.5.3-.8.4-.4.2-.7.4-1.1.5-.4.2-.7.3-1 .5-.3.2-.5.2-.5.2-.1 0-.3 0-.6.1s-.6.2-.9.2c-.4.1-.7.1-1 .2-.3.1-.5.1-.7.1h-1.7000000000000002c-.1 0-.4 0-.7-.1l-.7-.2-.7-.9c-.3-.5-.5-.8-.6-.9-.1-.1-.4-.3-.7-.6l-.7-.7c-.1-.1-.1-.2-.2-.4s-.1-.3-.2-.4c-.1-.1-.1-.4-.2-.9s-.1-.8-.2-.9h-1c-.1.1-.2.2-.5.3-.3.2-.5.3-.6.4-.1.1-.5.4-1 .9-.6.5-.9.8-1 .9-.1.1-.4.2-.8.4s-.6.3-.7.3c-.1.1-.2.2-.5.4s-.6.4-.9.5c-.3.2-.6.4-.9.5-.3.2-.4.3-.5.4-1.4-.6-2.1-1-2.3-1.7m-4-4.7v-.9c0-.1 0-.4.1-.9l.2-1.5c.1-.5.2-1 .2-1.5.1-.5.1-.8.1-.9.1-.1.1-.1 0-.3v-.3c-.1 0-.2 0-.3-.1-.1-.1-.3-.1-.3-.1-.1.1-.3.2-.6.5-.4.3-.6.5-.8.6l-.4.4-.6.6c-.3.3-.7.6-1.1.9l-1.2.9c-.4.3-.6.5-.6.5-.1 0-.2.1-.4.3-.2.2-.3.3-.4.3-.9 1.1-1.9 2.1-3.1 3.2-1.1 1-2.4 1.9-3.7 2.7-.4.2-.6.3-.6.4h-.7l-.4-.4-.2-.4c-.1-.1-.1-.3-.1-.3v-2.6c0-.2.1-.4.3-.5-.2-.2-.1-.5.3-.9s.8-1 1.3-1.5c.5-.6 1-1.2 1.4-1.9.4-.7.6-1.4.6-2 0-.1 0-.4.1-.7l.2-.7c0-.1 0-.4.1-.9.1-.4.2-.7.2-.9 0-.1.1-.4.3-.9.2-.5.3-.8.3-.9v-.3c.1-.1.1-.4.2-.7.1-.4.1-.6.1-.6l.4-.7c.2-.4.3-.6.4-.7l.4-.4c.1 0 .2 0 .5-.1s.5-.2.6-.2h.4l.3.2c.1.1.3.1.3.1.3.1.6.3.8.7.2.3.3.6.3.8.1.2.1.8.2 1.6s.1 1.3.1 1.6h.7c.1-.1.3-.2.7-.3.3-.1.6-.3.7-.4.1-.1.2-.2.5-.4s.6-.4.9-.7c.3-.2.6-.5.9-.6.3-.2.5-.3.6-.4.1-.1.2-.2.5-.4s.4-.3.5-.4l.4-.2c.1-.1.3-.1.3-.1.1 0 .5 0 1.1-.1.6-.1 1-.2 1.3-.2h.7c.1 0 .1 0 .2.1s.1.2.2.2c.1.1.3.3.4.6.2.3.3.4.3.5v6.3c-.1.1-.1.2-.2.4s-.1.3-.1.4c-.1.2-.3.5-.4 1.1-.1.5-.3.9-.3 1-.1.2-.1.5-.2.9s-.1.7-.1.9v2.8c0 .1 0 .3.1.6l.2.5h.7c.1-.1.2-.1.4-.2s.3-.1.4-.1c.1-.1.2-.1.5-.2s.4-.1.5-.1c.1-.1.3-.2.5-.4s.4-.3.5-.4l1.1-1.1c.1-.1.2-.2.5-.4s.4-.3.5-.4c.1-.1.4-.2.7-.5l.7-.5c0-.1.1-.2.4-.4.1-.1.4-.4.9-.7.5-.4.7-.6.8-.7.4-.4.8-.8 1.4-1.2.6-.5 1.1-.9 1.4-1.2l.8-.2.9-.2c.2-.1.3.1.2.5 0 .4-.1.9-.2 1.5s-.2 1.1-.4 1.6c-.1.5-.2.9-.3 1l-.1.2c-.1.2-.1.3-.2.3s-.1 0-.2.1c-.1 0-.2 0-.3.1-.2.1-.3.1-.3.1-.1.1-.4.3-.7.6l-.7.5-.4.4c-.2.2-.4.4-.6.7l-.6.7-.4.4c-.1 0-.2.1-.5.3-.3.2-.5.3-.5.4l-.7.7c-.1.1-.4.3-1 .8-.6.4-1.1.8-1.4 1-.1.1-.3.3-.6.4l-.5.2c-.2.2-.8.5-1.5.9-.8.4-1.2.5-1.3.5h-.7c-.3-.1-.9-.3-1.7-.5-.8-.2-1.3-.4-1.4-.5-.1-.1-.3-.2-.6-.5-.3-.2-.4-.4-.5-.5-.1-.2-.2-.6-.4-1.3-.2-.7-.3-1.2-.3-1.5-.1-.9-.1-1.4-.1-1.6.2-.5.2-.9.2-1.3m-29.6 1.9c-.4.2-.6.3-.7.3 0 .1-.1.2-.3.4-.1.1-.4.4-.9.7l-.9.7c-.2.2-.3.3-.4.3-.2.1-.5.4-1 .7-.5.4-.8.6-.9.6l-2.7 1.3h-2.8c-.1 0-.2 0-.3-.1-.1-.1-.3-.2-.3-.2-.1-.1-.3-.3-.6-.5s-.4-.4-.5-.5c-.6-1.5-.7-3.3-.3-5.3.4-2 .9-4 1.7-5.8.7-1.9 1.4-3.4 2.1-4.7.7-1.3 1-2 1-2 0-.1.1-.2.3-.4.2-.2.3-.4.4-.5l.4-.4c.1-.1.2-.1.4-.2s.4-.1.5-.2h.4c.3.1.5.3.7.4.2.2.4.5.6.9.1.1.1.2.2.5.1.2.1.4.1.5v.7c0 .1 0 .2-.1.5-.1.2-.2.4-.2.5-.1.2-.2.6-.4.9-.2.4-.3.6-.3.7-.1.1-.4.5-.8 1-.4.6-.6.9-.7 1 0 .1 0 .2-.1.5s-.1.4-.2.5c0 .1 0 .2-.1.4s-.2.3-.2.4c-.1.1-.2.5-.4 1.2s-.4 1.2-.5 1.4c-.1.2-.2.5-.4 1.1-.1.2-.1.7 0 1.3.1.7.1 1.1.1 1.3h.3c.1 0 .3 0 .7-.1.3-.1.6-.2.7-.2.1 0 .2 0 .3-.1.1-.1.3-.2.3-.2.3-.2.7-.5 1.3-.9.5-.4 1-.7 1.3-1 .3-.1.6-.4.8-.7.2-.4.5-.7.9-1 .5-.5.8-.8 1-1.1.2-.2.4-.4.7-.4.1-.2.2-.3.3-.4.1 0 .2-.1.4-.4l.6-.9.6-.9c.2-.3.3-.4.4-.4.4-.4.7-.7.9-1 .3-.2.5-.6.7-1.1.1-.1.1-.2.2-.4s.1-.3.1-.4c.1-.2.3-.6.5-.9l.7-1.2c.2-.4.4-.7.6-1 .2-.3.3-.5.3-.5.1-.1.2-.3.4-.6s.4-.5.5-.6c.1 0 .4-.1.7-.4.4-.2.7-.4 1.1-.4h.4l.4.4c0 .1.1.3.2.5s.3.4.3.5c.1.1.2.2.4.5 0 .1 0 .4-.1.9s-.2.9-.2 1.1c0 .3-.1.6-.2.8-.1.2-.3.6-.6 1.1-.3.6-.7 1.3-1.3 2.1-.5.8-.9 1.3-1 1.4 0 .1-.1.3-.3.7-.2.4-.3.8-.4 1-.1.3-.3.7-.4 1.2-.1.5-.2.8-.2.8-.1.1-.1.4-.1 1v2.3c0 .6 0 1 .1 1.1 0 .1.1.4.4.7.2.4.4.5.5.5.1.1.3.1.5.2s.4.1.5.1c.2.1.4.1.5.1h.6c.1 0 .2 0 .4-.1s.4-.2.5-.2c.1-.1.5-.2 1.1-.4l1.1-.4c.1-.1.2-.1.4-.2s.4-.1.5-.2c.1-.1.3-.2.6-.5.4-.3.6-.5.7-.5h.5c.3 0 .4-.1.5-.1 1.3-1.3 2.3-1.9 2.9-1.9.5 0 .9.2 1 .5.1.3.1.7 0 1.1-.1.4-.2.8-.4 1.1-.2.3-.4.5-.6.4-.1 0-.3.1-.6.4-.3.2-.5.4-.6.5l-2 2c-.1.1-.4.3-.7.5-.4.2-.6.4-.7.5-.2.1-.5.3-1 .5l-.9.4c-.1.1-.4.2-.9.3-.5.1-.8.2-.9.3-2.3.7-4.3.4-6-.7-1.7-1.1-2.9-2.7-3.8-4.7l-.3-.3zm-73.2-.6c0 .1 0 .2.1.3.1.2.2.3.2.3h1c.1 0 .4 0 1-.1.2 0 .6 0 1.2-.1.5-.1.9-.1 1-.1.2-.1.5-.2 1-.4s1-.5 1.5-.8c.5-.3 1-.5 1.4-.8.4-.2.8-.4.9-.5.1-.1.4-.3.8-.7l1-1c.1-.1.3-.4.5-.7l.4-.7c.1-.1.1-.3.2-.5s.1-.4.1-.5c.1-.5.1-.9.1-1v-1.1c0-.1 0-.4-.1-.7l-.2-.7c0-.1-.1-.1-.3-.3-.1 0-.3 0-.5.1s-.4.1-.5.2c-.1.1-.2.2-.5.4s-.5.3-.5.3c-.1.1-.3.2-.7.4-.3.2-.7.4-1.1.5s-.8.4-1.1.5c-.4.2-.6.3-.6.4-.2.1-.6.3-1.1.7-.5.3-.8.6-.9.7l-3.5 3.5-.2.3-.2.4c-.1.1-.1.3-.2.6s-.1.4-.1.5v.6000000000000001zm-15.4 3.4c-.2-.7.4-1.7 1.8-3.1.1-.1.2-.1.4-.2s.3-.1.4-.2c.1 0 .2 0 .5-.1l.5-.2c.1 0 .2-.1.4-.3.2-.2.3-.3.4-.3.1-.1.2-.1.5-.2s.5-.1.5-.1c.1-.1.4-.4.9-.7.4-.4.7-.6.9-.7.1 0 .2 0 .4-.1s.3-.2.4-.2l.9-.7c.5-.3.8-.6.9-.7l.9-.9c.4-.5.7-.8.9-.9l.9-.5c.5-.3.8-.5.9-.6.1-.1.4-.4.9-.7.4-.4.9-.7 1.5-1.2l1.5-1.2.9-.7c.1-.1.2-.2.5-.3.3-.1.5-.3.6-.4l.4-.2c.1-.1.3-.1.3-.1.1 0 .5.1 1 .3.6.2.9.3 1 .4h.8c.1 0 .2 0 .3-.1.1-.1.3-.2.4-.2.1-.1.2-.2.5-.4s.4-.3.5-.4c.1 0 .3 0 .4-.1.1-.1.3-.2.3-.2.1 0 .2 0 .5-.1s.5-.2.5-.2c.1 0 .4-.1.7-.3.4-.2.6-.3.7-.3.1-.1.2-.1.5-.2s.4-.1.5-.1c.1-.1.3-.2.6-.5.4-.3.6-.5.8-.6l.2-.2c.1-.1.1-.1.1-.2.1-.2.2-.5.4-.9s.4-.9.7-1.3l.6-1.3.4-.8c.1-.1.2-.5.4-1l.4-1.1c0-.1 0-.2.1-.5s.1-.6.2-1 .2-.7.2-1c.1-.3.1-.5.2-.6l.7-1.1.7-1.1c.1-.1.1-.2.2-.5s.1-.4.1-.5c.1-.2.3-.5.4-.9.1-.4.3-.7.3-.9.1-.2.3-.6.6-1.1l.5-.9c0-.1.1-.2.3-.4l.4-.4c0-.1 0-.2.1-.4s.1-.3.1-.4c.1-.1.3-.3.5-.7.2-.3.4-.6.5-.7l.2-.1c.1 0 .1 0 .2.1l.7.4c.4.2.6.4.7.5.1.1.2.2.3.4l.3.4c.1.1.1.3.1.6v1.2999999999999998c0 .3 0 .4-.1.4l-.2.5c-.1.3-.2.6-.4 1l-.4 1.1c-.2.4-.3.7-.4.9l-.5 1.1c-.3.6-.5 1-.5 1.1-.1.1-.2.4-.3.9l-.4 1.1c0 .1 0 .4-.1.7l-.2.7c-.1.3-.2.8-.4 1.3-.2.6-.3 1-.3 1.1-.1.1-.1.2-.2.4s-.1.3-.1.4c-.1.2-.3.6-.4 1.2-.2.5-.3.8-.3.9v1.4c0 .1.1.2.2.4s.2.3.2.4c.1.2.1.5.2.9s.1.7.1.8c0 .1 0 .2-.1.5s-.2.5-.2.6c-.1.1-.2.2-.3.5l-.4.9c-.2.3-.3.6-.4.9-.1.3-.2.4-.3.5-.1.1-.2.5-.4 1.1-.2.6-.3 1-.4 1.1-.1.1-.2.5-.5 1-.3.6-.4.9-.5 1-.1.1-.1.3-.2.6s-.1.4-.1.5c0 .1 0 .4.1.9.1.4.2.7.2.9 0 .1.1.2.3.5l.6.9.7 1c.2.3.4.6.5.8.1.1.2.3.4.5s.3.3.4.3c.1.1.4.1.7.2.4.1.6.1.7.1.1 0 .3-.1.9-.3.5-.2.9-.3 1.2-.4.1 0 .2 0 .4-.1s.3-.2.4-.2c1.8-1.5 3.2-2.2 4.1-2.2 1 0 1.5.4 1.6 1.2.1.8-.2 1.8-.9 3s-1.7 2.2-3.1 3.1c-.1.1-.3 0-.6 0-.3-.1-.6-.1-.8 0-.2.1-.6.3-1 .4-.4.1-.7.3-.8.3h-3.0999999999999996c-.2-.1-.5-.1-.9-.2s-.7-.1-.8-.2c-.1-.1-.4-.3-1-.8-.5-.4-.9-.8-1.2-1l-2.4-2.4c-.1-.1-.1-.2-.2-.5s-.1-.5-.2-.5l-.3-.2-.4-.2h-1c0 .1-.2.2-.7.5-.4.3-.8.5-1 .6-.1.1-.5.4-1 .7-.6.4-.9.6-1 .7-.2.1-.4.3-.8.4-.4.2-.7.4-1.1.5-.4.2-.7.3-1 .5-.3.2-.5.2-.5.2-.1 0-.3 0-.6.1s-.6.2-.9.2c-.4.1-.7.1-1 .2-.3.1-.5.1-.7.1h-1.7000000000000002c-.1 0-.4 0-.7-.1l-.7-.2-.7-.9c-.3-.5-.5-.8-.6-.9-.1-.1-.4-.3-.7-.6l-.7-.7c-.1-.1-.1-.2-.2-.4s-.1-.3-.2-.4c-.1-.1-.1-.4-.2-.9s-.1-.8-.2-.9h-.9c-.1.1-.2.2-.5.3-.3.2-.5.3-.6.4-.1.1-.5.4-1 .9-.6.5-.9.8-1 .9-.1.1-.4.2-.8.4s-.6.3-.7.3c-.1.1-.2.2-.5.4s-.6.4-.9.5c-.3.2-.6.4-.9.5-.3.2-.4.3-.5.4-1.9-.6-2.6-1-2.8-1.7m-3.9-4.7v-.9c0-.1 0-.4.1-.9l.2-1.5c.1-.5.2-1 .2-1.5.1-.5.1-.8.1-.9.1-.1.1-.1 0-.3v-.3c-.1 0-.2 0-.3-.1-.1-.1-.3-.1-.3-.1-.1.1-.3.2-.6.5-.4.3-.6.5-.8.6l-.4.4-.6.6c-.3.3-.7.6-1.1.9l-1.2.9c-.4.3-.6.5-.6.5-.1 0-.2.1-.4.3-.2.2-.3.3-.4.3-.9 1.1-1.9 2.1-3.1 3.2-1.1 1-2.4 1.9-3.7 2.7-.4.2-.6.3-.6.4h-.7l-.4-.4-.2-.4c-.1-.1-.1-.3-.1-.3v-2.6c0-.2.1-.4.3-.5-.2-.2-.1-.5.3-.9s.8-1 1.3-1.5c.5-.6 1-1.2 1.4-1.9.4-.7.6-1.4.6-2 0-.1 0-.4.1-.7l.2-.7c0-.1 0-.4.1-.9.1-.4.2-.7.2-.9 0-.1.1-.4.3-.9.2-.5.3-.8.3-.9v-.3c.1-.1.1-.4.2-.7.1-.4.1-.6.1-.6l.4-.7c.2-.4.3-.6.4-.7l.4-.4c.1 0 .2 0 .5-.1s.5-.2.6-.2h.4l.3.2c.1.1.3.1.3.1.3.1.6.3.8.7.2.3.3.6.3.8.1.2.1.8.2 1.6s.1 1.3.1 1.6h.7c.1-.1.3-.2.7-.3.3-.1.6-.3.7-.4.1-.1.2-.2.5-.4s.6-.4.9-.7c.3-.2.6-.5.9-.6.3-.2.5-.3.6-.4.1-.1.2-.2.5-.4s.4-.3.5-.4l.4-.2c.1-.1.3-.1.3-.1.1 0 .5 0 1.1-.1.6-.1 1-.2 1.3-.2h.7c.1 0 .1 0 .2.1s.1.2.2.2c.1.1.3.3.4.6.2.3.3.4.3.5v6.3c-.1.1-.1.2-.2.4s-.1.3-.1.4c-.1.2-.3.5-.4 1.1-.2.5-.3.9-.3 1-.1.2-.1.5-.2.9s-.1.7-.1.9v2.8c0 .1 0 .3.1.6l.2.5h.7c.1-.1.2-.1.4-.2s.3-.1.4-.1c.1-.1.2-.1.5-.2s.4-.1.5-.1c.1-.1.3-.2.5-.4s.4-.3.5-.4l1.1-1.1c.1-.1.2-.2.5-.4s.4-.3.5-.4c.1-.1.4-.2.7-.5l.7-.5c0-.1.1-.2.4-.4.1-.1.4-.4.9-.7.5-.4.7-.6.8-.7.4-.4.8-.8 1.4-1.2.6-.5 1.1-.9 1.4-1.2l.8-.2.9-.2c.2-.1.3.1.2.5 0 .4-.1.9-.2 1.5s-.2 1.1-.4 1.6c-.1.5-.2.9-.3 1l-.1.2c-.1.2-.1.3-.2.3s-.1 0-.2.1c-.1 0-.2 0-.3.1-.2.1-.3.1-.3.1-.1.1-.4.3-.7.6l-.7.5-.4.4c-.2.2-.4.4-.6.7l-.6.7-.4.4c-.1 0-.2.1-.5.3-.3.2-.5.3-.5.4l-.7.7c-.1.1-.4.3-1 .8-.6.4-1.1.8-1.4 1-.1.1-.3.3-.6.4l-.5.2c-.2.2-.8.5-1.5.9-.8.4-1.2.5-1.3.5h-.7c-.3-.1-.9-.3-1.7-.5-.8-.2-1.3-.4-1.4-.5-.1-.1-.3-.2-.6-.5-.3-.2-.4-.4-.5-.5-.1-.2-.2-.6-.4-1.3-.2-.7-.3-1.2-.3-1.5-.1-.9-.1-1.4-.1-1.6.1-.5.1-.9.2-1.3m-31.9.7v.5c.4.4.6.6.7.6.1.1.2.1.4.2s.3.1.4.1c.9.1 1.5.1 1.7.1h1.8c.1-.1.4-.3.7-.6.4-.4.6-.6.6-.7 0-.1.1-.3.2-.8s.3-1 .4-1.6c.1-.6.3-1.2.4-1.7l.2-.9c0-.1.1-.2.2-.4s.2-.3.2-.4c0-.1 0-.2.1-.5l.2-.5c0-.1 0-.3.1-.4.1-.1.2-.3.2-.3.1-.2.2-.4.4-.7l.6-.9.6-.9c.2-.3.3-.5.4-.7v-1.5000000000000002c-.1-.1-.2-.3-.4-.6s-.4-.4-.5-.4c-.1-.1-.2-.1-.4-.1h-.9c-.2 0-.4 0-.4.1-.1 0-.2 0-.5.1s-.5.1-.6.2c-.1.1-.3.3-.7.4-.3.2-.6.3-.7.3l-.4.4-.7 2.2c-.1.1-.1.2-.2.4s-.1.3-.2.3c-.1.2-.4.6-.9 1.1-.4.6-.8 1.1-1.1 1.5-.2.3-.4.5-.4.5-.1.1-.2.4-.5 1.2-.3.7-.6 1.3-.8 1.8-.2.5-.3.8-.4.9v1.1c.1.1.1.3.2.6m-5.1-4.4c0-.6.2-1.4.6-2.4.4-1 .7-1.8.9-2.3.1-.1.2-.2.4-.5s.3-.4.4-.5l3.1-3.1c.1-.1.4-.1.7-.2.4-.1.6-.1.7-.2 1.1-.5 2.1-1 3.1-1.3 1-.4 1.9-1 2.8-1.8.1-.1.2-.1.5-.1h1.6c.4 0 .6 0 .6.1.1 0 .4.1 1 .4.5.3.9.5 1.2.6l.5.5c.2.2.4.4.4.5.1.1.3.4.5 1 .2.5.4.9.5 1.1.1.1.1.4.2.7.1.4.1.6.1.7v3.5c0 .1 0 .3-.1.8-.1.4-.2.8-.2 1 0 .1-.1.5-.3 1.3-.2.8-.4 1.6-.6 2.6s-.4 1.8-.6 2.6c-.2.8-.3 1.2-.3 1.3.1.1.1.2.1.3v.4c.1 0 .1 0 .2.1s.2.1.2.1c.1.1.4.1 1.1.1h1.2c.1 0 .3 0 .7-.1.3-.1.5-.1.5-.2 1.3-1 2.4-1.9 3.1-2.9.7-1 1.3-1.5 1.6-1.5.3 0 .5.2.5.7v2.7c0 .3.1.5.1.6-.1.1-.3.3-.7.6l-1 .8c-.3.3-.6.5-.9.7-.3.2-.5.3-.6.4 0 .1-.1.1-.4.2-.3.1-.5.2-.6.2-.3.1-.8.3-1.3.6-.6.3-.9.4-1 .4h-.5c-.3 0-.5.1-.7.1-.1 0-.5 0-1.2.1-.1 0-.3-.1-.8-.2-.4-.1-.9-.3-1.5-.5-.5-.2-1-.4-1.5-.5-.4-.1-.7-.2-.8-.2h-.7l-.5.2c-.3.1-.5.2-.5.2-.1.1-.4.1-.9.2-.4.1-.7.1-.9.2l-1.4.7h-1.7000000000000002c-.2-.1-.6-.2-1.1-.3-.6-.1-.9-.3-1-.4-.1-.1-.5-.3-1-.7-.6-.4-.9-.6-1-.8-.2-.1-.6-.3-1-.6s-.7-.4-.8-.4h-.4l-.6-7.6zm-47.1-4.3h2.1c.1 0 .2 0 .5-.1s.5-.2.6-.2l.7-.4c.4-.2.6-.3.6-.4.1 0 .2-.1.4-.3l.4-.4c0-.1 0-.2.1-.3.1-.1.2-.3.2-.4.1-.2.3-.6.4-1 .1-.4.3-.7.3-.8v-2.5l-.2-.2c-.1.1-.2.1-.2 0h-.4c-.1 0-.2.1-.4.4-.1.1-.4.3-.7.5-.4.2-.6.4-.7.5-.1.1-.2.2-.5.4s-.4.3-.5.3c-.2.1-.4.3-.8.6s-.6.4-.6.4c-.1.1-.2.2-.4.5s-.3.5-.4.6c-.1.2-.3.6-.5 1.2s-.4 1-.4 1.2c0 .3.1.4.4.4m-8.1 6.7v-.5l.1-.9c.1-.3.1-.6.1-.9v-3.6c.1-.1.3-.4.7-.7.3-.4.6-.6.7-.7.1-.1.2-.2.4-.5.2-.2.3-.4.4-.5.1-.1.3-.4.4-.7.1-.4.3-.6.3-.7.1-.1.1-.2.2-.5s.1-.5.2-.5l.4-.7c.2-.4.3-.6.4-.6 0-.1.1-.2.3-.4l.4-.4c.1-.1.3-.2.6-.4s.4-.3.5-.4c.2 0 .4-.1.4-.4.1-.1.2-.2.5-.4.2-.2.5-.4.8-.6l.8-.6c.2-.2.4-.3.4-.4.1 0 .2-.1.4-.4.2-.1.5-.3.8-.6.4-.3.6-.4.6-.5.1-.1.5-.3 1-.5.6-.2.9-.4 1-.4.1-.1.4-.1.7-.2.4-.1.6-.1.7-.1.7-.1 1-.1 1.2-.1h1.2c.1.1.2.2.4.3l.4.4c.1.1.3.5.5 1.1.2.6.4 1.1.4 1.3.1.1.1.4.2.9s.1.7.1.9v1.6c0 .1 0 .5-.1 1.3 0 .2-.1.6-.3 1.3l-.4 1.5c-.1.3-.3.8-.5 1.3l-.4 1.1-.9.9c-.5.5-.9.9-1.2 1.1 0 .1-.1.2-.4.3-.3.2-.5.3-.6.4-.2.1-.6.3-1 .6s-.7.4-.8.5c-.1 0-.3 0-.8.1s-.8.1-.9.1c-.1 0-.3 0-.6.1s-.6.1-1 .1-.7.1-1 .1h-.5c-.2.1-.6.1-1 .2-.5.1-.7.1-.8.1l-.4.7c-.1.1-.1.3-.2.6s-.1.4-.1.5c-.1 0-.1.1-.1.3v.8c0 .1 0 .2.1.2 0 .1.1.3.3.6.2.3.3.4.4.5.1.1.2.4.2 1.1 0 .7.2 1.1.5 1.2l.7.2c.4.1.7.2.7.3.1 0 .2 0 .4.1s.4.1.5.1c.1.1.1.1.2.1l.2-.1c.1 0 .2 0 .4-.1s.4-.1.5-.1c.1-.1.3-.1.8-.2.4-.1.7-.1.9-.2.1-.1.3-.1.5-.1s.4-.1.5-.1c.1-.1.2-.1.4-.2s.3-.1.4-.1l.5-.3c.3-.1.5-.2.5-.2.1-.1.5-.3 1-.5.6-.2.9-.4 1-.5.2 0 .5-.1.7-.3.2-.2.4-.3.5-.4.2-.2.7-.5 1.4-1.1.7-.5 1.4-1 2.2-1.3.7-.4 1.4-.4 2-.3.6.2.9.9.9 2.2-.3.2-.8.7-1.4 1.4-.7.7-1.1 1.2-1.3 1.4 0 .1-.1.2-.3.3-.2.2-.3.3-.4.3.4-.2.7-.4 1-.6.2-.2.5-.3.7-.4.2-.1.3-.2.2-.2-.1.1-.4.3-.9.6-.6.4-1.2.8-1.9 1.2-.7.5-1.4.9-2 1.3-.6.4-1 .6-1.1.8-.1.1-.4.3-.8.4l-.8.3c-.1.1-.4.1-.8.3-.4.1-.7.2-.8.3-.2.1-.6.3-1 .4-.5.1-.7.2-.9.2-1 0-2 0-3-.1s-2-.3-2.9-.5c-.9-.2-1.7-.6-2.3-1.1-.6-.5-1-1.1-1.2-2-.1-.1-.2-.4-.5-.7l-.5-.7-.2-.3c-.1-.1-.1-.3-.1-.3-.1-.1-.1-.3-.2-.6s-.1-.4-.1-.5v-3.4zm-17.9 1.2c-.4.5-.6 1.1-.6 1.7 0 .7 0 1.3.2 1.9.1.6.4 1.2.6 1.8.3.5.5 1 .8 1.3l.4.4c.1.1.5.2 1.3.3.8.1 1.4.2 1.9.4.5.1.8.2 1.1.4.2.1.5.2.8.2h2.5c.1 0 .3-.1.7-.3.4-.2.7-.3 1-.4l.4-.2c.2-.1.3-.1.3-.2.2-.1.5-.4 1.1-.9.5-.4.9-.7 1.1-.9-.2.2-.1.2.1 0l.5-.7c.3-.3.5-.6.6-.7.1-.1.3-.4.7-.8l.8-.8.6-.6.6-.6.9-.9c.3-.7.4-1 .2-1.2-.2-.1-.2-.3-.2-.6 0-.5-.2-.8-.5-.8s-.7.2-1.1.4c-.4.3-.8.6-1.3 1-.4.4-.8.7-1.1 1-.3.3-.6.6-.8.7-.4.3-.7.5-.9.6-.3.1-.5.3-.8.5-.1.1-.2.2-.5.3-.3.1-.5.3-.6.4-.2.1-.4.3-.8.4-.3.2-.5.2-.6.2-.1.1-.2.1-.5.1h-1.1c-.2 0-.4 0-.4-.1-1.2.4-2.1.4-2.6.1-.5-.3-.9-.7-1-1.3-.1-.6-.1-1.3.1-2.1s.5-1.5.9-2.2c.1-.2.4-.6.7-1.3.4-.7.6-1.2.7-1.4.1-.2.2-.5.2-.9s.1-.7.2-1c.1-.1.1-.3.2-.7.1-.3.1-.6.1-.7v-2.8l-.2-.7-.2-.7v-.4c.1-.1.2-.5.4-1.1.2-.6.3-1 .3-1.1v-2.7l-.7-.7c-.1-.1-.4-.3-.7-.4l-.7-.2c0-.2-.2-.3-.7-.3h-2.1c-.4 0-.6 0-.6.1-.1 0-.4.1-.9.4-.5.3-.8.5-.9.6-.1.1-.3.4-.4.7-.2.4-.3.6-.3.7v2.8c.1.1.2.4.5.7.3.4.5.6.5.7.1.1.1.2.2.4s.1.3.1.4c-.2.5-.3.9-.4 1-.1.1-.1.2-.2.4s-.1.3-.2.4c-.1.1-.2.3-.4.5s-.3.4-.4.5l-.4.4c-.2.2-.5.6-.9 1l-.8.9c-.1.1-.2.2-.4.5s-.3.5-.4.5c-.1.1-.4.4-.7.9-.4.5-.6.8-.8.9-.1.1-.3.3-.6.7-.3.3-.5.6-.5.7l-3.1 3.2c-.1 0-.2.1-.5.4-.3.2-.5.4-.8.5-.1.1-.5.4-1.1.7-.6.4-1 .6-1.2.6 0 .1-.1.3-.4.4-.3.2-.5.2-.6.2-.1.1-.3.2-.6.5-.3.2-.5.4-.6.5l-.2.2c-.1.1-.1.2-.2.2.2.1.7.3 1.4.6s1.2.5 1.4.6c.1.1.4.2.7.3.4.1.6.1.7.1h.30000000000000004l.1-.1c.1-.1.3-.2.7-.3.3-.2.7-.3 1.1-.5.4-.2.8-.3 1.1-.5l.7-.4.5-.7c.3-.3.4-.5.4-.6l.5-.5.4-.4c1.6-1.6 2.8-2.7 3.6-3.5.9-.8 1.5-1.4 1.8-1.9v2.9000000000000004zm-26.4.8v.5c.4.4.6.6.7.6.1.1.2.1.4.2s.3.1.4.1c.9.1 1.5.1 1.7.1h1.8c.1-.1.4-.3.7-.6.4-.4.6-.6.6-.7 0-.1.1-.3.2-.8s.3-1 .4-1.6c.1-.6.3-1.2.5-1.7l.2-.9c0-.1.1-.2.2-.4s.2-.3.2-.4c0-.1 0-.2.1-.5l.2-.5c0-.1 0-.3.1-.4.1-.1.2-.3.2-.3.1-.2.2-.4.4-.7l.6-.9.6-.9c.2-.3.3-.5.4-.7v-1.5000000000000002c-.1-.1-.2-.3-.4-.6s-.4-.4-.5-.4c-.1-.1-.2-.1-.4-.1h-1c-.2 0-.4 0-.5.1-.1 0-.2 0-.5.1s-.5.1-.6.2c-.1.1-.3.3-.7.4-.3.2-.6.3-.7.3v.5l-.7 2.2c-.1.1-.1.2-.2.4s-.1.3-.2.3c-.1.2-.4.6-.9 1.1-.5.6-.8 1.1-1.1 1.5-.2.3-.4.5-.5.5-.1.1-.2.4-.5 1.2-.3.7-.6 1.3-.8 1.8-.2.5-.3.8-.4.9v1.6m-5.1-4.4c0-.6.2-1.4.6-2.4.4-1 .7-1.8.9-2.3.1-.1.2-.2.4-.5s.3-.4.4-.5l3.1-3.1c.1-.1.4-.1.7-.2.4-.1.6-.1.7-.2 1.1-.5 2.1-1 3.1-1.3 1-.4 1.9-1 2.8-1.8.1-.1.2-.1.5-.1h1.6c.4 0 .6 0 .6.1.1 0 .4.1 1 .4.5.3.9.5 1.2.6l.5.5c.2.2.4.4.4.5.1.1.3.4.5 1 .2.5.4.9.5 1.1.1.1.1.4.2.7.1.4.1.6.1.7v3.5c0 .1 0 .3-.1.8-.1.4-.2.8-.2 1 0 .1-.1.5-.3 1.3-.2.8-.4 1.6-.6 2.6-.2.9-.4 1.8-.6 2.6-.2.8-.3 1.2-.3 1.3.1.1.1.2.1.3v.4c.1 0 .1 0 .2.1s.2.1.2.1c.1.1.4.1 1.1.1h1.2c.1 0 .3 0 .7-.1.3-.1.5-.1.5-.2 1.3-1 2.4-1.9 3.1-2.9.7-1 1.3-1.5 1.6-1.5.3 0 .5.2.5.7v2.7c0 .3.1.5.1.6-.1.1-.3.3-.7.6l-1 .8c-.3.3-.6.5-.9.7-.3.2-.5.3-.6.4 0 .1-.1.1-.4.2-.3.1-.5.2-.6.2-.3.1-.8.3-1.3.6-.6.3-.9.4-1 .4h-.5c-.3 0-.5.1-.7.1-.1 0-.5 0-1.2.1-.1 0-.3-.1-.8-.2-.4-.1-.9-.3-1.5-.5-.5-.2-1-.4-1.5-.5-.5-.1-.7-.2-.8-.2h-.6l-.5.2c-.3.1-.5.2-.5.2-.1.1-.4.1-.9.2s-.7.1-.9.2l-1.4.7h-1.7000000000000002c-.2-.1-.6-.2-1.1-.3-.6-.1-.9-.3-1-.4-.1-.1-.5-.3-1-.7-.6-.4-.9-.6-1-.8-.2-.1-.6-.3-1-.6s-.7-.4-.8-.4h-.4l-.7-7.6zm-23.2 9.2c.1.1.3.4.6.7l.7.7c.1 0 .3.1.8.4l1 .5c.1.1.3.2.6.4h2.7c1 0 2-.1 3-.3 1-.2 2.1-.5 3.2-.9s2-1 2.9-1.9c.1-.1.2-.2.5-.3.3-.1.5-.3.6-.4.5-.4 1.1-.7 1.9-1 .8-.3 1.2-.5 1.3-.5.5-.5.9-1 1.4-1.4.5-.5.7-.8.7-1.1.7-1.2.9-2.1.9-2.7-.1-.6-.4-1-.9-1.2h-.4c-.1.1-.2.4-.5.7l-.5.7-.2.2c-.1.1-.1.1-.1.2-.3.2-.7.4-1.1.8-.4.4-.7.6-.7.6-.1.2-.6.6-1.5 1s-1.9.9-3 1.3-2.2.8-3.2 1.2c-1 .3-1.8.5-2.2.5-.1 0-.3 0-.5.1s-.4.1-.5.1c-.2.1-.4.1-.5.1-.1 0-.3 0-.5-.1-.2 0-.6 0-1-.1s-.7-.1-.8-.1c-.4-.4-.7-.7-.9-1.1-.3-.4-.4-.9-.4-1.4-.1-.6-.1-1-.1-1.1 0-.1 0-.7.1-1.6-.2-1.3-.2-2.4 0-3.6.3-1.1.7-2.1 1.3-3 .6-.9 1.3-1.6 2.2-2.2.8-.6 1.7-1 2.6-1.3.4-.1.6-.2.7-.4h.8l.7.7c0 .1 0 .2.1.5s.1.5.1.5l.7.7h1c.3-.1.8-.1 1.4-.2.6-.1 1-.1 1-.1.1 0 .2-.1.3-.3.1-.2.3-.3.4-.4.1-.1.2-.3.4-.5s.3-.4.4-.5c.1-.3.1-.3-.1-.1-.2.2-.3.2-.3 0 .1-.1.1-.3.2-.6.1-.4.1-.6.2-.7.1-.2.1-.6.2-1.1.1-.6.1-.9.1-1v-.7c-.1-.5-.4-1-.8-1.4-.4-.5-.8-1-1.3-1.4-.1-.1-.5-.2-1-.3-.5-.1-.9-.3-1.2-.3 0-.2-.1-.3-.2-.3h-.7c-.1 0-.2.1-.2.3l-.5.2-.9.4c-.3.2-.7.3-1 .4-.3.2-.6.3-.8.3-.3.1-.7.3-1.3.6l-.9.5-1.1 1.1c-.1.1-.2.2-.5.4s-.6.5-.9.8l-.9.8c-.3.2-.4.4-.5.5l-2.4 2.4c-.3.4-.6.9-.9 1.6-.3.7-.5 1.4-.7 2.2-.2.8-.4 1.5-.5 2.3.1.7 0 1.3 0 1.8l.4 5.3c.1 1.2.4 2.2 1 3.1"/><path clip-path="url(#b)" stroke="#fff" stroke-width="6" fill="none" d="M95.1 3h384.7M95.1 173h384.7"/></svg>