<svg xmlns="http://www.w3.org/2000/svg" viewBox="0 0 572.7 175"><title>home-hero-text</title><g><path d="M485 49v8h-8.1v-8h-4.3v20.9h4.3v-9.3h8.1v9.3h4.3v-20.9zm-33.6 0v3.7h6.3v17.2h4.4v-17.2h6.2v-3.7zm-8.4 0v20.9h4.3v-20.9zm-8.4 0l-2.8 12.1-.6 3.2-.6-3.3-2.6-12h-4.6l-2.4 12-.6 3.3-.6-3.3-2.8-12h-4.5l5.9 20.9h4l2.5-12.2.7-4 .7 4 2.5 12.2h4.2l6-20.9zm-36.8 10.5a10.23 10.23 0 0 0-3.6-1.5l-3.7-.9a10 10 0 0 1-2.8-.9 1.76 1.76 0 0 1-1-1.7 2.17 2.17 0 0 1 1-1.9 4.65 4.65 0 0 1 2.8-.7 6.69 6.69 0 0 1 2.6.5 3.07 3.07 0 0 1 1.7 2.7h4.2a6.35 6.35 0 0 0-2.5-5.1 9.17 9.17 0 0 0-5.7-1.7c-2.7 0-4.7.6-6.1 1.9a5.94 5.94 0 0 0-2.1 4.7 5.05 5.05 0 0 0 2.1 4.5 13.81 13.81 0 0 0 4.6 1.6l2.3.5a9.55 9.55 0 0 1 2.9 1 1.8 1.8 0 0 1 .9 1.6 2.34 2.34 0 0 1-1.9 2.4 9.28 9.28 0 0 1-2.6.3c-1.8 0-3-.4-3.7-1.3a4 4 0 0 1-.8-2.1h-4v.1a6 6 0 0 0 2.4 5.1 10.47 10.47 0 0 0 6.5 1.9c2.7 0 4.8-.6 6.2-1.9a5.92 5.92 0 0 0 2.2-4.8 5 5 0 0 0-1.9-4.3zm-24.3-10.5v14.6l-8.3-14.6h-4.6v20.9h4.1v-14.8l8.5 14.8h4.4v-20.9zm-21.1 1.8a9.25 9.25 0 0 0-6.8-2.4c-2.9 0-5.3.8-6.8 2.4-2.1 1.9-3.2 4.8-3.2 8.6s1.1 6.6 3.2 8.6a9.25 9.25 0 0 0 6.8 2.4c2.9 0 5.3-.8 6.8-2.4 2.2-1.9 3.2-4.8 3.2-8.6s-1.1-6.7-3.2-8.6zm-2.7 14.1a4.77 4.77 0 0 1-4.1 1.9 4.89 4.89 0 0 1-4.1-1.9 8.67 8.67 0 0 1-1.5-5.4 8.47 8.47 0 0 1 1.5-5.4 5.37 5.37 0 0 1 8.2 0 8.67 8.67 0 0 1 1.5 5.4 8.28 8.28 0 0 1-1.5 5.4zm-23.4-15.9v20.9h4.3v-20.9zm-20.9 0v3.7h6.3v17.2h4.4v-17.2h6.2v-3.7zm-8.6 0v12.8a7.6 7.6 0 0 1-.5 3.1c-.5 1.2-1.7 1.8-3.4 1.8s-2.9-.6-3.4-1.8a8 8 0 0 1-.5-3.1v-12.8h-4.4v12.9h-.1a10.94 10.94 0 0 0 1 5.2c1.3 2.3 3.7 3.4 7.4 3.4s6.1-1.1 7.3-3.4a10.68 10.68 0 0 0 1-5.2v-12.9zm-27.4 17.1v-17.1h-4.4v20.9h14.8v-3.8zm-12.6-15.3a9.25 9.25 0 0 0-6.8-2.4c-3 0-5.3.8-6.8 2.4-2.1 1.9-3.2 4.8-3.2 8.6s1.1 6.6 3.2 8.6a9.25 9.25 0 0 0 6.8 2.4c3 0 5.3-.8 6.8-2.4 2.1-1.9 3.2-4.8 3.2-8.6s-1.1-6.7-3.2-8.6zm-2.7 14.1a5.37 5.37 0 0 1-8.2 0 8.67 8.67 0 0 1-1.5-5.4 8.47 8.47 0 0 1 1.5-5.4 5.37 5.37 0 0 1 8.2 0 8.67 8.67 0 0 1 1.5 5.4 8.28 8.28 0 0 1-1.5 5.4zm-20.1-5.4a10.23 10.23 0 0 0-3.6-1.5l-3.7-.9a10 10 0 0 1-2.8-.9 1.76 1.76 0 0 1-1-1.7 2.17 2.17 0 0 1 1-1.9 4.65 4.65 0 0 1 2.8-.7 6.69 6.69 0 0 1 2.6.5 3.07 3.07 0 0 1 1.7 2.7h4.2a6.35 6.35 0 0 0-2.5-5.1 9.17 9.17 0 0 0-5.7-1.7c-2.7 0-4.7.6-6.1 1.9a5.94 5.94 0 0 0-2.1 4.7 5.05 5.05 0 0 0 2.1 4.5 13.81 13.81 0 0 0 4.6 1.6l2.3.5a9.55 9.55 0 0 1 2.9 1 1.8 1.8 0 0 1 .9 1.6 2.34 2.34 0 0 1-1.9 2.4 9.28 9.28 0 0 1-2.6.3c-1.8 0-3-.4-3.7-1.3a4 4 0 0 1-.8-2.1h-4v.1a6 6 0 0 0 2.4 5.1 10.47 10.47 0 0 0 6.5 1.9c2.7 0 4.8-.6 6.2-1.9a5.92 5.92 0 0 0 2.2-4.8 5 5 0 0 0-1.9-4.3zm-39.4-7.3a6 6 0 0 1 2.4.5 4.08 4.08 0 0 1 2.4 3h4.5v-.1a7.29 7.29 0 0 0-2.8-5 9.8 9.8 0 0 0-6.4-2 9.38 9.38 0 0 0-7.4 3.1c-1.9 2-2.8 4.7-2.8 8.1s.9 6 2.8 7.9a8.91 8.91 0 0 0 6.8 2.9 7.7 7.7 0 0 0 4.2-1.1 10.36 10.36 0 0 0 2.3-2.1l.4 2.6h2.9v-11.3h-8.7v3.5h4.8a5.16 5.16 0 0 1-5.3 4.6 5.67 5.67 0 0 1-4-1.6q-1.8-1.65-1.8-5.4c0-2.5.5-4.4 1.6-5.7a5.16 5.16 0 0 1 4.1-1.9zm-18.9-3.2v14.6l-8.3-14.6h-4.6v20.9h4.1v-14.8l8.5 14.8h4.4v-20.9zm-23 0v20.9h4.3v-20.9zm-8.5 0l-4.6 15.9-4.5-15.9h-4.7l7.1 20.9h4.1l7.1-20.9zm-20.5 1.8a9.25 9.25 0 0 0-6.8-2.4c-3 0-5.3.8-6.8 2.4-2.1 1.9-3.2 4.8-3.2 8.6s1.1 6.6 3.2 8.6a9.25 9.25 0 0 0 6.8 2.4c3 0 5.3-.8 6.8-2.4 2.2-1.9 3.2-4.8 3.2-8.6s-1.1-6.7-3.2-8.6zm-2.7 14.1a5.37 5.37 0 0 1-8.2 0 8.67 8.67 0 0 1-1.5-5.4 8.47 8.47 0 0 1 1.5-5.4 5.37 5.37 0 0 1 8.2 0 8.67 8.67 0 0 1 1.5 5.4 8.28 8.28 0 0 1-1.5 5.4zm-25.2-15.9l-3.9 16.5-3.8-16.5h-6.3v20.9h4.1v-17.5l3.9 17.5h4.2l4-17.5v17.5h4.1v-20.9zm464.4 72.7a6.14 6.14 0 0 1-1.1.5 4.34 4.34 0 0 0-1 .5c-.1 0-.2.1-.4.3l-.7.6-.8.7a3.81 3.81 0 0 0-.6.5l-3.1 3.1-.7.9c-.3.4-.6.8-.7.9a3.65 3.65 0 0 0-.7 1 5.82 5.82 0 0 0-.7 1.1.37.37 0 0 1-.1.3.76.76 0 0 0-.2.4c-.1.1-.1.3-.2.6l-.3.9a6.89 6.89 0 0 1-.3.8 1 1 0 0 0-.1.4c-.1.1-.1.4-.2.9a3.87 3.87 0 0 0-.1.9c-.1.1-.1.4-.2.7a2.64 2.64 0 0 0-.1.7v6.6c-.4.2-.3.5-.1 1a3.92 3.92 0 0 0 .4.9 5.92 5.92 0 0 1 .4.6c.2.3.3.4.3.5h1a.37.37 0 0 0 .3-.1.76.76 0 0 1 .4-.2 6.41 6.41 0 0 0 1-.6c.5-.3.7-.4.7-.5s.3-.3.7-.9.8-1.1 1.1-1.5a2.74 2.74 0 0 0 .4-.5 5.92 5.92 0 0 1 .4-.6l.3-.3.4-.7a3.22 3.22 0 0 1 .4-.7l.9-1.8.4-.9.2-.5a2.25 2.25 0 0 1 .1-.7l.2-.7.2-.5c.1-.3.2-.6.3-1s.2-.7.3-1a3.93 3.93 0 0 0 .2-.6c.1-.1.1-.4.2-.9a3.45 3.45 0 0 0 .1-.9 6.59 6.59 0 0 0 .3-1c.1-.5.3-1.1.4-1.8a9.47 9.47 0 0 1 .5-1.8 2.26 2.26 0 0 1 .3-1v-.7l.2-.5a4.21 4.21 0 0 1 .2-.5v-2.9zm-362.4-19.5l-.2-.7c0-.1-.1-.1-.3-.3a1.09 1.09 0 0 0-.5.1c-.2.1-.4.1-.5.2a2.74 2.74 0 0 1-.5.4l-.5.3a3.21 3.21 0 0 1-.7.4 3.7 3.7 0 0 1-1.1.5 11.74 11.74 0 0 0-1.1.5c-.4.2-.6.3-.6.4a5.82 5.82 0 0 0-1.1.7 4.55 4.55 0 0 0-.9.7l-3.5 3.5-.2.3-.2.4c-.1.1-.1.3-.2.6a1.34 1.34 0 0 0-.1.5v.6h-.1a.37.37 0 0 0 .1.3 1.24 1.24 0 0 0 .2.3h1a5.81 5.81 0 0 0 1-.1 6.82 6.82 0 0 0 1.2-.1 5.13 5.13 0 0 1 1-.1c.2-.1.5-.2 1-.4a10.93 10.93 0 0 0 1.5-.8c.5-.3 1-.5 1.4-.8a5.76 5.76 0 0 0 .9-.5c.1-.1.4-.3.8-.7l1-1a6.81 6.81 0 0 0 .5-.7l.4-.7c.1-.1.1-.3.2-.5a1.09 1.09 0 0 0 .1-.5 5.13 5.13 0 0 0 .1-1v-1.1a2.25 2.25 0 0 0-.1-.7zm-53.4-4.1c-.2-.3-.4-.4-.5-.4s-.2-.1-.4-.1h-.9c-.2 0-.4 0-.4.1a1.34 1.34 0 0 0-.5.1c-.3.1-.5.1-.6.2a1.4 1.4 0 0 1-.7.4 1.74 1.74 0 0 1-.7.3l-.4.4-.7 2.2c-.1.1-.1.2-.2.4s-.1.3-.2.3a5.29 5.29 0 0 1-.9 1.1c-.4.6-.8 1.1-1.1 1.5a3.61 3.61 0 0 1-.4.5 5.52 5.52 0 0 0-.5 1.2c-.3.7-.6 1.3-.8 1.8a4.13 4.13 0 0 1-.4.9v1.1c.1.1.1.3.2.6v.5c.4.4.6.6.7.6l.4.2a.76.76 0 0 0 .4.1 14.88 14.88 0 0 0 1.7.1h1.8c.1-.1.4-.3.7-.6s.6-.6.6-.7.1-.3.2-.8.3-1 .4-1.6.3-1.2.4-1.7l.2-.9c0-.1.1-.2.2-.4s.2-.3.2-.4a1.34 1.34 0 0 1 .1-.5l.2-.5a.6.6 0 0 1 .1-.4 1.44 1.44 0 0 0 .2-.3 5.74 5.74 0 0 1 .4-.7l.6-.9.6-.9a5.74 5.74 0 0 0 .4-.7v-1.5a5.92 5.92 0 0 1-.4-.6zm-56.2-3.1c-.1.1-.2.1-.2 0h-.4c-.1 0-.2.1-.4.4a6.83 6.83 0 0 1-.7.5 2.49 2.49 0 0 0-.7.5 2.74 2.74 0 0 1-.5.4c-.3.2-.4.3-.5.3a8 8 0 0 0-.8.6l-.6.4a2.74 2.74 0 0 0-.4.5 5.92 5.92 0 0 1-.4.6 8.66 8.66 0 0 0-.5 1.2 7.87 7.87 0 0 0-.4 1.2c0 .3.1.4.4.4h2.1a1.34 1.34 0 0 0 .5-.1 3.93 3.93 0 0 1 .6-.2l.7-.4c.4-.2.6-.3.6-.4s.2-.1.4-.3l.4-.4a.37.37 0 0 1 .1-.3.76.76 0 0 0 .2-.4 5.13 5.13 0 0 0 .4-1c.1-.4.3-.7.3-.8v-2.5zm-48.3 3.1c-.2-.3-.4-.4-.5-.4s-.2-.1-.4-.1h-1a.75.75 0 0 0-.5.1 1.34 1.34 0 0 0-.5.1c-.3.1-.5.1-.6.2a1.4 1.4 0 0 1-.7.4 1.74 1.74 0 0 1-.7.3v.5l-.7 2.2c-.1.1-.1.2-.2.4s-.1.3-.2.3a5.29 5.29 0 0 1-.9 1.1c-.5.6-.8 1.1-1.1 1.5s-.4.5-.5.5a5.52 5.52 0 0 0-.5 1.2c-.3.7-.6 1.3-.8 1.8a4.13 4.13 0 0 1-.4.9v2.1c.4.4.6.6.7.6l.4.2a.76.76 0 0 0 .4.1 14.88 14.88 0 0 0 1.7.1h1.8c.1-.1.4-.3.7-.6s.6-.6.6-.7.1-.3.2-.8.3-1 .4-1.6a8.45 8.45 0 0 1 .5-1.7l.2-.9c0-.1.1-.2.2-.4s.2-.3.2-.4a1.34 1.34 0 0 1 .1-.5l.2-.5a.6.6 0 0 1 .1-.4 1.44 1.44 0 0 0 .2-.3 5.74 5.74 0 0 1 .4-.7l.6-.9.6-.9a5.74 5.74 0 0 0 .4-.7v-1.5a5.92 5.92 0 0 1-.4-.6zm-16.6 8.4h-.4a5 5 0 0 1-.5.7l-.5.7-.2.2c-.1.1-.1.1-.1.2a5.94 5.94 0 0 0-1.1.8 5.17 5.17 0 0 1-.7.6 3.56 3.56 0 0 1-1.5 1c-.9.4-1.9.9-3 1.3s-2.2.8-3.2 1.2a10.17 10.17 0 0 1-2.2.5 1.09 1.09 0 0 0-.5.1 1.09 1.09 0 0 1-.5.1 1.09 1.09 0 0 1-.5.1 1.09 1.09 0 0 1-.5-.1 4.14 4.14 0 0 1-1-.1 3.22 3.22 0 0 0-.8-.1 4.36 4.36 0 0 1-.9-1.1 2.3 2.3 0 0 1-.4-1.4 6.61 6.61 0 0 1-.1-1.1 14.75 14.75 0 0 1 .1-1.6 10.87 10.87 0 0 1 0-3.6 10.11 10.11 0 0 1 1.3-3 7.69 7.69 0 0 1 2.2-2.2 9.05 9.05 0 0 1 2.6-1.3c.4-.1.6-.2.7-.4h.8l.7.7a1.34 1.34 0 0 0 .1.5l.1.5.7.7h1c.3-.1.8-.1 1.4-.2a6.73 6.73 0 0 1 1-.1q.15 0 .3-.3c.1-.2.3-.3.4-.4s.2-.3.4-.5.3-.4.4-.5c.1-.3.1-.3-.1-.1s-.3.2-.3 0l.2-.6s.1-.6.2-.7a7.47 7.47 0 0 0 .2-1.1 5.81 5.81 0 0 0 .1-1v-.7a2.85 2.85 0 0 0-.8-1.4 8.64 8.64 0 0 0-1.3-1.4 3 3 0 0 0-1-.3 10.34 10.34 0 0 0-1.2-.3c0-.2-.1-.3-.2-.3h-.7c-.1 0-.2.1-.2.3l-.5.2-.9.4a4.18 4.18 0 0 1-1 .4 1.6 1.6 0 0 1-.8.3 11.83 11.83 0 0 0-1.3.6l-.9.5-1.1 1.1a2.73 2.73 0 0 1-.5.4 6.47 6.47 0 0 0-.9.8l-.9.8a2.25 2.25 0 0 0-.5.5l-2.4 2.4a7.58 7.58 0 0 0-.9 1.6 14.16 14.16 0 0 0-.7 2.2 18.91 18.91 0 0 0-.5 2.3 10.75 10.75 0 0 1 0 1.8l.4 5.3a6.33 6.33 0 0 0 1 3.1c.1.1.3.4.6.7l.7.7a2.5 2.5 0 0 1 .8.4l1 .5a5.91 5.91 0 0 0 .6.4h2.7a15.27 15.27 0 0 0 3-.3 22.27 22.27 0 0 0 3.2-.9 7.69 7.69 0 0 0 2.9-1.9 1.07 1.07 0 0 1 .5-.3 1.54 1.54 0 0 0 .6-.4 6.74 6.74 0 0 1 1.9-1c.8-.3 1.2-.5 1.3-.5a18.48 18.48 0 0 1 1.4-1.4c.5-.5.7-.8.7-1.1a5.54 5.54 0 0 0 .9-2.7 1.44 1.44 0 0 0-.9-1.2zm16.6-8.4c-.2-.3-.4-.4-.5-.4s-.2-.1-.4-.1h-1a.75.75 0 0 0-.5.1 1.34 1.34 0 0 0-.5.1c-.3.1-.5.1-.6.2a1.4 1.4 0 0 1-.7.4 1.74 1.74 0 0 1-.7.3v.5l-.7 2.2c-.1.1-.1.2-.2.4s-.1.3-.2.3a5.29 5.29 0 0 1-.9 1.1c-.5.6-.8 1.1-1.1 1.5s-.4.5-.5.5a5.52 5.52 0 0 0-.5 1.2c-.3.7-.6 1.3-.8 1.8a4.13 4.13 0 0 1-.4.9v2.1c.4.4.6.6.7.6l.4.2a.76.76 0 0 0 .4.1 14.88 14.88 0 0 0 1.7.1h1.8c.1-.1.4-.3.7-.6s.6-.6.6-.7.1-.3.2-.8.3-1 .4-1.6a8.45 8.45 0 0 1 .5-1.7l.2-.9c0-.1.1-.2.2-.4s.2-.3.2-.4a1.34 1.34 0 0 1 .1-.5l.2-.5a.6.6 0 0 1 .1-.4 1.44 1.44 0 0 0 .2-.3 5.74 5.74 0 0 1 .4-.7l.6-.9.6-.9a5.74 5.74 0 0 0 .4-.7v-1.5a5.92 5.92 0 0 1-.4-.6zm143.3 6.1l-.07.07.12-.08zm122.1 0l-.31.28a5.84 5.84 0 0 0 .51-.33zm56.4 8.9a2.78 2.78 0 0 1-.44.31l.24-.11c.2-.1.3-.2.2-.2zm-.9.6l.46-.29a1.49 1.49 0 0 0-.46.29zm67.1-24.8a.77.77 0 0 1-.3-.2h-.4c-.2.1-.3.1-.4 0l-1.1-.5-1.1-.5a6.8 6.8 0 0 0-1.3-.4 6.12 6.12 0 0 1-1.4-.3.37.37 0 0 0-.1-.3.37.37 0 0 1-.1-.3v-.6a1.63 1.63 0 0 1 .4-.9l.5-.9a2.64 2.64 0 0 1 .1-.7 2.25 2.25 0 0 0 .1-.7l-.2-1.1a6.3 6.3 0 0 0-.3-1.3c-.1-.2-.3-.3-.4-.4a6.78 6.78 0 0 1-.9-.6c-.4-.3-.6-.5-.7-.5l-.4.1c-.2.1-.4.1-.5.2s-.2.3-.4.5a2.25 2.25 0 0 0-.5.5 6.65 6.65 0 0 0-.3.7 2.19 2.19 0 0 1-.3.8l-.4.7a3.22 3.22 0 0 1-.4.7c0 .1-.2.3-.3.5a1.69 1.69 0 0 0-.2.5l-.2.3a.76.76 0 0 0-.1.4c0 .1-.2.2-.3.5l-.2.5-.4.4h-1a2.48 2.48 0 0 0-.6-.4h-.8a8.15 8.15 0 0 0-.9.2 4.39 4.39 0 0 1-.9.1c-.1 0-.1 0-.2.1l-.2.2a2.64 2.64 0 0 1-.1.7 2.25 2.25 0 0 0-.1.7v.5a1 1 0 0 0 .1.4c.1 0 .1 0 .2.1l.2.2c.1.1.5.3 1 .7a7 7 0 0 1 1 .7c0 .1.1.1.2.2s.1.1.1.2v.4a.37.37 0 0 0 .1.3l-.5.7a5 5 0 0 0-.5.7l-.1.5c0 .3 0 .4-.1.5-.1.3-.3.8-.5 1.5a7 7 0 0 1-.5 1.3 8.66 8.66 0 0 1-.9 1.2 7.68 7.68 0 0 0-.9 1.3c-.1 0-.2.2-.3.5a9.29 9.29 0 0 0-.5 1l-.4 1c-.2.3-.2.5-.3.6-.4 1-1.1 2.5-1.8 4.4a24 24 0 0 0-1.3 7.4 3.42 3.42 0 0 0 .2 1.1l.2 1.1v.2c0 .1 0 .1-.1-.1v.4a2.6 2.6 0 0 0 .7.3c0 .1.2.2.5.4s.4.3.5.3l.7.4c.2 0 .5.1 1.1.2a5.39 5.39 0 0 0 1.1.1h.9a8.65 8.65 0 0 0 1.6-.5c1-.3 1.9-.7 2.8-1a6.71 6.71 0 0 0 1.5-.6 6.78 6.78 0 0 0 .9-.6 6.38 6.38 0 0 0 .9-.6c.1 0 .3-.2.4-.4a2.18 2.18 0 0 1 .4-.5 5.6 5.6 0 0 1 .7-1.2c0-.1.2-.3.5-.6s.5-.4.5-.5c-.3-1-.8-1.6-1.3-1.7a2.22 2.22 0 0 0-1.6.1 6.38 6.38 0 0 0-1.4.8q-.6.45-.6.3a1.44 1.44 0 0 0-.3.2c-.1.2-.2.2-.3.3h-.6c0 .3-.2.5-.7.7a2.93 2.93 0 0 1-1.6.4 3.64 3.64 0 0 1-1.5-.2c-.5-.1-.6-.4-.5-.9a1.34 1.34 0 0 1 .1-.5l.1-.9a2.77 2.77 0 0 1 .1-.9 1.34 1.34 0 0 0 .1-.5v-.9c0-.5 0-.8.1-.9l.7-1.4.6-1.1c.2-.4.4-.7.5-.9a1.55 1.55 0 0 1 .3-.6 2.74 2.74 0 0 1 .4-.5c0-.1.1-.2.3-.4a2.18 2.18 0 0 0 .3-.5c.2-.2.3-.4.4-.5l.3-.7c.1 0 .2-.2.4-.5a9.25 9.25 0 0 1 .5-1 3.13 3.13 0 0 1 .5-1 5.93 5.93 0 0 1 .4-.6 5.91 5.91 0 0 0 .4-.6 9.74 9.74 0 0 1 .5-1.1 3.7 3.7 0 0 1 .5-1.1 5.92 5.92 0 0 1 .4-.6 10.15 10.15 0 0 1 .9-1.6 10.16 10.16 0 0 0 .9-1.6l.3-.3a3.93 3.93 0 0 0 .6-.2 1.34 1.34 0 0 1 .5-.1h1.4a8.66 8.66 0 0 0 1.1-.1c.7-.1 1.2-.1 1.6-.2a7.08 7.08 0 0 1 1.2-.2 7.06 7.06 0 0 0 1.2-.2v-.5c0-.1-.1-.1-.2-.2zm104.4-10.7q-.15 0-.6-.6l-.8-.7a.76.76 0 0 1-.4-.2.37.37 0 0 0-.3-.1h-1.8a2.64 2.64 0 0 0-.7.1c-.3.1-.5.1-.6.2l-.4.3c-.2.1-.3.2-.4 0v1.1a1.76 1.76 0 0 0 .1.6c.1.3.1.4.2.5a3.61 3.61 0 0 1 .9.9c.5.5.8.7.9.8a1.76 1.76 0 0 0 .6.1h.9a.76.76 0 0 0 .4-.1c.2-.1.3-.1.4-.2a1.34 1.34 0 0 0 .5-.1c.3-.1.4-.1.5-.2s.2-.1.4-.3c0-.1.1-.2.2-.4a.37.37 0 0 0 .1-.3v-.8a1.76 1.76 0 0 0-.1-.6zm-435.9 34.9a2.78 2.78 0 0 1-.44.31l.24-.11c.2-.1.3-.2.2-.2zm-.9.6l.46-.29a1.49 1.49 0 0 0-.46.29zm-1 .6a.22.22 0 0 0 .16-.08zM97 108.7a2.92 2.92 0 0 0-2 .3 9.8 9.8 0 0 0-2.2 1.3c-.7.6-1.2.9-1.4 1.1s-.3.2-.5.4a1.08 1.08 0 0 1-.7.3 2.8 2.8 0 0 1-1 .5 4.34 4.34 0 0 0-1 .5 4.2 4.2 0 0 1-.5.2l-.5.3a.76.76 0 0 0-.4.1c-.2.1-.3.1-.4.2a2.29 2.29 0 0 0-1 .2 6.37 6.37 0 0 1-.9.2c-.5.1-.7.1-.8.2a1.09 1.09 0 0 0-.5.1.76.76 0 0 1-.4.1l-.2.1c-.1 0-.1 0-.2-.1a1.09 1.09 0 0 1-.5-.1.76.76 0 0 0-.4-.1c0-.1-.3-.2-.7-.3l-.7-.2c-.74-.25-.38-1.43-.56-2s-.84-.89-.84-1.43c-.1 0-.1-.1-.1-.2v-.8c0-.2 0-.3.1-.3a1.34 1.34 0 0 1 .1-.5c.1-.3.1-.5.2-.6l.4-.7a3.75 3.75 0 0 0 .8-.1 8.68 8.68 0 0 0 1-.2h.5a18.63 18.63 0 0 0 3.5-.4 3.75 3.75 0 0 1 .8-.1c.1-.1.4-.2.8-.5a6.42 6.42 0 0 1 1-.6 5.93 5.93 0 0 1 .6-.4c.3-.1.4-.2.4-.3a10 10 0 0 0 1.2-1.1l.9-.9.4-1.1c.2-.5.4-1 .5-1.3l.4-1.5a6.57 6.57 0 0 0 .3-1.3 10.3 10.3 0 0 0 .1-1.3v-1.57c0-.42 0-1.49-.3-1.8a7.91 7.91 0 0 0-.4-1.3 3.83 3.83 0 0 0-.5-1.1l-.4-.4a1.38 1.38 0 0 1-.4-.3h-1.2a7.5 7.5 0 0 0-1.2.1 2.64 2.64 0 0 0-.7.1c-.3.1-.6.1-.7.2s-.4.2-1 .4a4.34 4.34 0 0 0-1 .5c0 .1-.2.2-.6.5a3.28 3.28 0 0 1-.8.6c-.2.3-.3.4-.4.4l-.4.4-.8.6a5.55 5.55 0 0 0-.8.6 2.73 2.73 0 0 0-.5.4.37.37 0 0 1-.4.4 2.73 2.73 0 0 1-.5.4 5.91 5.91 0 0 0-.6.4l-.4.4c-.2.2-.3.3-.3.4s-.2.2-.4.6l-.4.7c-.1 0-.1.2-.2.5s-.1.4-.2.5a6.66 6.66 0 0 0-.3.7 2.15 2.15 0 0 1-.4.7c-.1.1-.2.3-.4.5-.31.47-.77.76-1.1 1.2a4.3 4.3 0 0 0-.7.7v3.6a2.77 2.77 0 0 1-.1.9v.41c-.27-.13-.94.28-1.16.39-.4.3-.8.6-1.3 1s-.8.7-1.1 1a4.37 4.37 0 0 1-.8.7 6.79 6.79 0 0 1-.9.6 3.51 3.51 0 0 0-.8.5 1.07 1.07 0 0 1-.5.3 1.54 1.54 0 0 0-.6.4 2.93 2.93 0 0 1-.8.4 1 1 0 0 1-.6.2c-.1.1-.2.1-.5.1h-1.14c-.2 0-.4 0-.4-.1-1.26.42-3.3.58-3.6-1.2a5.1 5.1 0 0 1 .1-2.1 8.49 8.49 0 0 1 .9-2.2 11.06 11.06 0 0 0 .7-1.3c.4-.7.6-1.2.7-1.4a13.84 13.84 0 0 0 .4-1.9c.1-.1.1-.3.2-.7a2.25 2.25 0 0 0 .1-.7v-2.8l-.4-1.4v-.4a4.58 4.58 0 0 0 .7-2.2v-2.7l-.7-.7a2.15 2.15 0 0 0-.7-.4l-.7-.2c0-.2-.2-.3-.7-.3h-2.1c-.4 0-.6 0-.6.1a2.52 2.52 0 0 0-.9.4 6.38 6.38 0 0 0-.9.6 2.15 2.15 0 0 0-.4.7 2.6 2.6 0 0 0-.3.7v2.8a5 5 0 0 0 .5.7c.3.4.5.6.5.7a1.36 1.36 0 0 1 .3.8 6.54 6.54 0 0 1-1.2 2.3c-.2.2-.3.4-.4.5l-.4.4c-.2.2-.5.6-.9 1l-.8.9c-.18.18-.57 1-.8 1a4.55 4.55 0 0 0-.7.9c-.4.5-.6.8-.8.9a6 6 0 0 0-.6.7 1.79 1.79 0 0 0-.5.7l-3.1 3.2c-.1 0-.2.1-.5.4a3.51 3.51 0 0 1-.8.5 5.18 5.18 0 0 1-1.1.7 3.09 3.09 0 0 1-1.2.6c0 .1-.1.3-.4.4v-.3a.37.37 0 0 0-.1-.3 13.21 13.21 0 0 1 .3-1.3c.2-.8.4-1.7.6-2.6s.4-1.8.6-2.6.31-1.54.5-2.3a3.75 3.75 0 0 0 .1-.8v-3.5a2.64 2.64 0 0 0-.1-.7c-.1-.3-.1-.6-.2-.7s-.3-.6-.5-1.1a2.8 2.8 0 0 0-.5-1c0-.1-.2-.3-.4-.5l-.5-.5a6.57 6.57 0 0 1-1.2-.6 3.52 3.52 0 0 0-1-.4c0-.1-.2-.1-.6-.1h-1.6c-.3 0-.4 0-.5.1a9.52 9.52 0 0 1-2.8 1.8 25.83 25.83 0 0 0-3.1 1.3c-.1.1-.3.1-.7.2s-.6.1-.7.2l-3.1 3.1a2.74 2.74 0 0 0-.4.5 2.73 2.73 0 0 1-.4.5c-.2.5-.5 1.3-.9 2.3a6.91 6.91 0 0 0-.6 2.4l.7 7.6h.4c.59 0 1.28.74 1.8 1 .1.2.4.4 1 .8s.9.6 1 .7a1.91 1.91 0 0 0 1 .4 5.31 5.31 0 0 1 1.1.3h1.7l1.4-.7a4.12 4.12 0 0 1 .9-.2c.5-.1.8-.1.9-.2a4.21 4.21 0 0 1 .5-.2l.5-.2h.6c.1 0 .3.1.8.2a8.8 8.8 0 0 1 1.5.5c.6.2 1.1.4 1.5.5s.7.2.8.2a14.31 14.31 0 0 1 1.9-.2h.5a3.52 3.52 0 0 0 1-.4 6.87 6.87 0 0 1 1.3-.6 3.93 3.93 0 0 0 .6-.2c.3-.1.4-.1.4-.2l1.5-1.1 1-.8a6 6 0 0 0 .7-.6 3.54 3.54 0 0 1-.1-.6v-1.18c1-.94 1.73-1.65 2.3-2.22a9.68 9.68 0 0 0 1.8-1.9v2.9h.5a4 4 0 0 0-.4 3.6 12.66 12.66 0 0 0 .6 1.8 7.38 7.38 0 0 0 .8 1.3l.4.4a3.25 3.25 0 0 0 1.3.3 7.82 7.82 0 0 1 1.9.4 2.82 2.82 0 0 1 1.1.4 1.88 1.88 0 0 0 .8.2h2.5a2.6 2.6 0 0 0 .7-.3 6.9 6.9 0 0 1 1-.4l.4-.2c.2-.1.3-.1.3-.2a10.92 10.92 0 0 0 1.1-.9c.5-.4.9-.7 1.1-.9-.2.2-.1.2.1 0l.5-.7c.3-.3.5-.6.6-.7s.3-.4.7-.8l.8-.8.6-.6 1.4-1.4v1.7a1.34 1.34 0 0 0 .1.5c.1.3.1.5.2.6a.49.49 0 0 0 .1.3l.2.3.5.7a5 5 0 0 1 .5.7 3.4 3.4 0 0 0 1.2 2c1.4 1.17 3.45 1.42 5.2 1.6a13 13 0 0 0 3.9-.1 5.13 5.13 0 0 0 1-.4 2.19 2.19 0 0 1 .8-.3c.4-.2.7-.2.8-.3l.8-.3a1.92 1.92 0 0 0 .8-.4c.1-.2.5-.4 1.1-.8s1.3-.8 2-1.3c.52-.3 1-.6 1.44-.9a3.06 3.06 0 0 1-.36.2 1.72 1.72 0 0 0 .22-.2q.3-.15.3-.3c.2-.2.6-.7 1.3-1.4a8.84 8.84 0 0 1 1.4-1.4c0-1.3-.3-2-.9-2.2zm-14.9-8.3a8.66 8.66 0 0 1 .5-1.2 5.92 5.92 0 0 0 .4-.6 2.74 2.74 0 0 1 .4-.5l.6-.4a8 8 0 0 1 .8-.6c.52 0 1.23-1 1.7-1.2a6.83 6.83 0 0 0 .7-.5c.2-.3.3-.4.4-.4h.4c0 .1.1.1.2 0l.2.2v2.5c0 .1-.2.4-.3.8a5.13 5.13 0 0 1-.4 1 .76.76 0 0 1-.2.4.37.37 0 0 0-.1.3l-.4.4c-.2.2-.3.3-.4.3s-.2.2-.6.4l-.7.4a3.93 3.93 0 0 0-.6.2 1.34 1.34 0 0 1-.5.1h-2.1c-.81 0-.1-1.25 0-1.6zm-41.8-.2a5.74 5.74 0 0 1-.4.7l-.6.9-.6.9a5.74 5.74 0 0 0-.4.7 1.18 1.18 0 0 0-.3.7l-.2.5a9 9 0 0 0-.5 1.3l-.2.9a8.45 8.45 0 0 0-.5 1.7c-.1.6-.3 1.1-.4 1.6-.21 1.06-.75 1.35-1.5 2.1h-1.8a14.88 14.88 0 0 1-1.7-.1 1.36 1.36 0 0 1-.8-.3c-.1 0-.3-.2-.7-.6v-2.1a4.13 4.13 0 0 0 .4-.9c.2-.5.5-1.1.8-1.8a5.52 5.52 0 0 1 .5-1.2c.1 0 .3-.2.5-.5s.6-.9 1.1-1.5a5.29 5.29 0 0 0 .9-1.1c.1 0 .1-.1.2-.3s.1-.3.2-.4l.7-2.2v-.5a1.74 1.74 0 0 0 .7-.3 1.4 1.4 0 0 0 .7-.4c.1-.1.3-.1.6-.2a1.34 1.34 0 0 1 .5-.1.75.75 0 0 1 .5-.1h1c.2 0 .3 0 .4.1s.3.1.5.4a5.92 5.92 0 0 0 .4.6zm54.2 14.1l.16-.08a.22.22 0 0 1-.16.08zM88.2 95c-.1.1-.2.1-.2 0h-.4c-.1 0-.2.1-.4.4a6.83 6.83 0 0 1-.7.5 2.49 2.49 0 0 0-.7.5 2.74 2.74 0 0 1-.5.4c-.3.2-.4.3-.5.3a8 8 0 0 0-.8.6l-.6.4a2.74 2.74 0 0 0-.4.5 5.92 5.92 0 0 1-.4.6 8.66 8.66 0 0 0-.5 1.2 7.87 7.87 0 0 0-.4 1.2c0 .3.1.4.4.4h2.1a1.34 1.34 0 0 0 .5-.1 3.93 3.93 0 0 1 .6-.2l.7-.4c.4-.2.6-.3.6-.4s.2-.1.4-.3l.4-.4a.37.37 0 0 1 .1-.3.76.76 0 0 0 .2-.4 5.13 5.13 0 0 0 .4-1c.1-.4.3-.7.3-.8v-2.5zM572.4 95.3a2.93 2.93 0 0 0-.4-.8c-.1 0-.3-.2-.5-.6a6.82 6.82 0 0 0-.5-.7l-.4-.4a.76.76 0 0 1-.4-.2.37.37 0 0 0-.3-.1h-3.5a5.94 5.94 0 0 0-.7.3 5.13 5.13 0 0 0-1 .4 2.6 2.6 0 0 0-.7.3l-.7.4-.5.1a1.34 1.34 0 0 1-.5.1l-1.3.7c-.7.3-1.2.6-1.4.7a.76.76 0 0 1-.4-.1c-.2-.1-.3-.1-.4-.2-.2-.3-.3-.4-.4-.4h-1a1.34 1.34 0 0 0-.5.1c-.3.1-.5.1-.6.2l-.4.2s-.3.1-.4.2a8 8 0 0 0-.8.6c-.3.3-.5.4-.5.5l-.7 1.1c-.3.6-.6 1-.7 1.3l-.4.8a6.12 6.12 0 0 1-.5 1.2 10.4 10.4 0 0 0-.5 1.2 2.39 2.39 0 0 1-.3.7 4.88 4.88 0 0 0-.3.7 3 3 0 0 0-.4 1l-.3.9a1.34 1.34 0 0 0-.1.5c0 .2 0 .4-.07.57a8.78 8.78 0 0 1-.8.7 4.55 4.55 0 0 0-.9.7c-.3.2-.4.3-.4.4l-.7.5a5 5 0 0 1-.7.5 2.74 2.74 0 0 1-.5.4 2.73 2.73 0 0 0-.5.4l-1.1 1.1c-.1.1-.3.2-.5.4s-.4.3-.5.4a1.34 1.34 0 0 0-.5.1c-.3.1-.4.1-.5.2a.76.76 0 0 0-.4.1c-.2.1-.3.1-.4.2h-.7l-.2-.5a1.76 1.76 0 0 1-.1-.6v-2.8a3.44 3.44 0 0 1 .1-.9 6.38 6.38 0 0 1 .2-.9c0-.1.2-.5.3-1a3.18 3.18 0 0 1 .4-1.1.76.76 0 0 1 .1-.4c.1-.2.1-.3.2-.4v-6.27c0-.1-.1-.2-.3-.5a3.81 3.81 0 0 0-.5-.6c-.1 0-.1-.1-.2-.2s-.1-.1-.2-.1h-.7a10.51 10.51 0 0 0-1.3.2 6.61 6.61 0 0 1-1.1.1.49.49 0 0 0-.3.1l-.4.2a2.74 2.74 0 0 1-.5.4 2.74 2.74 0 0 0-.5.4 5.91 5.91 0 0 1-.6.4 4.69 4.69 0 0 0-.9.6 5.5 5.5 0 0 1-.9.7 2.73 2.73 0 0 0-.5.4 2.15 2.15 0 0 1-.7.4 1.54 1.54 0 0 0-.7.3h-.7a11.8 11.8 0 0 0-.1-1.6 10.78 10.78 0 0 0-.2-1.6 1.6 1.6 0 0 0-.3-.8 1.34 1.34 0 0 0-.8-.7.49.49 0 0 1-.3-.1l-.3-.2h-.4a3.93 3.93 0 0 0-.6.2 1.34 1.34 0 0 1-.5.1l-.4.4a3.22 3.22 0 0 0-.4.7l-.4.7a2.8 2.8 0 0 1-.1.6c-.1.3-.1.6-.2.7v.3a4.18 4.18 0 0 1-.3.9 4.18 4.18 0 0 0-.3.9 5.08 5.08 0 0 1-.2.9 4.4 4.4 0 0 0-.1.9l-.2.7a2.25 2.25 0 0 0-.1.7 4.14 4.14 0 0 1-.6 2 13.31 13.31 0 0 1-1.4 1.9c-.5.5-.9 1.1-1.3 1.5s-.5.7-.3.9a.55.55 0 0 0-.3.5v.25l-.1.05-.7.5-.7.5c-.1.1-.4.2-.8.5a6.42 6.42 0 0 1-1 .6 5.94 5.94 0 0 1-.6.4 2.6 2.6 0 0 0-.7.3 11.21 11.21 0 0 0-1.3.5 4.18 4.18 0 0 1-.9.3c-.3 0-.4-.6-.2-1.7a25.39 25.39 0 0 1 1.1-3.8 16.42 16.42 0 0 1 1.9-4 4.41 4.41 0 0 1 2.3-2.1.76.76 0 0 1 .1-.4c.1-.2.1-.3.2-.4s.2-.3.5-.7a1.79 1.79 0 0 0 .5-.7c.1 0 .1-.1.1-.5v-1.9c0-.4 0-.6-.1-.7a1.69 1.69 0 0 0-.2-.5c-.1-.2-.3-.3-.4-.4s-.2-.1-.4-.1h-.9c-.2 0-.3 0-.4.1l-2.4 2.4c-.1.1-.2.3-.4.5s-.4.5-.6.8a4.34 4.34 0 0 1-.6.7l-.4.4a13.88 13.88 0 0 0-2 3.6 30.76 30.76 0 0 0-1.63 5.4 15.43 15.43 0 0 0-.2 5.2 3.37 3.37 0 0 0 2.3 3 1.34 1.34 0 0 1 .5.1c.3.1.5.1.6.2a8.37 8.37 0 0 0 1-.2c.5-.1.8-.2.9-.1h1.1l1.1-.4q.45-.3 1.5-.9 1.05-.75 1.2-.9l.4-.7a3.22 3.22 0 0 1 .7-.4 3.22 3.22 0 0 0 .7-.4 10.24 10.24 0 0 0 .75-1l.15-.08a25.08 25.08 0 0 0 3.7-2.7 30.72 30.72 0 0 0 3.1-3.2c.1 0 .2-.1.4-.3s.3-.3.4-.3a6.12 6.12 0 0 1 .6-.5l1.2-.9a10.62 10.62 0 0 0 1.1-.9l1-1a8 8 0 0 0 .8-.6 7.37 7.37 0 0 1 .6-.5.77.77 0 0 1 .3.1.37.37 0 0 0 .3.1v.3c.1.2.1.2 0 .3a4.39 4.39 0 0 1-.1.9 7.72 7.72 0 0 1-.2 1.5l-.2 1.5a4.39 4.39 0 0 0-.1.9v.9a5.28 5.28 0 0 0-.1 1.3 13.62 13.62 0 0 0 .1 1.6 6.36 6.36 0 0 0 .3 1.5 11.06 11.06 0 0 0 .4 1.3 2.25 2.25 0 0 0 .5.5 7.37 7.37 0 0 0 .6.5 4.61 4.61 0 0 0 1.4.5c.8.2 1.4.4 1.7.5h.7a4.36 4.36 0 0 0 1.3-.5 11.3 11.3 0 0 0 1.5-.9l.5-.2a1.54 1.54 0 0 0 .6-.4c.3-.2.8-.6 1.4-1s.9-.7 1-.8l.7-.7c0-.1.2-.2.5-.4s.4-.3.5-.3l.4-.4.6-.7a4.42 4.42 0 0 1 .57-.67l.23.47a1.63 1.63 0 0 0 .3.6l1 1a1.34 1.34 0 0 1 .5.1c.3.1.5.1.6.2.3.1.7.2 1.3.4a6.2 6.2 0 0 0 1.1.3h.4a2.64 2.64 0 0 0 .7-.1c.3-.1.6-.1.7-.2a1.09 1.09 0 0 0 .5-.1.76.76 0 0 1 .4-.1 18.66 18.66 0 0 0 1.8-.7 12.63 12.63 0 0 0 1.7-.7 1.44 1.44 0 0 0 .2.3.6.6 0 0 1 .1.4v1.7a3.87 3.87 0 0 1-.1.9c-.1.5-.1.8-.2.9a.91.91 0 0 1-.3.5l-.4.4a1.4 1.4 0 0 1-.7.4 5.36 5.36 0 0 0-1.1.5 4.67 4.67 0 0 0-1 .5 3.22 3.22 0 0 0-.7.4.62.62 0 0 0-.4.2 5.58 5.58 0 0 1-.8.5l-.9.6a5.73 5.73 0 0 1-.7.4 12.26 12.26 0 0 0-1.2.8 6.37 6.37 0 0 0-.9.6l-.5.4a6.47 6.47 0 0 0-.9.8l-1 .9a6.53 6.53 0 0 0-.8.7l-1.4 1.4a3.63 3.63 0 0 1-.7.9c-.3.4-.5.7-.6.8s-.2.2-.3.4a5.9 5.9 0 0 1-.4.8l-.5.9a4.87 4.87 0 0 1-.3.7c-.1.1-.2.5-.4.9a4.18 4.18 0 0 0-.3.9 5.07 5.07 0 0 1-.2.9 4.4 4.4 0 0 0-.1.9l-.2.5a1.34 1.34 0 0 0-.1.5 4.08 4.08 0 0 1-.2.7 2.64 2.64 0 0 0-.1.7 5.76 5.76 0 0 1-.2 1 3.75 3.75 0 0 0-.1.8h.5v5.2a8.17 8.17 0 0 0 .1 1.4 4.17 4.17 0 0 0 .2 1.1c0 .1.1.2.3.5a2.73 2.73 0 0 0 .4.5 2.64 2.64 0 0 0 .1.7c.1.3.1.6.2.7s.2.6.4 1a2.6 2.6 0 0 1 .3.7 5.78 5.78 0 0 0 1.8 2.7 3.39 3.39 0 0 0 2.1.6 4.69 4.69 0 0 0 2.2-.9 18.11 18.11 0 0 0 2.1-1.8 2.74 2.74 0 0 1 .5-.4 5.94 5.94 0 0 0 .6-.4l.3-.3a5.77 5.77 0 0 1 .8-1c.3-.4.5-.7.6-.8a7 7 0 0 1 .6-.9l.8-1.1a8.16 8.16 0 0 1 1-1.7 4.58 4.58 0 0 0 .7-1.1 3.93 3.93 0 0 1 .2-.6c.1-.3.2-.6.3-1s.2-.7.3-1 .1-.4.2-.5l.5-1.1.5-1.1.2-.5a1.76 1.76 0 0 0 .1-.6c.1 0 .2-.2.4-.6a1.69 1.69 0 0 1 .2-.5 1.09 1.09 0 0 0 .1-.5 1.34 1.34 0 0 1 .1-.5l.2-.9a2.92 2.92 0 0 1 .2-.9 1.34 1.34 0 0 0 .1-.5c0-.1.1-.2.2-.4s.2-.3.2-.4a8.33 8.33 0 0 1 .1-1.2 4.36 4.36 0 0 1 .2-1.2 2.64 2.64 0 0 1 .1-.7c.1-.3.1-.6.2-.7a2.64 2.64 0 0 1 .1-.7 5 5 0 0 1 .2-1.2c.1-.5.1-.8.2-1.2a2.81 2.81 0 0 0 .1-.8 1 1 0 0 1 .1-.4l.1-.8c0-.3.1-.6.1-.8v-.4l.3-.6a2.15 2.15 0 0 1 .4-.7 4.53 4.53 0 0 1 .5-.9l.5-.9v-.4a5.08 5.08 0 0 0-.2-.9 4.39 4.39 0 0 1-.1-.9v-4.3a1.34 1.34 0 0 1 .1-.5c.1-.3.1-.5.2-.6a5.81 5.81 0 0 1 .1-1 4.07 4.07 0 0 1 .2-1 2.3 2.3 0 0 1 .3-.9 4.13 4.13 0 0 1 .4-.9l.4-.4a6 6 0 0 0 .6-.7 5 5 0 0 0 .5-.7 4.38 4.38 0 0 1 .5-.9 6.38 6.38 0 0 1 .6-.9 1.55 1.55 0 0 1 .3-.6c.2-.3.3-.4.3-.5a4.88 4.88 0 0 0 .3-.7 3 3 0 0 0 .4-1l.3-.9a1.34 1.34 0 0 0 .1-.5v-3.22zm-3.7 2.4a3.87 3.87 0 0 1-.1.9c-.1.5-.1.8-.2.9s-.2.3-.3.6-.2.4-.3.4h-1.5l-1.1 1.1c-.1.1-.2.3-.4.5a.91.91 0 0 0-.3.5l-.2.5a1.34 1.34 0 0 0-.1.5 5.76 5.76 0 0 0-.5.9 3.05 3.05 0 0 1-.5.9 1.49 1.49 0 0 1-.6.7 3.78 3.78 0 0 1-.8.7c-.1.1-.4.3-.7.6l-.7.5a4.54 4.54 0 0 1-.8.3 5.13 5.13 0 0 0-1 .4 6.39 6.39 0 0 1-1 .4h-2.5l-.6-.7a2 2 0 0 1-.1-.5.47.47 0 0 1 .1-.6v-.7c0-.3 0-.5.1-.6a2.52 2.52 0 0 1 .4-.9l.5-.9.2-.5a1.34 1.34 0 0 0 .1-.5l.4-.8a1.63 1.63 0 0 1 .3-.6l.7-.7c.2-.2.6-.4 1.1-.9s.9-.8 1-.9l1.6-1.2 1.2-.9a2.71 2.71 0 0 0 .8-.3c.4-.2.8-.3 1-.4l.7-.2a1.76 1.76 0 0 1 .6-.1h3.2a1.44 1.44 0 0 0 .2.3.6.6 0 0 1 .1.4zM508.1 110.7c-.9 0-2.3.7-4.1 2.2-.1 0-.2.1-.4.2a.76.76 0 0 1-.4.1c-.3.1-.7.2-1.2.4a7.78 7.78 0 0 1-.9.3 2.64 2.64 0 0 1-.7-.1c-.3-.1-.6-.1-.7-.2s-.2-.1-.4-.3-.3-.4-.4-.5a9.24 9.24 0 0 0-.5-.8l-.7-1-.6-.9c-.2-.3-.3-.4-.3-.5a5.07 5.07 0 0 0-.2-.9 4.4 4.4 0 0 1-.1-.9 1.34 1.34 0 0 1 .1-.5c.1-.3.1-.5.2-.6a8.12 8.12 0 0 0 .5-1c.3-.5.4-.9.5-1a5.34 5.34 0 0 0 .4-1.1 5.34 5.34 0 0 1 .4-1.1 1.07 1.07 0 0 0 .3-.5 3.55 3.55 0 0 1 .4-.9l.4-.9.3-.5a3.93 3.93 0 0 1 .2-.6 1.34 1.34 0 0 0 .1-.5 3.22 3.22 0 0 0-.1-.8 6.38 6.38 0 0 0-.2-.9c0-.1-.1-.2-.2-.4s-.2-.3-.2-.4v-1.4a4.18 4.18 0 0 1 .3-.9 4 4 0 0 1 .4-1.2.76.76 0 0 1 .1-.4c.1-.2.1-.3.2-.4a6.2 6.2 0 0 1 .3-1.1c.2-.5.3-1 .4-1.3l.2-.7a2.25 2.25 0 0 0 .1-.7 4.33 4.33 0 0 0 .4-1.1 2.19 2.19 0 0 1 .3-.9 6.42 6.42 0 0 1 .5-1.1l.5-1.1c.1-.2.2-.5.4-.9l.4-1.1a6.89 6.89 0 0 0 .4-1l.2-.5c.1 0 .1-.1.1-.4v-1.3c0-.3 0-.5-.1-.6l-.3-.4a1.38 1.38 0 0 0-.3-.4 2.49 2.49 0 0 0-.7-.5l-.7-.4c-.1-.1-.1-.1-.2-.1l-.2.1a6.83 6.83 0 0 0-.5.7 2.49 2.49 0 0 1-.5.7.76.76 0 0 1-.1.4.76.76 0 0 0-.1.4l-.4.4c-.2.2-.3.3-.3.4l-.5.9c-.3.5-.5.9-.6 1.1a9.21 9.21 0 0 1-.3.9 3.92 3.92 0 0 1-.4.9 1.34 1.34 0 0 1-.1.5c-.1.3-.1.4-.2.5l-.7 1.1-.7 1.1c-.1.1-.1.3-.2.6a4.4 4.4 0 0 1-.2 1c-.1.4-.1.7-.2 1a1.34 1.34 0 0 0-.1.5l-.4 1.1a6.4 6.4 0 0 1-.4 1l-.4.8-.6 1.3a8.26 8.26 0 0 0-.7 1.3c-.2.4-.3.7-.4.9s0 .1-.1.2l-.2.2a8 8 0 0 0-.8.6 7.35 7.35 0 0 1-.6.5 1.34 1.34 0 0 0-.5.1c-.3.1-.4.1-.5.2a2.6 2.6 0 0 0-.7.3 1.74 1.74 0 0 1-.7.3l-.5.2a1.34 1.34 0 0 1-.5.1 1.44 1.44 0 0 0-.3.2.6.6 0 0 1-.4.1 2.73 2.73 0 0 1-.5.4 2.74 2.74 0 0 0-.5.4.76.76 0 0 0-.4.2.37.37 0 0 1-.3.1h-.8a3.68 3.68 0 0 0-1-.4 4.28 4.28 0 0 0-1-.3.49.49 0 0 0-.3.1l-.4.2a1.54 1.54 0 0 1-.6.4 1.07 1.07 0 0 0-.5.3l-.9.7-1.5 1.2c-.6.5-1.1.8-1.5 1.2a4.55 4.55 0 0 0-.9.7 6.38 6.38 0 0 1-.9.6l-.9.5a3.61 3.61 0 0 0-.9.9l-.9.9a4.55 4.55 0 0 1-.9.7l-.9.7c-.1 0-.2.1-.4.2a.76.76 0 0 1-.4.1 3.63 3.63 0 0 0-.9.7 4.55 4.55 0 0 0-.9.7l-.5.1c-.3.1-.4.1-.5.2s-.2.1-.4.3-.3.3-.4.3l-.5.2a1.34 1.34 0 0 1-.5.1c-.1.1-.2.1-.4.2s-.3.1-.4.2c-.25.25-.47.48-.66.7v-.1a1.76 1.76 0 0 1-.1-.6v-2.8a3.44 3.44 0 0 1 .1-.9 6.38 6.38 0 0 1 .2-.9c0-.1.2-.5.3-1a3.18 3.18 0 0 1 .4-1.1.76.76 0 0 1 .1-.4c.1-.2.1-.3.2-.4v-6.3c0-.1-.1-.2-.3-.5a1.54 1.54 0 0 0-.4-.6c-.1 0-.1-.1-.2-.2s-.1-.1-.2-.1h-.7a10.51 10.51 0 0 0-1.3.2 6.61 6.61 0 0 1-1.1.1.49.49 0 0 0-.3.1l-.4.2a2.74 2.74 0 0 1-.5.4 2.73 2.73 0 0 0-.5.4 5.92 5.92 0 0 1-.6.4 4.69 4.69 0 0 0-.9.6 5.5 5.5 0 0 1-.9.7 2.73 2.73 0 0 0-.5.4 2.15 2.15 0 0 1-.7.4 1.54 1.54 0 0 0-.7.3h-.7a11.8 11.8 0 0 0-.1-1.6 10.76 10.76 0 0 0-.2-1.6 1.6 1.6 0 0 0-.3-.8 1.34 1.34 0 0 0-.8-.7.49.49 0 0 1-.3-.1l-.3-.2h-.44a3.94 3.94 0 0 0-.6.2 1.34 1.34 0 0 1-.5.1l-.4.4a3.22 3.22 0 0 0-.4.7l-.4.7a2.8 2.8 0 0 1-.1.6c-.1.3-.1.6-.2.7v.3a4.18 4.18 0 0 1-.3.9 4.18 4.18 0 0 0-.3.9 5.07 5.07 0 0 1-.2.9 4.4 4.4 0 0 0-.1.9l-.2.7a2.25 2.25 0 0 0-.1.7 4.14 4.14 0 0 1-.6 2 13.3 13.3 0 0 1-1.4 1.9c-.5.5-.9 1.1-1.3 1.5s-.5.7-.3.9a.55.55 0 0 0-.3.5v1.81l-.5.39c0 .1-.2.1-.5.2a2.64 2.64 0 0 1-.7.1h-1.2c-.7 0-1 0-1.1-.1l-.2-.1c-.1-.1-.1-.1-.2-.1v-.4a.37.37 0 0 0-.1-.3 13.21 13.21 0 0 1 .3-1.3c.2-.8.4-1.7.6-2.6s.4-1.8.6-2.6a13.19 13.19 0 0 0 .3-1.3 5.76 5.76 0 0 1 .2-1 3.75 3.75 0 0 0 .1-.8v-3.5a2.64 2.64 0 0 0-.1-.7c-.1-.3-.1-.6-.2-.7s-.3-.6-.5-1.1a2.8 2.8 0 0 0-.5-1c0-.1-.2-.3-.4-.5l-.5-.5a6.57 6.57 0 0 1-1.2-.6 3.52 3.52 0 0 0-1-.4c0-.1-.2-.1-.6-.1h-1.6c-.3 0-.4 0-.5.1a9.52 9.52 0 0 1-2.8 1.8 25.83 25.83 0 0 0-3.1 1.3c-.1.1-.3.1-.7.2s-.6.1-.7.2l-3.1 3.1a2.74 2.74 0 0 0-.4.5 2.73 2.73 0 0 1-.4.5c-.2.5-.5 1.3-.9 2.3a6.91 6.91 0 0 0-.6 2.4l.6 7.6h.4a1.79 1.79 0 0 1 .8.4 6.42 6.42 0 0 0 1 .6c.1.2.4.4 1 .8s.9.6 1 .7a1.91 1.91 0 0 0 1 .4 5.31 5.31 0 0 1 1.1.3h1.4l1.4-.7a6.37 6.37 0 0 1 .9-.2c.5-.1.8-.1.9-.2a4.21 4.21 0 0 1 .5-.2l.5-.2h1c.1 0 .4.1.8.2a8.8 8.8 0 0 1 1.5.5l1.5.5c.5.1.7.2.8.2a8.33 8.33 0 0 1 1.2-.1c.2 0 .4-.1.7-.1h.5a3.52 3.52 0 0 0 1-.4 6.87 6.87 0 0 1 1.3-.6 3.93 3.93 0 0 0 .6-.2c.3-.1.4-.1.4-.2a5.91 5.91 0 0 1 .6-.4 5.5 5.5 0 0 0 .9-.7l1-.8a6 6 0 0 0 .7-.6c0-.08-.07-.23-.09-.45.31-.24.61-.49.89-.75a30.72 30.72 0 0 0 3.1-3.2c.1 0 .2-.1.4-.3s.3-.3.4-.3a6.12 6.12 0 0 1 .6-.5l1.2-.9a10.62 10.62 0 0 0 1.1-.9l1-1a8 8 0 0 0 .8-.6 7.37 7.37 0 0 1 .6-.5.49.49 0 0 1 .3.1.37.37 0 0 0 .3.1v.3c.1.2.1.2 0 .3a4.39 4.39 0 0 1-.1.9 7.72 7.72 0 0 1-.2 1.5l-.2 1.5a4.39 4.39 0 0 0-.1.9v.9a5.28 5.28 0 0 0-.1 1.3 13.62 13.62 0 0 0 .1 1.6 6.36 6.36 0 0 0 .3 1.5 11.06 11.06 0 0 0 .4 1.3 2.25 2.25 0 0 0 .5.5 7.37 7.37 0 0 0 .6.5 4.61 4.61 0 0 0 1.4.5c.8.2 1.4.4 1.7.5h.7a4.36 4.36 0 0 0 1.3-.5 11.3 11.3 0 0 0 1.5-.9l.5-.2a1.54 1.54 0 0 0 .6-.4c.3-.2.8-.6 1.4-1s.9-.7 1-.8l.7-.7c0-.1.2-.2.5-.4s.4-.3.5-.3l.4-.4.6-.7c.1.1.1.4.2.9s.1.8.2.9l.2.4s.1.3.2.4l.7.7c.3.3.6.5.7.6a6.38 6.38 0 0 1 .6.9l.7.9.7.2a2.25 2.25 0 0 0 .7.1h1.7a2 2 0 0 0 .7-.1c.3-.1.6-.1 1-.2a2.92 2.92 0 0 0 .9-.2 1.76 1.76 0 0 1 .6-.1 1 1 0 0 0 .5-.2 9.3 9.3 0 0 1 1-.5 5.36 5.36 0 0 0 1.1-.5 5.94 5.94 0 0 0 .8-.4 10.57 10.57 0 0 1 1-.7 7 7 0 0 0 1-.7 6.42 6.42 0 0 0 1-.6c.5-.3.7-.4.7-.5h1l.4.2.3.2c.1 0 .1.2.2.5s.1.4.2.5l2.4 2.4c.3.2.7.6 1.2 1s.9.7 1 .8l.8.2a6.37 6.37 0 0 1 .9.2h3.5c.1 0 .4-.2.8-.3a5.14 5.14 0 0 0 1-.4 1.1 1.1 0 0 1 .8 0c.3 0 .5.1.6 0a9.17 9.17 0 0 0 3.1-3.1 5 5 0 0 0 .9-3c-.1-.8-.6-1.2-1.6-1.2zm-70.5-10.5a5.73 5.73 0 0 1-.4.7l-.6.9-.6.9a5.74 5.74 0 0 0-.4.7 1.44 1.44 0 0 1-.2.3.6.6 0 0 0-.1.4l-.2.5a1.34 1.34 0 0 0-.1.5c0 .1-.1.2-.2.4s-.2.3-.2.4l-.2.9c-.1.5-.3 1.1-.4 1.7s-.3 1.1-.4 1.6-.2.7-.2.8-.2.3-.6.7-.6.5-.7.6h-1.8a14.88 14.88 0 0 1-1.7-.1.76.76 0 0 1-.4-.1c-.2-.1-.3-.1-.4-.2s-.3-.2-.7-.6v-.5c0-.3 0-.5-.4-.6v-1.1a4.13 4.13 0 0 0 .4-.9c.2-.5.5-1.1.8-1.8a5.52 5.52 0 0 1 .5-1.2 3.61 3.61 0 0 0 .4-.5c.3-.4.7-.9 1.1-1.5a5.28 5.28 0 0 0 .9-1.1c.1 0 .1-.1.2-.3s.1-.3.2-.4l.7-2.2.4-.4a1.74 1.74 0 0 0 .7-.3 1.4 1.4 0 0 0 .7-.4c.1-.1.3-.1.6-.2a1.34 1.34 0 0 1 .5-.1c0-.1.2-.1.4-.1h1c.2 0 .3 0 .4.1s.3.1.5.4a7.35 7.35 0 0 1 .5.6zm53.2 3.8a5.13 5.13 0 0 1-.1 1 1.09 1.09 0 0 1-.1.5c-.1.2-.1.4-.2.5a2.49 2.49 0 0 0-.5.7 6.83 6.83 0 0 1-.5.7l-1 1c-.4.4-.7.6-.8.7a5.76 5.76 0 0 1-.9.5c-.4.3-.9.5-1.4.8a10.93 10.93 0 0 1-1.5.8c-.5.2-.8.3-1 .4a5.13 5.13 0 0 0-1 .1 6.82 6.82 0 0 1-1.2.1 5.81 5.81 0 0 1-1 .1h-1a1.24 1.24 0 0 1-.2-.3.37.37 0 0 1-.1-.3h.2v-.6a1.34 1.34 0 0 1 .1-.5c.1-.3.1-.5.2-.6l.2-.4.2-.3 3.5-3.5a4.55 4.55 0 0 1 .9-.7 5.82 5.82 0 0 1 1.1-.7c0-.1.2-.2.6-.4a9.74 9.74 0 0 0 1.1-.5 3.7 3.7 0 0 0 1.1-.5 3.22 3.22 0 0 0 .7-.4l.5-.3a2.74 2.74 0 0 0 .5-.4c.1-.1.3-.1.5-.2a1.09 1.09 0 0 1 .5-.1c.2.2.3.2.3.3l.2.7a2.25 2.25 0 0 1 .1.7zM392.9 114.2l-.4-.2a1.44 1.44 0 0 1-.6-.7 3 3 0 0 0-.8-.8 5.47 5.47 0 0 1-.7-1.3l1-.8a2.59 2.59 0 0 0 .6 1.4 2.76 2.76 0 0 0 .6.8l.5 2zm.8-9.9a1.09 1.09 0 0 1-.1.5 1.69 1.69 0 0 0-.2.5.76.76 0 0 1-.1.4c-.1.2-.2.3-.2.4l-.7-.4a4.07 4.07 0 0 0 .6-1.1l.7-.7zM407.3 102.1a3.64 3.64 0 0 0-1.4-1.4.76.76 0 0 1-.4-.1.76.76 0 0 0-.4.1 4.18 4.18 0 0 0-.9.3 18.87 18.87 0 0 1-1.8.6l-1.8.6a9.44 9.44 0 0 1-.9.3.19.19 0 0 1-.3 0 .49.49 0 0 0-.3-.1l-.1-.2c.1-.1.1-.3.2-.6a1.34 1.34 0 0 0 .1-.5c.1-.1.1-.2 0-.4v-.4a4.07 4.07 0 0 0 .2-1 5.81 5.81 0 0 0 .1-1v-1.8a3 3 0 0 0 .5-1.3v-.6l.2-.7v-2.2a.76.76 0 0 0-.1-.4 1.69 1.69 0 0 1-.2-.5.37.37 0 0 0-.4-.4 5.91 5.91 0 0 0-.6-.4h-1.4a.37.37 0 0 0-.3.1c-.2.1-.3.2-.4.2l-.4.4a2.18 2.18 0 0 0-.4.5l-.2.4c-.1.1-.1.4-.2.7a2.64 2.64 0 0 0-.1.7 2.19 2.19 0 0 0-.3.8 3.92 3.92 0 0 1-.4.9 2.8 2.8 0 0 0-.5 1.5 3.37 3.37 0 0 1-.8 1.6.76.76 0 0 1-.1.4c-.1.2-.2.3-.2.4l-.5.7c-.3.3-.6.7-1 1.1l-1.1 1.2-.8.8c-.1.1-.3.4-.8.9a3.61 3.61 0 0 0-.9.9l-8 6.9c-.4-.1-.5.1-.7.6l-.18.45h-.12a1.54 1.54 0 0 0-.6.4 2.93 2.93 0 0 1-.8.4 1 1 0 0 1-.6.2c-.1.1-.2.1-.5.1h-1.1a.75.75 0 0 1-.5-.1 3.35 3.35 0 0 1-2.6.1 1.89 1.89 0 0 1-1-1.3 5.1 5.1 0 0 1 .1-2.1 8.49 8.49 0 0 1 .9-2.2 11.06 11.06 0 0 0 .7-1.3c.4-.7.6-1.2.7-1.4a2 2 0 0 0 .2-.9 3 3 0 0 1 .2-1c.1-.1.1-.3.2-.7a2.25 2.25 0 0 0 .1-.7v-2.75l-.2-.7-.2-.7v-.4a5.34 5.34 0 0 0 .4-1.1 6.2 6.2 0 0 0 .3-1.1v-2.7l-.7-.7a2.15 2.15 0 0 0-.7-.4l-.7-.2c0-.2-.2-.3-.7-.3h-2.1c-.4 0-.6 0-.6.1a2.52 2.52 0 0 0-.9.4 6.38 6.38 0 0 0-.9.6 2.15 2.15 0 0 0-.4.7 6.67 6.67 0 0 1-.3.7v2.8a5 5 0 0 0 .5.7c.3.4.5.6.5.7l.2.4a.76.76 0 0 1 .1.4 6.39 6.39 0 0 1-.4 1c-.1.1-.1.2-.2.4s-.1.3-.2.4-.2.3-.4.5-.3.4-.4.5l-.4.4c-.2.2-.5.6-.9 1a4.42 4.42 0 0 0-.8.9 2.74 2.74 0 0 0-.4.5c-.2.3-.3.5-.4.5a4.55 4.55 0 0 0-.7.9c-.4.5-.6.8-.8.9a6 6 0 0 0-.6.7 1.79 1.79 0 0 0-.5.7l-2.41 2.49-.09.07a5.26 5.26 0 0 0-.49.33c-.7.6-1.2.9-1.4 1.1s-.3.2-.5.4a1.08 1.08 0 0 1-.7.3 2.8 2.8 0 0 1-1 .5 4.34 4.34 0 0 0-1 .5 4.2 4.2 0 0 1-.5.2l-.5.3a.76.76 0 0 0-.4.1c-.2.1-.3.1-.4.2a4.33 4.33 0 0 1-.5.1.75.75 0 0 0-.5.1 6.37 6.37 0 0 1-.9.2c-.5.1-.7.1-.8.2a1.09 1.09 0 0 0-.5.1.76.76 0 0 1-.4.1l-.2.1c-.1 0-.1 0-.2-.1a1 1 0 0 1-.4-.1 1.34 1.34 0 0 0-.5-.1c0-.1-.3-.2-.7-.3l-.7-.2c-.3-.1-.5-.5-.5-1.2s-.1-1-.2-1.1a2.74 2.74 0 0 1-.4-.5 1.55 1.55 0 0 1-.3-.6c-.1 0-.1-.1-.1-.2v-.8c0-.2 0-.3.1-.3a1.34 1.34 0 0 1 .1-.5c.1-.3.1-.5.2-.6l.4-.7a3.22 3.22 0 0 0 .8-.1 8.67 8.67 0 0 0 1-.2h.5c.3 0 .6-.1 1-.1a3.08 3.08 0 0 0 1-.1 1.76 1.76 0 0 1 .6-.1 4.39 4.39 0 0 0 .9-.1 3.75 3.75 0 0 1 .8-.1c.1-.1.4-.2.8-.5a6.42 6.42 0 0 1 1-.6 5.94 5.94 0 0 1 .6-.4c.3-.1.4-.2.4-.3a10 10 0 0 0 1.2-1.1l.9-.9.4-1.1c.2-.5.4-1 .5-1.3a6.4 6.4 0 0 0 .5-1.5 6.57 6.57 0 0 0 .3-1.3 10.3 10.3 0 0 0 .1-1.3v-1.59a3.87 3.87 0 0 0-.1-.9c-.1-.5-.1-.8-.2-.9a7.91 7.91 0 0 0-.4-1.3 3.83 3.83 0 0 0-.5-1.1l-.4-.4a1.38 1.38 0 0 1-.4-.3h-1.2a7.5 7.5 0 0 0-1.2.1 2.64 2.64 0 0 0-.7.1c-.3.1-.6.1-.7.2s-.4.2-1 .4a4.34 4.34 0 0 0-1 .5c0 .1-.2.2-.6.5a3.28 3.28 0 0 1-.8.6c-.2.3-.3.4-.4.4l-.4.4-.8.6a5.54 5.54 0 0 0-.8.6l-.4.4a.37.37 0 0 1-.4.4 2.73 2.73 0 0 1-.5.4 5.91 5.91 0 0 0-.6.4l-.4.4c-.2.2-.3.3-.3.4s-.2.2-.4.6l-.4.7c-.1 0-.1.2-.2.5s-.1.4-.2.5a6.66 6.66 0 0 0-.3.7 2.15 2.15 0 0 1-.4.7c-.1.1-.2.3-.4.5a2.74 2.74 0 0 1-.4.5 4.3 4.3 0 0 0-.7.7 4.3 4.3 0 0 0-.7.7v3.6a2.77 2.77 0 0 1-.1.9l-.1.9v.5h.2v3.4a1.34 1.34 0 0 0 .1.5c.1.3.1.5.2.6a.49.49 0 0 0 .1.3l.2.3a5 5 0 0 0 .5.7 5 5 0 0 1 .5.7 3.4 3.4 0 0 0 1.2 2 5.48 5.48 0 0 0 2.3 1.1 25 25 0 0 0 2.9.5c1 .1 2 .1 3 .1a8.15 8.15 0 0 0 .9-.2 5.13 5.13 0 0 0 1-.4 2.19 2.19 0 0 1 .8-.3c.4-.2.7-.2.8-.3l.8-.3a1.92 1.92 0 0 0 .8-.4c.1-.2.5-.4 1.1-.8l.7-.45v-.16.16a5.78 5.78 0 0 0 .59-.25 11.73 11.73 0 0 0 1.1-.5l.7-.4.5-.7c.29-.29.39-.49.39-.59l.9-.9c1.6-1.6 2.8-2.7 3.6-3.5a9.68 9.68 0 0 0 1.8-1.9v2.9h.5a2.72 2.72 0 0 0-.6 1.7 5.84 5.84 0 0 0 .2 1.9 12.67 12.67 0 0 0 .6 1.8 7.38 7.38 0 0 0 .8 1.3l.4.4a3.26 3.26 0 0 0 1.3.3 7.81 7.81 0 0 1 1.9.4 2.82 2.82 0 0 1 1.1.4 1.88 1.88 0 0 0 .8.2h2.5a2.6 2.6 0 0 0 .7-.3 6.89 6.89 0 0 1 1-.4l.4-.2c.3.2 1-.1 2.1-.7l2-2.2a10.54 10.54 0 0 0 .8-.9c.4-.4.6-.7.8-.9a2.26 2.26 0 0 1 1-.3c.5-.1.9-.1 1.1-.3a1.38 1.38 0 0 0 .4.3l.4.4.7 1.1c.3.6.6 1 .7 1.3a2.31 2.31 0 0 0 .5.7l.9.9a6.47 6.47 0 0 0 .9.8 3.81 3.81 0 0 1 .6.5.86.86 0 0 0 .6.3 11.56 11.56 0 0 0 1.7-.1 4.36 4.36 0 0 0 1.2-.2l.6-.7v-3.41a3.25 3.25 0 0 0 .3-1.3 7.55 7.55 0 0 1 .4-1.5l.2-.5a12047 12047 0 0 1 .8-1.8 3.94 3.94 0 0 0 .2-.6 4.93 4.93 0 0 1 1.2-.4c.7-.2 1.4-.5 2.2-.8s1.5-.6 2.2-.8l1.2-.4c.1 0 .1 0 .2-.1s.1-.2.2-.2l1.3-1.1a3.33 3.33 0 0 0 1-1.1 1.9 1.9 0 0 0 .11-1.3zm-59.7-1.9a8.66 8.66 0 0 1 .5-1.2 5.91 5.91 0 0 0 .4-.6 2.73 2.73 0 0 1 .4-.5l.6-.4a8 8 0 0 1 .8-.6c.1 0 .2-.1.5-.3a2.73 2.73 0 0 0 .5-.4 2.49 2.49 0 0 1 .7-.5 6.83 6.83 0 0 0 .7-.5c.2-.3.3-.4.4-.4h.4c0 .1 0 .1.1.2l.2.2v2.5c0 .1-.2.4-.3.8a5.13 5.13 0 0 1-.4 1 .76.76 0 0 1-.2.4.37.37 0 0 0-.1.3l-.4.4c-.2.2-.3.3-.4.3s-.2.2-.6.4l-.7.4a3.93 3.93 0 0 0-.6.2 1.34 1.34 0 0 1-.5.1h-2.1c-.2 0-.3-.1-.3-.6a7.87 7.87 0 0 1 .4-1.2zM337.3 110.7c-.9 0-2.3.7-4.1 2.2-.1 0-.2.1-.4.2a.76.76 0 0 1-.4.1c-.3.1-.7.2-1.2.4a7.79 7.79 0 0 1-.9.3 2.64 2.64 0 0 1-.7-.1c-.3-.1-.6-.1-.7-.2s-.2-.1-.4-.3-.3-.4-.4-.5a9.21 9.21 0 0 0-.5-.8l-.7-1-.6-.9c-.2-.3-.3-.4-.3-.5a5.07 5.07 0 0 0-.2-.9 4.4 4.4 0 0 1-.1-.9 1.34 1.34 0 0 1 .1-.5c.1-.3.1-.5.2-.6a8.13 8.13 0 0 0 .5-1c.3-.5.4-.9.5-1a5.34 5.34 0 0 0 .4-1.1 5.34 5.34 0 0 1 .4-1.1 1.07 1.07 0 0 0 .3-.5 3.55 3.55 0 0 1 .4-.9l.4-.9.3-.5a3.93 3.93 0 0 1 .2-.6 1.34 1.34 0 0 0 .1-.5 3.22 3.22 0 0 0-.1-.8 6.38 6.38 0 0 0-.2-.9c0-.1-.1-.2-.2-.4s-.2-.3-.2-.4v-1.4a4.18 4.18 0 0 1 .3-.9 4 4 0 0 1 .4-1.2.76.76 0 0 1 .1-.4c.1-.2.1-.3.2-.4a6.2 6.2 0 0 1 .3-1.1c.2-.5.3-1 .4-1.3l.2-.7a2.25 2.25 0 0 0 .1-.7l.4-1.1a2.19 2.19 0 0 1 .3-.9 6.42 6.42 0 0 1 .5-1.1l.5-1.1c.1-.2.2-.5.4-.9a5.36 5.36 0 0 0 .5-1.1 6.9 6.9 0 0 0 .4-1l.2-.5c.1 0 .1-.1.1-.4v-1.3c0-.3 0-.5-.1-.6l-.3-.4a1.38 1.38 0 0 0-.3-.4 2.49 2.49 0 0 0-.7-.5l-.7-.4c-.1-.1-.1-.1-.2-.1l-.2.1a6.83 6.83 0 0 0-.5.7 2.49 2.49 0 0 1-.5.7.76.76 0 0 1-.1.4.76.76 0 0 0-.1.4l-.4.4c-.2.2-.3.3-.3.4l-.5.9c-.3.5-.5.9-.6 1.1a9.19 9.19 0 0 1-.3.9 3.92 3.92 0 0 1-.4.9 1.34 1.34 0 0 1-.1.5c-.1.3-.1.4-.2.5l-.7 1.1-.7 1.1c-.1.1-.1.3-.2.6a4.4 4.4 0 0 1-.2 1c-.1.4-.1.7-.2 1a1.34 1.34 0 0 0-.1.5l-.4 1.1a6.39 6.39 0 0 1-.4 1l-.4.8-.6 1.3a8.27 8.27 0 0 0-.7 1.3c-.2.4-.3.7-.4.9s0 .1-.1.2l-.2.2a8 8 0 0 0-.8.6 7.37 7.37 0 0 1-.6.5 1.34 1.34 0 0 0-.5.1c-.3.1-.4.1-.5.2a2.6 2.6 0 0 0-.7.3 1.74 1.74 0 0 1-.7.3l-.5.2a1.34 1.34 0 0 1-.5.1 1.44 1.44 0 0 0-.3.2.6.6 0 0 1-.4.1 2.73 2.73 0 0 1-.5.4 2.74 2.74 0 0 0-.5.4.76.76 0 0 0-.4.2.37.37 0 0 1-.3.1h-.8a3.68 3.68 0 0 0-1-.4 4.28 4.28 0 0 0-1-.3.49.49 0 0 0-.3.1l-.4.2a1.54 1.54 0 0 1-.6.4 1.07 1.07 0 0 0-.5.3l-.9.7-1.5 1.2c-.6.5-1.1.8-1.5 1.2a4.55 4.55 0 0 0-.9.7 1 1 0 0 1-.2.15 5.84 5.84 0 0 1-.51.33l-.19.12-.9.5a3.61 3.61 0 0 0-.9.9l-.9.9a4.55 4.55 0 0 1-.9.7l-.9.7c-.1 0-.2.1-.4.2a.76.76 0 0 1-.4.1 3.63 3.63 0 0 0-.9.7 4.55 4.55 0 0 0-.9.7l-.5.1c-.3.1-.4.1-.5.2s-.2.1-.4.3-.3.3-.4.3l-.5.2a1.34 1.34 0 0 1-.5.1c-.1.1-.2.1-.4.2s-.3.1-.4.2c-.3.3-.57.59-.8.86l-.1-.26a1.76 1.76 0 0 1-.1-.6v-2.8a3.44 3.44 0 0 1 .1-.9 6.37 6.37 0 0 1 .2-.9c0-.1.2-.5.3-1a3.18 3.18 0 0 1 .4-1.1.76.76 0 0 1 .1-.4c.1-.2.1-.3.2-.4v-6.3c0-.1-.1-.2-.3-.5a1.54 1.54 0 0 0-.4-.6c-.1 0-.1-.1-.2-.2s-.1-.1-.2-.1h-.7a10.51 10.51 0 0 0-1.3.2 6.61 6.61 0 0 1-1.1.1.49.49 0 0 0-.3.1l-.4.2a2.74 2.74 0 0 1-.5.4 2.73 2.73 0 0 0-.5.4 5.91 5.91 0 0 1-.6.4 4.69 4.69 0 0 0-.9.6 5.49 5.49 0 0 1-.9.7 2.74 2.74 0 0 0-.5.4 2.15 2.15 0 0 1-.7.4 1.54 1.54 0 0 0-.7.3h-.7a11.8 11.8 0 0 0-.1-1.6 10.78 10.78 0 0 0-.2-1.6 1.6 1.6 0 0 0-.3-.8 1.34 1.34 0 0 0-.8-.7.49.49 0 0 1-.3-.1l-.3-.2h-.4a3.94 3.94 0 0 0-.6.2 1.34 1.34 0 0 1-.5.1l-.4.4a3.22 3.22 0 0 0-.4.7l-.4.7a2.8 2.8 0 0 1-.1.6c-.1.3-.1.6-.2.7v.3a4.18 4.18 0 0 1-.3.9 4.18 4.18 0 0 0-.3.9 5.08 5.08 0 0 1-.2.9 4.39 4.39 0 0 0-.1.9l-.2.7a2.25 2.25 0 0 0-.1.7 4.14 4.14 0 0 1-.6 2 13.31 13.31 0 0 1-1.4 1.9c-.5.5-.9 1.1-1.3 1.5s-.5.7-.3.9a.55.55 0 0 0-.3.5h-.2c-.1 0-.3.2-.7.5a7.35 7.35 0 0 1-.6.5c-.1.1-.3.1-.5.2s-.3.1-.4.2l-1.1.4a5.34 5.34 0 0 0-1.1.4 1.69 1.69 0 0 0-.5.2.76.76 0 0 1-.4.1h-.6a1.09 1.09 0 0 1-.5-.1 1.09 1.09 0 0 1-.5-.1c-.2-.1-.4-.1-.5-.2s-.3-.1-.5-.5a1.26 1.26 0 0 1-.4-.7 2.53 2.53 0 0 1-.1-1.1v-2.3c0-.6 0-.9.1-1a7.35 7.35 0 0 0 .2-.8 8.35 8.35 0 0 1 .4-1.2c.1-.2.2-.6.4-1a2.6 2.6 0 0 0 .3-.7 10.67 10.67 0 0 0 1-1.4 13.47 13.47 0 0 0 1.3-2.1c.3-.5.5-.9.6-1.1a1.88 1.88 0 0 0 .2-.8 8.92 8.92 0 0 1 .2-1.1 4.4 4.4 0 0 0 .1-.9 2.73 2.73 0 0 0-.4-.5c0-.1-.2-.3-.3-.5a1.69 1.69 0 0 1-.2-.5l-.4-.4h-.4a2.46 2.46 0 0 0-1.1.4 1.26 1.26 0 0 1-.7.4 3.81 3.81 0 0 0-.5.6 5.92 5.92 0 0 1-.4.6 5.2 5.2 0 0 1-.3.5 8.8 8.8 0 0 0-.6 1l-.7 1.2a9 9 0 0 0-.5.9.76.76 0 0 1-.1.4c-.1.2-.1.3-.2.4a2.33 2.33 0 0 1-.7 1.1 7.29 7.29 0 0 1-.9 1c-.1 0-.2.1-.4.4l-.6.9-.6.9c-.2.3-.3.4-.4.4a1.38 1.38 0 0 0-.3.4 1 1 0 0 0-.7.4 8.18 8.18 0 0 1-1 1.1 2.84 2.84 0 0 0-.9 1 1.78 1.78 0 0 1-.8.7c-.3.3-.8.6-1.3 1s-1 .7-1.3.9a1.44 1.44 0 0 0-.3.2.37.37 0 0 1-.3.1 4.07 4.07 0 0 0-.7.2 2.64 2.64 0 0 1-.7.1h-.3a8.47 8.47 0 0 0-.1-1.3 2.71 2.71 0 0 1 0-1.3 10 10 0 0 1 .4-1.1 9.33 9.33 0 0 0 .5-1.4 4.93 4.93 0 0 1 .4-1.2c0-.1.1-.2.2-.4a.76.76 0 0 0 .1-.4c.1-.1.1-.2.2-.5a1.34 1.34 0 0 0 .1-.5 10.6 10.6 0 0 0 .7-1c.4-.5.7-.9.8-1a2.6 2.6 0 0 1 .3-.7 6.31 6.31 0 0 0 .4-.9 1.69 1.69 0 0 1 .2-.5 1.34 1.34 0 0 0 .1-.5v-.7a1.09 1.09 0 0 0-.1-.5c-.1-.3-.1-.4-.2-.5a3.49 3.49 0 0 0-.6-.9 4.35 4.35 0 0 0-.7-.4h-.4c-.1.1-.3.1-.5.2s-.3.1-.4.2l-.4.4c-.1.1-.2.3-.4.5s-.3.3-.3.4-.3.7-1 2a35.9 35.9 0 0 0-2.1 4.7 27.75 27.75 0 0 0-1.7 5.8 9.31 9.31 0 0 0 .3 5.3l.5.5a3.81 3.81 0 0 1 .6.5 1.44 1.44 0 0 1 .3.2.37.37 0 0 0 .3.1h2.8l2.7-1.3a3 3 0 0 0 .9-.6c.5-.3.8-.6 1-.7s.2-.1.4-.3l.9-.7a4.55 4.55 0 0 0 .9-.7c.2-.2.3-.3.3-.4a2.6 2.6 0 0 0 .7-.3l.3.3a10.47 10.47 0 0 0 3.8 4.7 6.88 6.88 0 0 0 6 .7 2.19 2.19 0 0 1 .9-.3 2.19 2.19 0 0 0 .9-.3l.9-.4a8.9 8.9 0 0 0 1-.5 2.49 2.49 0 0 1 .7-.5 6.81 6.81 0 0 0 .7-.5l.3-.3h.6c0-.1.2-.2.6-.4a25.08 25.08 0 0 0 3.7-2.7 30.72 30.72 0 0 0 3.1-3.2c.1 0 .2-.1.4-.3s.3-.3.4-.3a6.12 6.12 0 0 1 .6-.5l1.2-.9a10.62 10.62 0 0 0 1.1-.9l1-1a8 8 0 0 0 .8-.6 7.37 7.37 0 0 1 .6-.5.49.49 0 0 1 .3.1.37.37 0 0 0 .3.1v.3c.1.2.1.2 0 .3a4.39 4.39 0 0 1-.1.9 7.72 7.72 0 0 1-.2 1.5l-.2 1.5a4.39 4.39 0 0 0-.1.9v.9a3.18 3.18 0 0 1-.2 1.3 13.61 13.61 0 0 0 .1 1.6 6.36 6.36 0 0 0 .3 1.5 11.05 11.05 0 0 0 .4 1.3 2.25 2.25 0 0 0 .5.5 7.38 7.38 0 0 0 .6.5 4.61 4.61 0 0 0 1.4.5c.8.2 1.4.4 1.7.5h.7a4.36 4.36 0 0 0 1.3-.5 11.29 11.29 0 0 0 1.5-.9l.5-.2a1.54 1.54 0 0 0 .6-.4c.3-.2.8-.6 1.4-1s.9-.7 1-.8l.7-.7c0-.1.2-.2.5-.4s.4-.3.5-.3l.4-.4.6-.7h.2c.1.1.1.4.2.9s.1.8.2.9l.2.4s.1.3.2.4l.7.7c.3.3.6.5.7.6a6.38 6.38 0 0 1 .6.9l.7.9.7.2a2.25 2.25 0 0 0 .7.1h1.7a2 2 0 0 0 .7-.1c.3-.1.6-.1 1-.2a2.92 2.92 0 0 0 .9-.2 1.76 1.76 0 0 1 .6-.1 1 1 0 0 0 .5-.2 9.31 9.31 0 0 1 1-.5 5.36 5.36 0 0 0 1.1-.5 5.94 5.94 0 0 0 .8-.4 10.57 10.57 0 0 1 1-.7 7 7 0 0 0 1-.7 6.42 6.42 0 0 0 1-.6c.5-.3.7-.4.7-.5h1l.4.2.3.2c.1 0 .1.2.2.5s.1.4.2.5l2.4 2.4c.3.2.7.6 1.2 1s.9.7 1 .8l.8.2a6.37 6.37 0 0 1 .9.2h3.4c.1 0 .4-.2.8-.3a5.14 5.14 0 0 0 1-.4 1.1 1.1 0 0 1 .8 0c.3 0 .5.1.6 0a9.17 9.17 0 0 0 3.1-3.1 5 5 0 0 0 .9-3c-.1-.8-.6-1.2-1.6-1.2zm-17.2-6.7a5.13 5.13 0 0 1-.1 1 1.09 1.09 0 0 1-.1.5c-.1.2-.1.4-.2.5a2.49 2.49 0 0 0-.5.7 6.83 6.83 0 0 1-.5.7l-1 1c-.4.4-.7.6-.8.7a5.76 5.76 0 0 1-.9.5c-.4.3-.9.5-1.4.8a10.93 10.93 0 0 1-1.5.8c-.5.2-.8.3-1 .4a5.13 5.13 0 0 0-1 .1 6.82 6.82 0 0 1-1.2.1 5.81 5.81 0 0 1-1 .1h-1a1.24 1.24 0 0 1-.2-.3.37.37 0 0 1-.1-.3h.2v-.6a1.34 1.34 0 0 1 .1-.5c.1-.3.1-.5.2-.6l.2-.4.2-.3 3.5-3.5a4.55 4.55 0 0 1 .9-.7 5.82 5.82 0 0 1 1.1-.7c0-.1.2-.2.6-.4a9.74 9.74 0 0 0 1.1-.5 3.7 3.7 0 0 0 1.1-.5 3.21 3.21 0 0 0 .7-.4l.5-.3a2.74 2.74 0 0 0 .5-.4c.1-.1.3-.1.5-.2a1.09 1.09 0 0 1 .5-.1c.2.2.3.2.3.3l.2.7a2.25 2.25 0 0 1 .1.7zM216.8 111.9a5 5 0 0 1-.9 3 9.17 9.17 0 0 1-3.1 3.1c-.1.1-.3 0-.6 0a1.1 1.1 0 0 0-.8 0 5.14 5.14 0 0 1-1 .4c-.4.1-.7.3-.8.3h-3.1a6.37 6.37 0 0 0-.9-.2c-.4-.1-.7-.1-.8-.2s-.4-.3-1-.8-.9-.8-1.2-1l-2.4-2.4c-.1-.1-.1-.2-.2-.5s-.1-.5-.2-.5l-.3-.2-.4-.2h-1c0 .1-.2.2-.7.5a6.42 6.42 0 0 1-1 .6 7 7 0 0 1-1 .7 10.57 10.57 0 0 0-1 .7 2.93 2.93 0 0 1-.8.4 5.36 5.36 0 0 1-1.1.5 9.3 9.3 0 0 0-1 .5 1 1 0 0 1-.5.2 1.76 1.76 0 0 0-.6.1 2.92 2.92 0 0 1-.9.2c-.4.1-.7.1-1 .2a2 2 0 0 1-.7.1h-1.7a2.25 2.25 0 0 1-.7-.1l-.7-.2-.7-.9a6.38 6.38 0 0 0-.6-.9c-.1-.1-.4-.3-.7-.6l-.7-.7c-.1-.1-.1-.2-.2-.4s-.1-.3-.2-.4-.1-.4-.2-.9-.1-.8-.2-.9h-.5l-.6.7-.4.4c-.1 0-.2.1-.5.3s-.5.3-.5.4l-.7.7c-.1.1-.4.3-1 .8s-1.1.8-1.4 1a1.54 1.54 0 0 1-.6.4l-.5.2a11.3 11.3 0 0 1-1.5.9 4.36 4.36 0 0 1-1.3.5h-.7c-.3-.1-.9-.3-1.7-.5a4.61 4.61 0 0 1-1.4-.5 7.37 7.37 0 0 1-.6-.5 2.25 2.25 0 0 1-.5-.5 11.06 11.06 0 0 1-.4-1.3 6.36 6.36 0 0 1-.3-1.5 13.62 13.62 0 0 1-.1-1.6c.1-.5.1-.9.2-1.3v-.9a4.4 4.4 0 0 1 .1-.9l.2-1.5a7.72 7.72 0 0 0 .2-1.5 4.4 4.4 0 0 0 .1-.9c.1-.1.1-.1 0-.3v-.3a.37.37 0 0 1-.3-.1.49.49 0 0 0-.3-.1 7.36 7.36 0 0 0-.6.5 8 8 0 0 1-.8.6l-.4.4-.6.6a10.62 10.62 0 0 1-1.1.9l-1.2.9a6.11 6.11 0 0 0-.6.5c-.1 0-.2.1-.4.3s-.3.3-.4.3a30.71 30.71 0 0 1-3.1 3.2c-.28.26-.58.51-.89.75 0 .22.09.37.09.45a6 6 0 0 1-.7.6l-1 .8a5.49 5.49 0 0 1-.9.7 5.91 5.91 0 0 0-.6.4c0 .1-.1.1-.4.2a3.93 3.93 0 0 1-.6.2 6.87 6.87 0 0 0-1.3.6 3.52 3.52 0 0 1-1 .4h-.5c-.3 0-.5.1-.7.1a8.33 8.33 0 0 0-1.2.1c-.1 0-.3-.1-.8-.2l-1.5-.5a8.8 8.8 0 0 0-1.5-.5c-.4-.1-.7-.2-.8-.2h-.7l-.5.2a4.21 4.21 0 0 0-.5.2c-.1.1-.4.1-.9.2a6.37 6.37 0 0 0-.9.2l-1.4.7h-1.7a5.31 5.31 0 0 0-1.1-.3 1.91 1.91 0 0 1-1-.4c-.1-.1-.5-.3-1-.7s-.9-.6-1-.8a6.42 6.42 0 0 1-1-.6 1.79 1.79 0 0 0-.8-.4h-.4l-.6-7.6a6.92 6.92 0 0 1 .6-2.4c.4-1 .7-1.8.9-2.3a2.73 2.73 0 0 0 .4-.5 2.74 2.74 0 0 1 .4-.5l3.1-3.1c.1-.1.4-.1.7-.2s.6-.1.7-.2a25.83 25.83 0 0 1 3.1-1.3 9.52 9.52 0 0 0 2.8-1.8c.1-.1.2-.1.5-.1h1.6c.4 0 .6 0 .6.1a3.52 3.52 0 0 1 1 .4 6.57 6.57 0 0 0 1.2.6l.5.5c.2.2.4.4.4.5a2.8 2.8 0 0 1 .5 1c.2.5.4.9.5 1.1s.1.4.2.7a2.64 2.64 0 0 1 .1.7v3.5a3.75 3.75 0 0 1-.1.8 5.75 5.75 0 0 0-.2 1 13.21 13.21 0 0 1-.3 1.3c-.2.8-.4 1.6-.6 2.6s-.4 1.8-.6 2.6a13.19 13.19 0 0 0-.3 1.3.37.37 0 0 1 .1.3v.4c.1 0 .1 0 .2.1l.2.1c.1.1.4.1 1.1.1h1.2a2.64 2.64 0 0 0 .7-.1c.3-.1.5-.1.5-.2l.4-.31v-1.89a.55.55 0 0 1 .3-.5q-.3-.3.3-.9c.4-.4.8-1 1.3-1.5a13.3 13.3 0 0 0 1.4-1.9 4.14 4.14 0 0 0 .6-2 2.25 2.25 0 0 1 .1-.7l.2-.7a4.4 4.4 0 0 1 .1-.9 5.07 5.07 0 0 0 .2-.9 4.18 4.18 0 0 1 .3-.9 4.18 4.18 0 0 0 .3-.9v-.3c.1-.1.1-.4.2-.7a2.8 2.8 0 0 0 .1-.6l.4-.7a3.22 3.22 0 0 1 .4-.7l.4-.4a1.34 1.34 0 0 0 .5-.1 3.94 3.94 0 0 1 .6-.2h.4l.3.2a.49.49 0 0 0 .3.1 1.34 1.34 0 0 1 .8.7 1.6 1.6 0 0 1 .3.8 10.76 10.76 0 0 1 .2 1.6 11.8 11.8 0 0 1 .1 1.6h.7a1.54 1.54 0 0 1 .7-.3 2.15 2.15 0 0 0 .7-.4 2.73 2.73 0 0 1 .5-.4 5.5 5.5 0 0 0 .9-.7 4.69 4.69 0 0 1 .9-.6 5.92 5.92 0 0 0 .6-.4 2.73 2.73 0 0 1 .5-.4 2.74 2.74 0 0 0 .5-.4l.4-.2a.49.49 0 0 1 .3-.1 6.61 6.61 0 0 0 1.1-.1 10.51 10.51 0 0 1 1.3-.2h.7c.1 0 .1 0 .2.1s.1.2.2.2a1.54 1.54 0 0 1 .4.6c.2.3.3.4.3.5v6.3c-.1.1-.1.2-.2.4a.76.76 0 0 0-.1.4 3.18 3.18 0 0 0-.4 1.1 4.29 4.29 0 0 0-.3 1 6.38 6.38 0 0 0-.2.9 3.44 3.44 0 0 0-.1.9v2.8a1.76 1.76 0 0 0 .1.6l.07.18.13.32h.7c.1-.1.2-.1.4-.2a.76.76 0 0 1 .4-.1c.1-.1.2-.1.5-.2a1.34 1.34 0 0 1 .5-.1c.1-.1.3-.2.5-.4s.4-.3.5-.4l1.1-1.1a2.73 2.73 0 0 1 .5-.4 2.74 2.74 0 0 0 .5-.4 5 5 0 0 0 .7-.5l.7-.5c0-.1.1-.2.4-.4a4.55 4.55 0 0 1 .9-.7 8.78 8.78 0 0 0 .8-.7 8.7 8.7 0 0 1 1.4-1.2c.56-.46 1-.84 1.33-1.13l.12-.08a1.9 1.9 0 0 0 .25-.19 4.55 4.55 0 0 1 .9-.7c.4-.4.9-.7 1.5-1.2l1.5-1.2.9-.7a1.07 1.07 0 0 1 .5-.3 1.54 1.54 0 0 0 .6-.4l.4-.2a.49.49 0 0 1 .3-.1 4.28 4.28 0 0 1 1 .3 3.68 3.68 0 0 1 1 .4h.8a.37.37 0 0 0 .3-.1.76.76 0 0 1 .4-.2 2.74 2.74 0 0 1 .5-.4 2.73 2.73 0 0 0 .5-.4.6.6 0 0 0 .4-.1 1.44 1.44 0 0 1 .3-.2 1.34 1.34 0 0 0 .5-.1l.5-.2a1.74 1.74 0 0 0 .7-.3 2.6 2.6 0 0 1 .7-.3c.1-.1.2-.1.5-.2a1.34 1.34 0 0 1 .5-.1 7.37 7.37 0 0 0 .6-.5 8 8 0 0 1 .8-.6l.2-.2c.1-.1.1-.1.1-.2s.2-.5.4-.9a8.27 8.27 0 0 1 .7-1.3l.6-1.3.4-.8a6.39 6.39 0 0 0 .4-1l.4-1.1a1.34 1.34 0 0 1 .1-.5c.1-.3.1-.6.2-1a4.4 4.4 0 0 0 .2-1c.1-.3.1-.5.2-.6l.7-1.1.7-1.1c.1-.1.1-.2.2-.5a1.34 1.34 0 0 0 .1-.5 3.92 3.92 0 0 0 .4-.9 9.2 9.2 0 0 0 .3-.9c.1-.2.3-.6.6-1.1l.5-.9c0-.1.1-.2.3-.4l.4-.4a.76.76 0 0 1 .1-.4.76.76 0 0 0 .1-.4 2.49 2.49 0 0 0 .5-.7 6.81 6.81 0 0 1 .5-.7l.2-.1c.1 0 .1 0 .2.1l.7.4a2.49 2.49 0 0 1 .7.5 1.38 1.38 0 0 1 .3.4l.3.4c.1.1.1.3.1.6v1.3c0 .3 0 .4-.1.4l-.2.5a6.89 6.89 0 0 1-.4 1l-.4 1.1c-.2.4-.3.7-.4.9l-.5 1.1a6.41 6.41 0 0 0-.5 1.1 2.19 2.19 0 0 0-.3.9l-.4 1.1a2.25 2.25 0 0 1-.1.7l-.2.7c-.1.3-.2.8-.4 1.3a6.2 6.2 0 0 0-.3 1.1c-.1.1-.1.2-.2.4a.76.76 0 0 0-.1.4 4 4 0 0 0-.4 1.2 4.18 4.18 0 0 0-.3.9v1.4c0 .1.1.2.2.4s.2.3.2.4a6.36 6.36 0 0 1 .2.9 3.22 3.22 0 0 1 .1.8 1.34 1.34 0 0 1-.1.5 3.94 3.94 0 0 0-.2.6 1.07 1.07 0 0 0-.3.5l-.4.9a3.55 3.55 0 0 0-.4.9 1.07 1.07 0 0 1-.3.5 5.33 5.33 0 0 0-.4 1.1 5.34 5.34 0 0 1-.4 1.1c-.1.1-.2.5-.5 1a8.14 8.14 0 0 1-.5 1c-.1.1-.1.3-.2.6a1.34 1.34 0 0 0-.1.5 4.39 4.39 0 0 0 .1.9 5.08 5.08 0 0 1 .2.9c0 .1.1.2.3.5l.6.9.7 1a9.21 9.21 0 0 1 .5.8c.1.1.2.3.4.5s.3.3.4.3.4.1.7.2a2.64 2.64 0 0 0 .7.1 7.79 7.79 0 0 0 .9-.3c.5-.2.9-.3 1.2-.4a.76.76 0 0 0 .4-.1c.2-.1.3-.2.4-.2 1.8-1.5 3.2-2.2 4.1-2.2s1.5.4 1.6 1.2z" fill="#fff"/><path d="M93.1 3h384.7m-384.7 169h384.7" stroke="#fff" stroke-width="6" fill="none"/></g></svg>