<svg xmlns="http://www.w3.org/2000/svg" xmlns:xlink="http://www.w3.org/1999/xlink" viewBox="0 0 241.7 124.5" enable-background="new 0 0 241.7 124.5"><defs><path id="a" d="M1.1-.2h239.5v123h-239.5z"/></defs><clipPath id="c"><use xlink:href="#a" overflow="visible"/></clipPath><defs><filter id="b" filterUnits="userSpaceOnUse" x="-7.9" y="-7.2" width="257.5" height="131"><feFlood result="back" flood-color="#fff" flood-opacity="1"/><feBlend in="SourceGraphic" in2="back"/></filter></defs><mask maskUnits="userSpaceOnUse" x="-7.9" y="-7.2" width="257.5" height="131" id="e"><g filter="url(#b)"><linearGradient id="d" gradientUnits="userSpaceOnUse" x1=".812" y1="150.201" x2="1.812" y2="150.201" gradientTransform="matrix(0 149.752 149.752 0 -22372.049 -148.504)"><stop offset="0" stop-color="#fff"/><stop offset=".477" stop-color="#fff"/><stop offset="1" stop-color="#BDBDBD"/></linearGradient><path clip-path="url(#c)" fill="url(#d)" d="M1.1-.2h239.5v123h-239.5z"/></g></mask><g clip-path="url(#c)" mask="url(#e)"><defs><path id="f" d="M-7.9-7.2h257.5v131h-257.5z"/></defs><clipPath id="g"><use xlink:href="#f" overflow="visible"/></clipPath><path clip-path="url(#g)" fill="#fff" d="M1.1-.2v123l119.8-29.3 119.7 29.3v-123z"/></g><defs><path id="h" d="M27.5 17.9h186.8v72.1h-186.8z"/></defs><clipPath id="i"><use xlink:href="#h" overflow="visible"/></clipPath><path clip-path="url(#i)" fill="#EC135D" d="M57.8 55.3v-6.6h-1.5v-1.4h1.5v-3.3h1.6v3.3h3.5v1.4h-3.5v6.4c0 1.3.7 1.8 1.8 1.8.6 0 1-.1 1.6-.4v1.5c-.6.3-1.2.5-2 .5-1.7-.1-3-.9-3-3.2M64.9 47.3h1.6v2.9c.8-1.8 2.4-3.1 4.5-3.1v1.8h-.1c-2.4 0-4.4 1.7-4.4 5v4.4h-1.6v-11zm6.4 7.8c0-2.4 1.9-3.6 4.7-3.6 1.4 0 2.4.2 3.4.5v-.4c0-2-1.2-3-3.3-3-1.3 0-2.3.3-3.3.8l-.5-1.4c1.2-.6 2.4-.9 4-.9 1.5 0 2.7.4 3.5 1.2.7.7 1.1 1.8 1.1 3.2v6.7h-1.6v-1.7c-.8 1-2 1.9-4 1.9-1.9.1-4-1.1-4-3.3m8.1-.9v-1.1c-.8-.2-1.9-.5-3.2-.5-2.1 0-3.2.9-3.2 2.3s1.3 2.2 2.8 2.2c1.9.1 3.6-1.1 3.6-2.9M83.6 47.3h1.6v1.9c.7-1.2 1.9-2.2 3.8-2.2 2.7 0 4.2 1.8 4.2 4.4v6.8h-1.6v-6.4c0-2-1.1-3.3-3-3.3s-3.3 1.4-3.3 3.4v6.3h-1.6v-10.9zm11.3 9.6l.8-1.2c1.2.9 2.5 1.4 3.8 1.4 1.3 0 2.3-.7 2.3-1.7 0-1.1-1.3-1.5-2.7-1.9-1.7-.5-3.6-1.1-3.6-3.1 0-1.9 1.6-3.1 3.7-3.1 1.3 0 2.8.5 3.9 1.2l-.7 1.2c-1-.7-2.2-1.1-3.2-1.1-1.3 0-2.1.7-2.1 1.6 0 1 1.4 1.4 2.8 1.9 1.7.5 3.5 1.2 3.5 3.1 0 2.1-1.7 3.3-3.9 3.3-1.7 0-3.4-.6-4.6-1.6M105.5 43.1h1.9v1.8h-1.9v-1.8zm.2 4.2h1.6v11h-1.6v-11zm5.1 8v-6.6h-1.5v-1.4h1.5v-3.3h1.6v3.3h3.5v1.4h-3.5v6.4c0 1.3.7 1.8 1.8 1.8.6 0 1-.1 1.6-.4v1.5c-.6.3-1.2.5-2 .5-1.7-.1-3-.9-3-3.2M118 43.1h1.9v1.8h-1.9v-1.8zm.1 4.2h1.6v11h-1.6v-11zm3.9 5.5c0-3.1 2.4-5.8 5.7-5.8 3.3 0 5.7 2.6 5.7 5.7s-2.4 5.7-5.8 5.7c-3.2.1-5.6-2.5-5.6-5.6m9.8 0c0-2.4-1.8-4.3-4.1-4.3-2.4 0-4 1.9-4 4.2 0 2.4 1.7 4.3 4.1 4.3 2.3 0 4-1.9 4-4.2M135.6 47.3h1.6v1.9c.7-1.2 1.9-2.1 3.8-2.1 2.7 0 4.2 1.8 4.2 4.4v6.8h-1.6v-6.4c0-2-1.1-3.3-3-3.3s-3.3 1.4-3.3 3.4v6.3h-1.6v-11zm14.7 7.7c0-2.5 1.9-3.6 4.6-3.6 1.3 0 2.1.2 3 .5v-.3c0-1.6-1-2.4-2.8-2.4-1.3 0-2.2.3-3.2.7l-.7-2c1.2-.6 2.4-.9 4.2-.9 1.7 0 2.9.4 3.7 1.3.8.8 1.2 2 1.2 3.5v6.6h-2.5v-1.4c-.8.9-1.9 1.6-3.7 1.6-2-.1-3.8-1.3-3.8-3.6m7.6-.8v-.8c-.7-.3-1.5-.4-2.5-.4-1.7 0-2.6.7-2.6 1.9 0 1.1 1 1.7 2.2 1.7 1.7 0 2.9-1 2.9-2.4M162.6 47h2.6v1.7c.7-1 1.8-2 3.5-2 2.5 0 4 1.7 4 4.3v7.2h-2.6v-6.4c0-1.7-.9-2.7-2.4-2.7s-2.5 1-2.5 2.8v6.3h-2.6v-11.2zm12.3 13.4l1-1.9c1.2.7 2.5 1.2 4 1.2 2.3 0 3.5-1.2 3.5-3.4v-.9c-.9 1.2-2.1 2.1-3.9 2.1-2.6 0-5.1-2-5.1-5.2 0-3.3 2.5-5.3 5.1-5.3 1.9 0 3.1.9 3.9 1.9v-1.9h2.6v9c0 1.9-.5 3.3-1.4 4.2-1 1-2.6 1.5-4.6 1.5-1.9 0-3.7-.5-5.1-1.3m8.5-8.3c0-1.9-1.5-3.1-3.3-3.1-1.8 0-3.2 1.2-3.2 3.1 0 1.8 1.4 3.1 3.2 3.1 1.8 0 3.3-1.3 3.3-3.1M187.7 52.7c0-3.2 2.3-5.9 5.5-5.9 3.6 0 5.4 2.8 5.4 6v.7h-8.2c.3 1.8 1.6 2.8 3.2 2.8 1.3 0 2.1-.5 3-1.3l1.5 1.3c-1.1 1.3-2.5 2.1-4.6 2.1-3.3.1-5.8-2.2-5.8-5.7m8.3-.8c-.2-1.7-1.1-2.9-2.8-2.9-1.6 0-2.7 1.2-2.9 2.9h5.7zm4.4-9.1h2.6v15.5h-2.6zm4.2 14l1.1-1.7c1.2.9 2.5 1.4 3.7 1.4 1.1 0 1.7-.5 1.7-1.2 0-.9-1.2-1.2-2.5-1.6-1.7-.5-3.5-1.1-3.5-3.3 0-2.1 1.8-3.4 4-3.4 1.4 0 2.9.5 4.1 1.3l-1 1.8c-1.1-.7-2.2-1.1-3.2-1.1s-1.6.5-1.6 1.1c0 .8 1.2 1.2 2.5 1.6 1.6.5 3.5 1.3 3.5 3.3 0 2.4-1.8 3.5-4.2 3.5-1.4 0-3.2-.6-4.6-1.7"/><defs><path id="j" d="M33.1 26.5c-2 3.4-3 5.9-3.7 11.7-.7 5.9 1.1 11.6 3.2 16.5s3.8 7.4 7.8 11.4l24.6 23.6 16-15.4-4.5-5-11.6 11.3-14.8-14.4s-7.5-7.4-8.9-9.6c-1.3-2.2-5-7.3-5.6-16.1-.6-8.8 5.6-12.8 5.6-12.8s7.2-5 14.5.5c0 0 4.9 2.9 9.3 10.4 0 0 3.9-6.3 8.2-9.6 4.3-3.4 7.5-3.9 12.2-2.8 4.8 1 8.9 6.2 8.8 12.4h6.4s.4-3.4-1.4-7.9c-1.8-4.5-4.4-7.8-9.1-10.1-4.7-2.3-10.3-2.6-14.7-.8-4.5 1.8-7.1 4.2-10.4 8.8 0 0-4.2-7.9-13.6-9.7-1.1-.2-2.3-.3-3.3-.3-7.8-.1-13.2 4.9-15 7.9"/></defs><clipPath id="k"><use xlink:href="#j" overflow="visible"/></clipPath><linearGradient id="l" gradientUnits="userSpaceOnUse" x1=".836" y1="151.195" x2="1.836" y2="151.195" gradientTransform="matrix(77.481 49.588 49.588 -77.481 -7561.906 11685.828)"><stop offset="0" stop-color="#8B0B42"/><stop offset="1" stop-color="#EC135D"/></linearGradient><path clip-path="url(#k)" fill="url(#l)" d="M49.7-14.9l83.8 53.7-53.6 83.7-83.8-53.6z"/><defs><path id="m" d="M66.6 66.2v6.5h6.9l-.7 2.2 2.7 3.1 1.8.2v7.3h6.2v-19.3z"/></defs><clipPath id="n"><use xlink:href="#m" overflow="visible"/></clipPath><linearGradient id="o" gradientUnits="userSpaceOnUse" x1=".836" y1="151.227" x2="1.836" y2="151.227" gradientTransform="matrix(77.486 49.591 49.591 -77.486 -7571.042 11700.082)"><stop offset="0" stop-color="#9D2043"/><stop offset=".961" stop-color="#E9145C"/><stop offset="1" stop-color="#EC135D"/></linearGradient><path clip-path="url(#n)" fill="url(#o)" d="M71.5 58.5l20.7 13.3-13.6 21.3-20.8-13.3z"/><defs><path id="p" d="M27.5 17.9h186.8v72.1h-186.8z"/></defs><clipPath id="q"><use xlink:href="#p" overflow="visible"/></clipPath><path clip-path="url(#q)" fill="#fff" d="M63.9 193.7v-6h-1.4v-1.3h1.4v-3h1.5v3h3.1v1.3h-3.1v5.8c0 1.2.7 1.6 1.7 1.6.5 0 .9-.1 1.4-.3v1.3c-.5.3-1.1.4-1.8.4-1.6 0-2.8-.8-2.8-2.8M70.4 186.4h1.5v2.6c.7-1.6 2.2-2.8 4-2.8v1.6h-.1c-2.2 0-3.9 1.6-3.9 4.5v3.9h-1.5v-9.8zm5.7 7c0-2.1 1.7-3.2 4.2-3.2 1.3 0 2.2.2 3 .4v-.3c0-1.8-1.1-2.7-3-2.7-1.2 0-2.1.3-3 .7l-.4-1.2c1.1-.5 2.2-.8 3.6-.8s2.5.4 3.2 1.1c.7.7 1 1.6 1 2.9v6.1h-1.4v-1.5c-.7.9-1.8 1.7-3.6 1.7-1.7-.1-3.6-1.1-3.6-3.2m7.3-.7v-1c-.7-.2-1.7-.4-2.9-.4-1.9 0-2.9.8-2.9 2.1 0 1.2 1.2 2 2.5 2 1.8-.1 3.3-1.2 3.3-2.7M87.2 186.4h1.5v1.7c.7-1.1 1.7-1.9 3.4-1.9 2.4 0 3.8 1.6 3.8 4v6.2h-1.5v-5.8c0-1.8-1-3-2.7-3-1.7 0-3 1.2-3 3.1v5.7h-1.5v-10zm10.2 8.6l.7-1.1c1.1.8 2.3 1.3 3.4 1.3 1.2 0 2.1-.6 2.1-1.6s-1.2-1.4-2.5-1.7c-1.6-.4-3.3-1-3.3-2.8 0-1.7 1.4-2.8 3.4-2.8 1.2 0 2.6.4 3.6 1.1l-.7 1.1c-.9-.6-2-1-2.9-1-1.2 0-1.9.6-1.9 1.4 0 .9 1.2 1.3 2.6 1.7 1.5.5 3.2 1.1 3.2 2.8 0 1.9-1.6 3-3.5 3-1.5.1-3.1-.5-4.2-1.4M107.1 182.6h1.7v1.6h-1.7v-1.6zm.1 3.8h1.5v9.9h-1.5v-9.9zm4.6 7.3v-6h-1.4v-1.3h1.4v-3h1.5v3h3.1v1.3h-3.1v5.8c0 1.2.7 1.6 1.7 1.6.5 0 .9-.1 1.4-.3v1.3c-.5.3-1.1.4-1.8.4-1.6 0-2.8-.8-2.8-2.8M118.3 182.6h1.7v1.6h-1.7v-1.6zm.1 3.8h1.5v9.9h-1.5v-9.9zm3.6 5c0-2.8 2.2-5.2 5.2-5.2s5.2 2.3 5.2 5.1-2.2 5.2-5.2 5.2c-3.1 0-5.2-2.3-5.2-5.1m8.8 0c0-2.2-1.6-3.9-3.7-3.9s-3.6 1.7-3.6 3.8c0 2.1 1.6 3.9 3.7 3.9s3.6-1.7 3.6-3.8M134.2 186.4h1.5v1.7c.6-1.1 1.7-1.9 3.4-1.9 2.4 0 3.8 1.6 3.8 4v6.2h-1.5v-5.8c0-1.8-1-3-2.7-3-1.7 0-3 1.2-3 3.1v5.7h-1.5v-10zm13.3 7c0-2.2 1.7-3.3 4.2-3.3 1.1 0 1.9.2 2.7.4v-.2c0-1.4-.9-2.2-2.5-2.2-1.1 0-2 .2-2.9.6l-.6-1.8c1.1-.5 2.2-.8 3.8-.8 1.5 0 2.6.4 3.4 1.1.7.7 1.1 1.8 1.1 3.1v6h-2.3v-1.3c-.7.8-1.7 1.5-3.3 1.5-1.9 0-3.6-1.1-3.6-3.1m6.9-.7v-.7c-.6-.2-1.4-.4-2.3-.4-1.5 0-2.4.6-2.4 1.7 0 1 .9 1.5 2 1.5 1.5 0 2.7-.8 2.7-2.1M158.6 186.2h2.3v1.6c.7-.9 1.6-1.8 3.2-1.8 2.3 0 3.6 1.5 3.6 3.9v6.5h-2.3v-5.8c0-1.6-.8-2.5-2.2-2.5-1.3 0-2.3.9-2.3 2.5v5.7h-2.3v-10.1zm11.1 12l.9-1.7c1.1.7 2.2 1.1 3.6 1.1 2.1 0 3.2-1.1 3.2-3.1v-.8c-.8 1.1-1.9 1.9-3.6 1.9-2.4 0-4.6-1.8-4.6-4.7 0-3 2.2-4.8 4.6-4.8 1.7 0 2.8.8 3.5 1.7v-1.5h2.3v8.1c0 1.7-.4 3-1.3 3.8-.9.9-2.3 1.4-4.2 1.4-1.5-.2-3.1-.6-4.4-1.4m7.7-7.5c0-1.7-1.4-2.8-3-2.8s-2.9 1.1-2.9 2.8c0 1.6 1.3 2.8 2.9 2.8 1.7 0 3-1.1 3-2.8M181.3 191.3c0-2.9 2.1-5.3 4.9-5.3 3.2 0 4.9 2.5 4.9 5.4v.7h-7.4c.2 1.6 1.4 2.6 2.9 2.6 1.1 0 1.9-.4 2.7-1.2l1.4 1.2c-1 1.2-2.3 1.9-4.1 1.9-3.1-.1-5.3-2.2-5.3-5.3m7.5-.8c-.2-1.5-1-2.7-2.6-2.7-1.4 0-2.4 1.1-2.6 2.7h5.2zm4-8.2h2.3v14h-2.3zm3.7 12.7l1-1.6c1.1.8 2.3 1.2 3.3 1.2s1.6-.4 1.6-1.1c0-.8-1.1-1.1-2.3-1.4-1.5-.4-3.2-1-3.2-3 0-1.9 1.6-3.1 3.6-3.1 1.3 0 2.6.4 3.7 1.2l-.9 1.6c-1-.6-2-1-2.9-1-.9 0-1.4.4-1.4 1 0 .7 1.1 1.1 2.3 1.4 1.5.5 3.1 1.1 3.1 3 0 2.1-1.6 3.2-3.8 3.2-1.2.1-2.8-.4-4.1-1.4m-99.7-16.5h5.7s.4-3.1-1.3-7.2c-1.7-4.1-4-7-8.2-9.1-4.2-2.1-9.3-2.3-13.3-.7-4 1.6-6.4 3.8-9.4 7.9 0 0-3.8-7.1-12.3-8.7-8.5-1.6-14.5 3.9-16.4 6.9-1.8 3.1-2.7 5.3-3.4 10.6-.7 5.3 1 10.4 2.9 14.9 1.9 4.4 3.4 6.7 7 10.3 3.6 3.6 22.3 21.3 22.3 21.3l14.6-13.9-4-4.5-10.6 10.2-13.4-13s-6.8-6.7-8-8.6c-1.2-2-4.5-6.6-5.1-14.5-.5-7.9 5.1-11.6 5.1-11.6s6.5-4.5 13.1.4c0 0 4.4 2.6 8.4 9.4 0 0 3.5-5.7 7.4-8.7 3.9-3 6.7-3.5 11-2.6 4.2.9 7.9 5.6 7.9 11.2"/><path clip-path="url(#q)" fill="#fff" d="M71.9 203.4v6h6.2l-.6 2 2.4 2.7 1.6.3v6.5h5.6v-17.5z"/></svg>