<?xml version="1.0" encoding="utf-8"?>
<!-- Generator: Adobe Illustrator 18.1.1, SVG Export Plug-In . SVG Version: 6.00 Build 0)  -->
<svg version="1.1" id="Layer_1" xmlns="http://www.w3.org/2000/svg" xmlns:xlink="http://www.w3.org/1999/xlink" x="0px" y="0px"
	 viewBox="0 0 241.7 124.5" enable-background="new 0 0 241.7 124.5" xml:space="preserve">
<g>
	<defs>
		<rect id="SVGID_1_" x="1.1" y="-0.2" width="239.5" height="123"/>
	</defs>
	<clipPath id="SVGID_2_">
		<use xlink:href="#SVGID_1_"  overflow="visible"/>
	</clipPath>
	<defs>
		<filter id="Adobe_OpacityMaskFilter" filterUnits="userSpaceOnUse" x="-7.9" y="-7.2" width="257.5" height="131">
			<feFlood  style="flood-color:white;flood-opacity:1" result="back"/>
			<feBlend  in="SourceGraphic" in2="back" mode="normal"/>
		</filter>
	</defs>
	<mask maskUnits="userSpaceOnUse" x="-7.9" y="-7.2" width="257.5" height="131" id="SVGID_3_">
		<g filter="url(#Adobe_OpacityMaskFilter)">
			
				<linearGradient id="SVGID_4_" gradientUnits="userSpaceOnUse" x1="0.8117" y1="150.2011" x2="1.8117" y2="150.2011" gradientTransform="matrix(0 149.752 149.752 0 -22372.0488 -148.5039)">
				<stop  offset="0" style="stop-color:#FFFFFF"/>
				<stop  offset="0.4766" style="stop-color:#FFFFFF"/>
				<stop  offset="1" style="stop-color:#BDBDBD"/>
			</linearGradient>
			<rect x="1.1" y="-0.2" clip-path="url(#SVGID_2_)" fill="url(#SVGID_4_)" width="239.5" height="123"/>
		</g>
	</mask>
	<g clip-path="url(#SVGID_2_)" mask="url(#SVGID_3_)">
		<g>
			<defs>
				<rect id="SVGID_5_" x="-7.9" y="-7.2" width="257.5" height="131"/>
			</defs>
			<clipPath id="SVGID_6_">
				<use xlink:href="#SVGID_5_"  overflow="visible"/>
			</clipPath>
			<polygon clip-path="url(#SVGID_6_)" fill="#FFFFFF" points="1.1,-0.2 1.1,122.8 120.9,93.5 240.6,122.8 240.6,-0.2 			"/>
		</g>
	</g>
</g>
<g>
	<defs>
		<rect id="SVGID_7_" x="27.5" y="17.9" width="186.8" height="72.1"/>
	</defs>
	<clipPath id="SVGID_8_">
		<use xlink:href="#SVGID_7_"  overflow="visible"/>
	</clipPath>
	<path clip-path="url(#SVGID_8_)" fill="#EC135D" d="M57.8,55.3v-6.6h-1.5v-1.4h1.5V44h1.6v3.3h3.5v1.4h-3.5v6.4
		c0,1.3,0.7,1.8,1.8,1.8c0.6,0,1-0.1,1.6-0.4V58c-0.6,0.3-1.2,0.5-2,0.5C59.1,58.4,57.8,57.6,57.8,55.3"/>
	<path clip-path="url(#SVGID_8_)" fill="#EC135D" d="M64.9,47.3h1.6v2.9c0.8-1.8,2.4-3.1,4.5-3.1v1.8h-0.1c-2.4,0-4.4,1.7-4.4,5v4.4
		h-1.6V47.3z"/>
	<path clip-path="url(#SVGID_8_)" fill="#EC135D" d="M71.3,55.1L71.3,55.1c0-2.4,1.9-3.6,4.7-3.6c1.4,0,2.4,0.2,3.4,0.5v-0.4
		c0-2-1.2-3-3.3-3c-1.3,0-2.3,0.3-3.3,0.8L72.3,48c1.2-0.6,2.4-0.9,4-0.9c1.5,0,2.7,0.4,3.5,1.2c0.7,0.7,1.1,1.8,1.1,3.2v6.7h-1.6
		v-1.7c-0.8,1-2,1.9-4,1.9C73.4,58.5,71.3,57.3,71.3,55.1 M79.4,54.2v-1.1c-0.8-0.2-1.9-0.5-3.2-0.5c-2.1,0-3.2,0.9-3.2,2.3v0
		c0,1.4,1.3,2.2,2.8,2.2C77.7,57.2,79.4,56,79.4,54.2"/>
	<path clip-path="url(#SVGID_8_)" fill="#EC135D" d="M83.6,47.3h1.6v1.9C85.9,48,87.1,47,89,47c2.7,0,4.2,1.8,4.2,4.4v6.8h-1.6v-6.4
		c0-2-1.1-3.3-3-3.3c-1.9,0-3.3,1.4-3.3,3.4v6.3h-1.6V47.3z"/>
	<path clip-path="url(#SVGID_8_)" fill="#EC135D" d="M94.9,56.9l0.8-1.2c1.2,0.9,2.5,1.4,3.8,1.4c1.3,0,2.3-0.7,2.3-1.7v0
		c0-1.1-1.3-1.5-2.7-1.9c-1.7-0.5-3.6-1.1-3.6-3.1v0c0-1.9,1.6-3.1,3.7-3.1c1.3,0,2.8,0.5,3.9,1.2l-0.7,1.2c-1-0.7-2.2-1.1-3.2-1.1
		c-1.3,0-2.1,0.7-2.1,1.6v0c0,1,1.4,1.4,2.8,1.9c1.7,0.5,3.5,1.2,3.5,3.1v0c0,2.1-1.7,3.3-3.9,3.3C97.8,58.5,96.1,57.9,94.9,56.9"/>
	<path clip-path="url(#SVGID_8_)" fill="#EC135D" d="M105.5,43.1h1.9v1.8h-1.9V43.1z M105.7,47.3h1.6v11h-1.6V47.3z"/>
	<path clip-path="url(#SVGID_8_)" fill="#EC135D" d="M110.8,55.3v-6.6h-1.5v-1.4h1.5V44h1.6v3.3h3.5v1.4h-3.5v6.4
		c0,1.3,0.7,1.8,1.8,1.8c0.6,0,1-0.1,1.6-0.4V58c-0.6,0.3-1.2,0.5-2,0.5C112.1,58.4,110.8,57.6,110.8,55.3"/>
	<path clip-path="url(#SVGID_8_)" fill="#EC135D" d="M118,43.1h1.9v1.8H118V43.1z M118.1,47.3h1.6v11h-1.6V47.3z"/>
	<path clip-path="url(#SVGID_8_)" fill="#EC135D" d="M122,52.8L122,52.8c0-3.1,2.4-5.8,5.7-5.8c3.3,0,5.7,2.6,5.7,5.7v0
		c0,3.1-2.4,5.7-5.8,5.7C124.4,58.5,122,55.9,122,52.8 M131.8,52.8L131.8,52.8c0-2.4-1.8-4.3-4.1-4.3c-2.4,0-4,1.9-4,4.2v0
		c0,2.4,1.7,4.3,4.1,4.3C130.1,57,131.8,55.1,131.8,52.8"/>
	<path clip-path="url(#SVGID_8_)" fill="#EC135D" d="M135.6,47.3h1.6v1.9c0.7-1.2,1.9-2.1,3.8-2.1c2.7,0,4.2,1.8,4.2,4.4v6.8h-1.6
		v-6.4c0-2-1.1-3.3-3-3.3c-1.9,0-3.3,1.4-3.3,3.4v6.3h-1.6V47.3z"/>
	<path clip-path="url(#SVGID_8_)" fill="#EC135D" d="M150.3,55L150.3,55c0-2.5,1.9-3.6,4.6-3.6c1.3,0,2.1,0.2,3,0.5v-0.3
		c0-1.6-1-2.4-2.8-2.4c-1.3,0-2.2,0.3-3.2,0.7l-0.7-2c1.2-0.6,2.4-0.9,4.2-0.9c1.7,0,2.9,0.4,3.7,1.3c0.8,0.8,1.2,2,1.2,3.5v6.6
		h-2.5v-1.4c-0.8,0.9-1.9,1.6-3.7,1.6C152.1,58.5,150.3,57.3,150.3,55 M157.9,54.2v-0.8c-0.7-0.3-1.5-0.4-2.5-0.4
		c-1.7,0-2.6,0.7-2.6,1.9v0c0,1.1,1,1.7,2.2,1.7C156.7,56.6,157.9,55.6,157.9,54.2"/>
	<path clip-path="url(#SVGID_8_)" fill="#EC135D" d="M162.6,47h2.6v1.7c0.7-1,1.8-2,3.5-2c2.5,0,4,1.7,4,4.3v7.2h-2.6v-6.4
		c0-1.7-0.9-2.7-2.4-2.7c-1.5,0-2.5,1-2.5,2.8v6.3h-2.6V47z"/>
	<path clip-path="url(#SVGID_8_)" fill="#EC135D" d="M174.9,60.4l1-1.9c1.2,0.7,2.5,1.2,4,1.2c2.3,0,3.5-1.2,3.5-3.4v-0.9
		c-0.9,1.2-2.1,2.1-3.9,2.1c-2.6,0-5.1-2-5.1-5.2v0c0-3.3,2.5-5.3,5.1-5.3c1.9,0,3.1,0.9,3.9,1.9V47h2.6V56c0,1.9-0.5,3.3-1.4,4.2
		c-1,1-2.6,1.5-4.6,1.5C178.1,61.7,176.3,61.2,174.9,60.4 M183.4,52.1L183.4,52.1c0-1.9-1.5-3.1-3.3-3.1c-1.8,0-3.2,1.2-3.2,3.1v0
		c0,1.8,1.4,3.1,3.2,3.1C181.9,55.2,183.4,53.9,183.4,52.1"/>
	<path clip-path="url(#SVGID_8_)" fill="#EC135D" d="M187.7,52.7L187.7,52.7c0-3.2,2.3-5.9,5.5-5.9c3.6,0,5.4,2.8,5.4,6
		c0,0.2,0,0.5,0,0.7h-8.2c0.3,1.8,1.6,2.8,3.2,2.8c1.3,0,2.1-0.5,3-1.3l1.5,1.3c-1.1,1.3-2.5,2.1-4.6,2.1
		C190.2,58.5,187.7,56.2,187.7,52.7 M196,51.9c-0.2-1.7-1.1-2.9-2.8-2.9c-1.6,0-2.7,1.2-2.9,2.9H196z"/>
	<rect x="200.4" y="42.8" clip-path="url(#SVGID_8_)" fill="#EC135D" width="2.6" height="15.5"/>
	<path clip-path="url(#SVGID_8_)" fill="#EC135D" d="M204.6,56.8l1.1-1.7c1.2,0.9,2.5,1.4,3.7,1.4c1.1,0,1.7-0.5,1.7-1.2v0
		c0-0.9-1.2-1.2-2.5-1.6c-1.7-0.5-3.5-1.1-3.5-3.3v0c0-2.1,1.8-3.4,4-3.4c1.4,0,2.9,0.5,4.1,1.3l-1,1.8c-1.1-0.7-2.2-1.1-3.2-1.1
		c-1,0-1.6,0.5-1.6,1.1v0c0,0.8,1.2,1.2,2.5,1.6c1.6,0.5,3.5,1.3,3.5,3.3v0c0,2.4-1.8,3.5-4.2,3.5C207.8,58.5,206,57.9,204.6,56.8"
		/>
</g>
<g>
	<defs>
		<path id="SVGID_9_" d="M33.1,26.5c-2,3.4-3,5.9-3.7,11.7c-0.7,5.9,1.1,11.6,3.2,16.5c2.1,4.9,3.8,7.4,7.8,11.4
			c4,4,24.6,23.6,24.6,23.6l16-15.4l-4.5-5L64.9,80.6L50.1,66.2c0,0-7.5-7.4-8.9-9.6c-1.3-2.2-5-7.3-5.6-16.1
			c-0.6-8.8,5.6-12.8,5.6-12.8s7.2-5,14.5,0.5c0,0,4.9,2.9,9.3,10.4c0,0,3.9-6.3,8.2-9.6c4.3-3.4,7.5-3.9,12.2-2.8
			c4.8,1,8.9,6.2,8.8,12.4h6.4c0,0,0.4-3.4-1.4-7.9c-1.8-4.5-4.4-7.8-9.1-10.1c-4.7-2.3-10.3-2.6-14.7-0.8
			c-4.5,1.8-7.1,4.2-10.4,8.8c0,0-4.2-7.9-13.6-9.7c-1.1-0.2-2.3-0.3-3.3-0.3C40.3,18.5,34.9,23.5,33.1,26.5"/>
	</defs>
	<clipPath id="SVGID_10_">
		<use xlink:href="#SVGID_9_"  overflow="visible"/>
	</clipPath>
	
		<linearGradient id="SVGID_11_" gradientUnits="userSpaceOnUse" x1="0.8358" y1="151.1952" x2="1.8358" y2="151.1952" gradientTransform="matrix(77.4807 49.5879 49.5879 -77.4807 -7561.9058 11685.8281)">
		<stop  offset="0" style="stop-color:#8B0B42"/>
		<stop  offset="1" style="stop-color:#EC135D"/>
	</linearGradient>
	<polygon clip-path="url(#SVGID_10_)" fill="url(#SVGID_11_)" points="49.7,-14.9 133.5,38.8 79.9,122.5 -3.9,68.9 	"/>
</g>
<g>
	<defs>
		<polygon id="SVGID_12_" points="66.6,66.2 66.6,66.2 66.6,72.7 73.5,72.7 72.8,74.9 75.5,78 77.3,78.2 77.3,85.5 83.5,85.5 
			83.5,66.2 		"/>
	</defs>
	<clipPath id="SVGID_13_">
		<use xlink:href="#SVGID_12_"  overflow="visible"/>
	</clipPath>
	
		<linearGradient id="SVGID_14_" gradientUnits="userSpaceOnUse" x1="0.8358" y1="151.2274" x2="1.8358" y2="151.2274" gradientTransform="matrix(77.4861 49.5914 49.5914 -77.4861 -7571.0425 11700.082)">
		<stop  offset="0" style="stop-color:#9D2043"/>
		<stop  offset="0.9605" style="stop-color:#E9145C"/>
		<stop  offset="1" style="stop-color:#EC135D"/>
	</linearGradient>
	<polygon clip-path="url(#SVGID_13_)" fill="url(#SVGID_14_)" points="71.5,58.5 92.2,71.8 78.6,93.1 57.8,79.8 	"/>
</g>
<g>
	<defs>
		<rect id="SVGID_15_" x="27.5" y="17.9" width="186.8" height="72.1"/>
	</defs>
	<clipPath id="SVGID_16_">
		<use xlink:href="#SVGID_15_"  overflow="visible"/>
	</clipPath>
	<path clip-path="url(#SVGID_16_)" fill="#FFFFFF" d="M63.9,193.7v-6h-1.4v-1.3h1.4v-3h1.5v3h3.1v1.3h-3.1v5.8
		c0,1.2,0.7,1.6,1.7,1.6c0.5,0,0.9-0.1,1.4-0.3v1.3c-0.5,0.3-1.1,0.4-1.8,0.4C65.1,196.5,63.9,195.7,63.9,193.7"/>
	<path clip-path="url(#SVGID_16_)" fill="#FFFFFF" d="M70.4,186.4h1.5v2.6c0.7-1.6,2.2-2.8,4-2.8v1.6h-0.1c-2.2,0-3.9,1.6-3.9,4.5
		v3.9h-1.5V186.4z"/>
	<path clip-path="url(#SVGID_16_)" fill="#FFFFFF" d="M76.1,193.4L76.1,193.4c0-2.1,1.7-3.2,4.2-3.2c1.3,0,2.2,0.2,3,0.4v-0.3
		c0-1.8-1.1-2.7-3-2.7c-1.2,0-2.1,0.3-3,0.7l-0.4-1.2c1.1-0.5,2.2-0.8,3.6-0.8c1.4,0,2.5,0.4,3.2,1.1c0.7,0.7,1,1.6,1,2.9v6.1h-1.4
		v-1.5c-0.7,0.9-1.8,1.7-3.6,1.7C78,196.5,76.1,195.5,76.1,193.4 M83.4,192.7v-1c-0.7-0.2-1.7-0.4-2.9-0.4c-1.9,0-2.9,0.8-2.9,2.1v0
		c0,1.2,1.2,2,2.5,2C81.9,195.3,83.4,194.2,83.4,192.7"/>
	<path clip-path="url(#SVGID_16_)" fill="#FFFFFF" d="M87.2,186.4h1.5v1.7c0.7-1.1,1.7-1.9,3.4-1.9c2.4,0,3.8,1.6,3.8,4v6.2h-1.5
		v-5.8c0-1.8-1-3-2.7-3c-1.7,0-3,1.2-3,3.1v5.7h-1.5V186.4z"/>
	<path clip-path="url(#SVGID_16_)" fill="#FFFFFF" d="M97.4,195l0.7-1.1c1.1,0.8,2.3,1.3,3.4,1.3c1.2,0,2.1-0.6,2.1-1.6v0
		c0-1-1.2-1.4-2.5-1.7c-1.6-0.4-3.3-1-3.3-2.8v0c0-1.7,1.4-2.8,3.4-2.8c1.2,0,2.6,0.4,3.6,1.1l-0.7,1.1c-0.9-0.6-2-1-2.9-1
		c-1.2,0-1.9,0.6-1.9,1.4v0c0,0.9,1.2,1.3,2.6,1.7c1.5,0.5,3.2,1.1,3.2,2.8v0c0,1.9-1.6,3-3.5,3C100.1,196.5,98.5,195.9,97.4,195"/>
	<path clip-path="url(#SVGID_16_)" fill="#FFFFFF" d="M107.1,182.6h1.7v1.6h-1.7V182.6z M107.2,186.4h1.5v9.9h-1.5V186.4z"/>
	<path clip-path="url(#SVGID_16_)" fill="#FFFFFF" d="M111.8,193.7v-6h-1.4v-1.3h1.4v-3h1.5v3h3.1v1.3h-3.1v5.8
		c0,1.2,0.7,1.6,1.7,1.6c0.5,0,0.9-0.1,1.4-0.3v1.3c-0.5,0.3-1.1,0.4-1.8,0.4C113,196.5,111.8,195.7,111.8,193.7"/>
	<path clip-path="url(#SVGID_16_)" fill="#FFFFFF" d="M118.3,182.6h1.7v1.6h-1.7V182.6z M118.4,186.4h1.5v9.9h-1.5V186.4z"/>
	<path clip-path="url(#SVGID_16_)" fill="#FFFFFF" d="M122,191.4L122,191.4c0-2.8,2.2-5.2,5.2-5.2c3,0,5.2,2.3,5.2,5.1v0
		c0,2.8-2.2,5.2-5.2,5.2C124.1,196.5,122,194.2,122,191.4 M130.8,191.4L130.8,191.4c0-2.2-1.6-3.9-3.7-3.9c-2.1,0-3.6,1.7-3.6,3.8v0
		c0,2.1,1.6,3.9,3.7,3.9C129.3,195.2,130.8,193.5,130.8,191.4"/>
	<path clip-path="url(#SVGID_16_)" fill="#FFFFFF" d="M134.2,186.4h1.5v1.7c0.6-1.1,1.7-1.9,3.4-1.9c2.4,0,3.8,1.6,3.8,4v6.2h-1.5
		v-5.8c0-1.8-1-3-2.7-3c-1.7,0-3,1.2-3,3.1v5.7h-1.5V186.4z"/>
	<path clip-path="url(#SVGID_16_)" fill="#FFFFFF" d="M147.5,193.4L147.5,193.4c0-2.2,1.7-3.3,4.2-3.3c1.1,0,1.9,0.2,2.7,0.4v-0.2
		c0-1.4-0.9-2.2-2.5-2.2c-1.1,0-2,0.2-2.9,0.6l-0.6-1.8c1.1-0.5,2.2-0.8,3.8-0.8c1.5,0,2.6,0.4,3.4,1.1c0.7,0.7,1.1,1.8,1.1,3.1v6
		h-2.3V195c-0.7,0.8-1.7,1.5-3.3,1.5C149.2,196.5,147.5,195.4,147.5,193.4 M154.4,192.7V192c-0.6-0.2-1.4-0.4-2.3-0.4
		c-1.5,0-2.4,0.6-2.4,1.7v0c0,1,0.9,1.5,2,1.5C153.2,194.8,154.4,194,154.4,192.7"/>
	<path clip-path="url(#SVGID_16_)" fill="#FFFFFF" d="M158.6,186.2h2.3v1.6c0.7-0.9,1.6-1.8,3.2-1.8c2.3,0,3.6,1.5,3.6,3.9v6.5h-2.3
		v-5.8c0-1.6-0.8-2.5-2.2-2.5c-1.3,0-2.3,0.9-2.3,2.5v5.7h-2.3V186.2z"/>
	<path clip-path="url(#SVGID_16_)" fill="#FFFFFF" d="M169.7,198.2l0.9-1.7c1.1,0.7,2.2,1.1,3.6,1.1c2.1,0,3.2-1.1,3.2-3.1v-0.8
		c-0.8,1.1-1.9,1.9-3.6,1.9c-2.4,0-4.6-1.8-4.6-4.7v0c0-3,2.2-4.8,4.6-4.8c1.7,0,2.8,0.8,3.5,1.7v-1.5h2.3v8.1c0,1.7-0.4,3-1.3,3.8
		c-0.9,0.9-2.3,1.4-4.2,1.4C172.6,199.4,171,199,169.7,198.2 M177.4,190.7L177.4,190.7c0-1.7-1.4-2.8-3-2.8c-1.6,0-2.9,1.1-2.9,2.8
		v0c0,1.6,1.3,2.8,2.9,2.8C176.1,193.5,177.4,192.4,177.4,190.7"/>
	<path clip-path="url(#SVGID_16_)" fill="#FFFFFF" d="M181.3,191.3L181.3,191.3c0-2.9,2.1-5.3,4.9-5.3c3.2,0,4.9,2.5,4.9,5.4
		c0,0.2,0,0.4,0,0.7h-7.4c0.2,1.6,1.4,2.6,2.9,2.6c1.1,0,1.9-0.4,2.7-1.2l1.4,1.2c-1,1.2-2.3,1.9-4.1,1.9
		C183.5,196.5,181.3,194.4,181.3,191.3 M188.8,190.5c-0.2-1.5-1-2.7-2.6-2.7c-1.4,0-2.4,1.1-2.6,2.7H188.8z"/>
	<rect x="192.8" y="182.3" clip-path="url(#SVGID_16_)" fill="#FFFFFF" width="2.3" height="14"/>
	<path clip-path="url(#SVGID_16_)" fill="#FFFFFF" d="M196.5,195l1-1.6c1.1,0.8,2.3,1.2,3.3,1.2c1,0,1.6-0.4,1.6-1.1v0
		c0-0.8-1.1-1.1-2.3-1.4c-1.5-0.4-3.2-1-3.2-3v0c0-1.9,1.6-3.1,3.6-3.1c1.3,0,2.6,0.4,3.7,1.2l-0.9,1.6c-1-0.6-2-1-2.9-1
		c-0.9,0-1.4,0.4-1.4,1v0c0,0.7,1.1,1.1,2.3,1.4c1.5,0.5,3.1,1.1,3.1,3v0c0,2.1-1.6,3.2-3.8,3.2C199.4,196.5,197.8,196,196.5,195"/>
	<path clip-path="url(#SVGID_16_)" fill="#FFFFFF" d="M96.8,178.5h5.7c0,0,0.4-3.1-1.3-7.2c-1.7-4.1-4-7-8.2-9.1
		c-4.2-2.1-9.3-2.3-13.3-0.7c-4,1.6-6.4,3.8-9.4,7.9c0,0-3.8-7.1-12.3-8.7c-8.5-1.6-14.5,3.9-16.4,6.9c-1.8,3.1-2.7,5.3-3.4,10.6
		c-0.7,5.3,1,10.4,2.9,14.9c1.9,4.4,3.4,6.7,7,10.3c3.6,3.6,22.3,21.3,22.3,21.3L85,210.8l-4-4.5l-10.6,10.2l-13.4-13
		c0,0-6.8-6.7-8-8.6c-1.2-2-4.5-6.6-5.1-14.5c-0.5-7.9,5.1-11.6,5.1-11.6s6.5-4.5,13.1,0.4c0,0,4.4,2.6,8.4,9.4c0,0,3.5-5.7,7.4-8.7
		c3.9-3,6.7-3.5,11-2.6C93.1,168.2,96.8,172.9,96.8,178.5"/>
	<polygon clip-path="url(#SVGID_16_)" fill="#FFFFFF" points="71.9,203.4 71.9,209.4 78.1,209.4 77.5,211.4 79.9,214.1 81.5,214.4 
		81.5,220.9 87.1,220.9 87.1,203.4 	"/>
</g>
</svg>
