<svg xmlns="http://www.w3.org/2000/svg" viewBox="0 0 94 12" enable-background="new 0 0 94 12"><path d="M1.9 7.8v-3.8h-.9v-.9h.9v-1.9h.9v1.9h2v.9h-2v3.7c0 .8.4 1.1 1.1 1.1.3 0 .6-.1.9-.2v.8c-.3.1-.7.2-1.1.2-1 0-1.8-.5-1.8-1.8zm4.1-4.7h1v1.7c.5-1.1 1.4-1.8 2.6-1.8v1h-.1c-1.4 0-2.5 1-2.5 3v2.5h-1v-6.4zm3.8 4.6c0-1.4 1.1-2.1 2.7-2.1.8 0 1.4.1 2 .3v-.3c0-1.1-.7-1.7-1.9-1.7-.8 0-1.3.2-1.9.5l-.3-.8c.6-.4 1.3-.6 2.2-.6.9 0 1.6.2 2.1.7.4.4.7 1 .7 1.9v3.9h-.9v-1c-.4.6-1.2 1.1-2.3 1.1-1.2 0-2.4-.6-2.4-1.9zm4.7-.5v-.7c-.5-.1-1.1-.3-1.9-.3-1.2 0-1.9.5-1.9 1.3s.7 1.3 1.6 1.3c1.2.1 2.2-.6 2.2-1.6zm2.4-4.1h.9v1.1c.4-.7 1.1-1.2 2.2-1.2 1.5 0 2.4 1 2.4 2.6v4h-.9v-3.8c0-1.2-.6-1.9-1.8-1.9-1.1 0-1.9.8-1.9 2v3.7h-.9v-6.5zm6.6 5.6l.4-.7c.7.5 1.5.8 2.2.8.8 0 1.3-.4 1.3-1s-.8-.9-1.6-1.1c-1-.3-2.1-.6-2.1-1.8 0-1.1.9-1.8 2.2-1.8.8 0 1.6.3 2.3.7l-.4.7c-.6-.4-1.3-.6-1.9-.6-.8 0-1.2.4-1.2.9 0 .6.8.8 1.6 1.1 1 .3 2 .7 2 1.8 0 1.2-1 1.9-2.3 1.9-.8 0-1.8-.3-2.5-.9zm6.2-8h1.1v1h-1.1v-1zm0 2.4h.9v6.4h-.9v-6.4zm3 4.7v-3.8h-.9v-.9h.9v-1.9h.9v1.9h2v.9h-2v3.7c0 .8.4 1.1 1.1 1.1.3 0 .6-.1.9-.2v.8c-.3.2-.7.3-1.1.3-1-.1-1.8-.6-1.8-1.9zm4.2-7.1h1.1v1h-1.1v-1zm.1 2.4h1v6.4h-1v-6.4zm2.2 3.2c0-1.8 1.4-3.4 3.3-3.4s3.3 1.5 3.3 3.3c0 1.8-1.4 3.3-3.3 3.3-1.9.1-3.3-1.4-3.3-3.2zm5.7 0c0-1.4-1-2.5-2.4-2.5s-2.3 1.1-2.3 2.5 1 2.5 2.4 2.5c1.3 0 2.3-1.1 2.3-2.5zm2.2-3.2h.9v1.1c.5-.7 1.1-1.2 2.2-1.2 1.5 0 2.4 1 2.4 2.6v4h-.9v-3.8c0-1.2-.6-1.9-1.8-1.9-1.1 0-1.9.8-1.9 2v3.7h-.9v-6.5zm8.5 4.5c0-1.4 1.1-2.1 2.7-2.1.7 0 1.2.1 1.8.3v-.2c0-.9-.6-1.4-1.6-1.4-.7 0-1.3.2-1.9.4l-.4-1.2c.7-.3 1.4-.5 2.5-.5 1 0 1.7.3 2.2.7.5.5.7 1.2.7 2v3.9h-1.5v-.8c-.4.5-1.1.9-2.1.9-1.3 0-2.4-.7-2.4-2zm4.5-.4v-.5c-.4-.1-.9-.3-1.5-.3-1 0-1.5.4-1.5 1.1 0 .6.6 1 1.3 1 .9.1 1.7-.5 1.7-1.3zm2.7-4.2h1.5v1c.4-.6 1-1.1 2-1.1 1.5 0 2.3 1 2.3 2.5v4.2h-1.5v-3.8c0-1-.5-1.6-1.4-1.6-.9 0-1.5.6-1.5 1.6v3.7h-1.5v-6.5zm7.1 7.7l.6-1.1c.7.4 1.4.7 2.3.7 1.3 0 2.1-.7 2.1-2v-.5c-.6.7-1.2 1.2-2.3 1.2-1.5 0-3-1.1-3-3s1.4-3.1 3-3.1c1.1 0 1.8.5 2.3 1.1v-1h1.5v5.2c0 1.1-.3 1.9-.8 2.5-.6.6-1.5.9-2.7.9-1.1-.1-2.1-.4-3-.9zm5-4.8c0-1.1-.9-1.8-1.9-1.8-1 0-1.9.7-1.9 1.8s.9 1.8 1.9 1.8c1 0 1.9-.7 1.9-1.8zm2.5.4c0-1.9 1.3-3.4 3.2-3.4 2.1 0 3.1 1.6 3.1 3.5v.4h-4.8c.2 1.1.9 1.7 1.9 1.7.7 0 1.2-.3 1.8-.8l.9.8c-.6.7-1.5 1.2-2.7 1.2-2 0-3.4-1.4-3.4-3.4zm4.8-.5c-.1-1-.7-1.7-1.7-1.7-.9 0-1.6.7-1.7 1.7h3.4zm2.6-5.3h1.5v9h-1.5v-9zm2.4 8.2l.7-1c.7.5 1.5.8 2.1.8.6 0 1-.3 1-.7 0-.5-.7-.7-1.5-.9-1-.3-2-.7-2-1.9s1-2 2.3-2c.8 0 1.7.3 2.4.7l-.6 1.1c-.6-.4-1.3-.6-1.8-.6-.6 0-.9.3-.9.6 0 .5.7.7 1.5.9 1 .3 2 .7 2 1.9 0 1.4-1.1 2-2.4 2-1 0-2-.3-2.8-.9z" fill="#fff"/></svg>