<svg xmlns="http://www.w3.org/2000/svg" xmlns:xlink="http://www.w3.org/1999/xlink" viewBox="0 0 185.1 73.4" enable-background="new 0 0 185.1 73.4"><defs><path id="a" d="M2.4 1.4h180.3v69.7h-180.3z"/></defs><clipPath id="b"><use xlink:href="#a" overflow="visible"/></clipPath><path clip-path="url(#b)" fill="#ED135C" d="M31.6 37.5v-6.4h-1.5v-1.4h1.5v-3.2h1.6v3.2h3.4v1.4h-3.4v6.2c0 1.3.7 1.8 1.8 1.8.5 0 1-.1 1.5-.4v1.4c-.6.3-1.1.5-1.9.5-1.7-.1-3-.9-3-3.1"/><path clip-path="url(#b)" fill="#ED135C" d="M38.5 29.7h1.6v2.8c.8-1.8 2.3-3 4.3-3v1.7h-.1c-2.3 0-4.2 1.7-4.2 4.9v4.2h-1.6v-10.6zM44.7 37.3c0-2.3 1.8-3.5 4.5-3.5 1.4 0 2.3.2 3.3.5v-.4c0-1.9-1.2-2.9-3.2-2.9-1.2 0-2.2.3-3.2.8l-.5-1.3c1.2-.5 2.3-.9 3.9-.9 1.5 0 2.6.4 3.4 1.2.7.7 1.1 1.7 1.1 3.1v6.5h-1.5v-1.6c-.7 1-2 1.8-3.8 1.8-2 0-4-1.2-4-3.3m7.8-.9v-1c-.8-.2-1.8-.5-3.1-.5-2 0-3.1.9-3.1 2.2 0 1.3 1.2 2.1 2.7 2.1 1.9.1 3.5-1.1 3.5-2.8"/><path clip-path="url(#b)" fill="#ED135C" d="M56.5 29.7h1.6v1.8c.7-1.1 1.8-2.1 3.6-2.1 2.6 0 4.1 1.7 4.1 4.2v6.6h-1.6v-6.2c0-2-1.1-3.2-2.9-3.2-1.8 0-3.2 1.3-3.2 3.3v6.1h-1.6v-10.5zM67.4 39l.8-1.1c1.1.9 2.4 1.4 3.7 1.4 1.3 0 2.2-.7 2.2-1.7 0-1.1-1.2-1.5-2.6-1.9-1.7-.5-3.5-1-3.5-3 0-1.8 1.5-3 3.6-3 1.3 0 2.7.5 3.8 1.2l-.7 1.2c-1-.6-2.1-1-3.1-1-1.3 0-2 .7-2 1.5 0 1 1.3 1.4 2.7 1.8 1.6.5 3.4 1.1 3.4 3 0 2-1.7 3.2-3.8 3.2-1.6-.1-3.3-.7-4.5-1.6"/><path clip-path="url(#b)" fill="#ED135C" d="M77.7 25.7h1.8v1.7h-1.8v-1.7zm.1 4h1.6v10.6h-1.6v-10.6zM82.8 37.5v-6.4h-1.5v-1.4h1.5v-3.2h1.6v3.2h3.4v1.4h-3.4v6.2c0 1.3.7 1.8 1.8 1.8.5 0 1-.1 1.5-.4v1.4c-.6.3-1.1.5-1.9.5-1.7-.1-3-.9-3-3.1"/><path clip-path="url(#b)" fill="#ED135C" d="M89.8 25.7h1.8v1.7h-1.8v-1.7zm.1 4h1.6v10.6h-1.6v-10.6zM93.6 35.1c0-3 2.3-5.6 5.5-5.6s5.5 2.5 5.5 5.5-2.4 5.5-5.6 5.5c-3 .1-5.4-2.4-5.4-5.4m9.5 0c0-2.3-1.7-4.2-3.9-4.2-2.3 0-3.9 1.9-3.9 4.1 0 2.3 1.7 4.1 3.9 4.1 2.3.1 3.9-1.8 3.9-4"/><path clip-path="url(#b)" fill="#ED135C" d="M106.7 29.7h1.6v1.8c.7-1.1 1.8-2.1 3.6-2.1 2.6 0 4.1 1.7 4.1 4.2v6.6h-1.6v-6.2c0-2-1.1-3.2-2.9-3.2-1.8 0-3.2 1.3-3.2 3.3v6.1h-1.6v-10.5zM120.9 37.2c0-2.4 1.8-3.5 4.5-3.5 1.2 0 2.1.2 2.9.4v-.3c0-1.5-.9-2.4-2.7-2.4-1.2 0-2.1.3-3.1.7l-.7-1.9c1.2-.5 2.4-.9 4.1-.9 1.6 0 2.8.4 3.6 1.2.8.8 1.2 1.9 1.2 3.3v6.4h-2.4v-1.2c-.7.9-1.9 1.6-3.5 1.6-2.1 0-3.9-1.2-3.9-3.4m7.4-.8v-.7c-.6-.2-1.5-.4-2.5-.4-1.6 0-2.5.7-2.5 1.8 0 1 .9 1.6 2.1 1.6 1.7.1 2.9-.9 2.9-2.3"/><path clip-path="url(#b)" fill="#ED135C" d="M132.8 29.5h2.5v1.7c.7-1 1.7-1.9 3.4-1.9 2.4 0 3.9 1.6 3.9 4.1v6.9h-2.5v-6.1c0-1.7-.8-2.6-2.3-2.6-1.4 0-2.4 1-2.4 2.7v6.1h-2.5v-10.9zM144.7 42.4l.9-1.9c1.2.7 2.4 1.1 3.9 1.1 2.2 0 3.4-1.1 3.4-3.3v-.8c-.9 1.2-2 2-3.8 2-2.5 0-4.9-1.9-4.9-5.1 0-3.2 2.4-5.1 4.9-5.1 1.8 0 2.9.8 3.8 1.8v-1.6h2.5v8.6c0 1.8-.5 3.2-1.4 4.1-1 1-2.5 1.5-4.4 1.5-1.9 0-3.5-.5-4.9-1.3m8.2-8c0-1.8-1.5-3-3.2-3-1.7 0-3.1 1.2-3.1 3s1.4 3 3.1 3c1.7 0 3.2-1.2 3.2-3"/><path clip-path="url(#b)" fill="#ED135C" d="M157 35c0-3.1 2.2-5.7 5.3-5.7 3.4 0 5.2 2.7 5.2 5.8v.7h-7.9c.3 1.8 1.5 2.7 3.1 2.7 1.2 0 2.1-.4 2.9-1.3l1.5 1.3c-1 1.2-2.4 2-4.4 2-3.2.1-5.7-2.2-5.7-5.5m8-.8c-.2-1.6-1.1-2.8-2.7-2.8-1.5 0-2.6 1.2-2.8 2.8h5.5zM169.3 25.4h2.5v15h-2.5zM173.3 38.9l1.1-1.7c1.2.9 2.4 1.3 3.5 1.3s1.7-.5 1.7-1.2c0-.8-1.1-1.1-2.4-1.5-1.6-.5-3.4-1.1-3.4-3.2 0-2 1.7-3.3 3.9-3.3 1.4 0 2.8.5 4 1.2l-1 1.8c-1-.6-2.2-1-3.1-1-1 0-1.5.4-1.5 1.1 0 .8 1.2 1.1 2.4 1.5 1.6.5 3.4 1.2 3.4 3.2 0 2.3-1.8 3.4-4 3.4-1.5 0-3.2-.5-4.6-1.6"/><defs><path id="c" d="M7.8 9.7c-1.9 3.3-2.9 5.6-3.6 11.3-.7 5.7 1.1 11.2 3.1 15.9 2 4.8 3.6 7.2 7.5 11 3.9 3.9 23.8 22.8 23.8 22.8l15.5-14.9-4.3-4.8-11.3 10.9-14.3-13.9s-7.3-7.2-8.6-9.2c-1.3-2.1-4.8-7.1-5.4-15.5-.6-8.5 5.4-12.4 5.4-12.4s7-4.8 14 .4c0 0 4.7 2.8 8.9 10.1 0 0 3.7-6 7.9-9.3 4.2-3.2 7.2-3.7 11.8-2.7 4.6 1 8.6 6 8.5 12h6.1s.4-3.3-1.4-7.7c-1.8-4.4-4.3-7.5-8.8-9.7-4.5-2.2-9.9-2.5-14.2-.8-4.3 1.7-6.9 4.1-10 8.5 0 0-4.1-7.6-13.2-9.3-1-.3-2.1-.4-3.1-.4-7.3 0-12.5 4.8-14.3 7.7"/></defs><clipPath id="d"><use xlink:href="#c" overflow="visible"/></clipPath><linearGradient id="e" gradientUnits="userSpaceOnUse" x1="-33.616" y1="109.27" x2="-32.616" y2="109.27" gradientTransform="matrix(74.788 47.864 47.864 -74.788 -2739.875 9777.301)"><stop offset="0" stop-color="#8C0B42"/><stop offset="1" stop-color="#ED135C"/></linearGradient><path clip-path="url(#d)" fill="url(#e)" d="M23.8-30.3l80.9 51.9-51.7 80.8-81-51.8z"/><defs><path id="f" d="M40.1 48v6.3h6.7l-.7 2.1 2.6 3 1.8.2v7h5.9v-18.6z"/></defs><clipPath id="g"><use xlink:href="#f" overflow="visible"/></clipPath><linearGradient id="h" gradientUnits="userSpaceOnUse" x1="-33.616" y1="109.302" x2="-32.616" y2="109.302" gradientTransform="matrix(74.793 47.868 47.868 -74.793 -2748.379 9790.98)"><stop offset="0" stop-color="#9E2043"/><stop offset="1" stop-color="#EE1F60"/></linearGradient><path clip-path="url(#g)" fill="url(#h)" d="M44.8 40.6l20.1 12.8-13.2 20.6-20-12.8z"/><defs><path id="i" d="M2.4 1.4h180.3v69.7h-180.3z"/></defs><clipPath id="j"><use xlink:href="#i" overflow="visible"/></clipPath><path clip-path="url(#j)" fill="#fff" d="M37.5 171.1v-5.8h-1.3v-1.3h1.3v-2.9h1.5v2.9h3v1.3h-3v5.6c0 1.2.6 1.6 1.6 1.6.5 0 .9-.1 1.4-.3v1.2c-.5.3-1 .4-1.7.4-1.6 0-2.8-.8-2.8-2.7"/><path clip-path="url(#j)" fill="#fff" d="M43.8 164h1.4v2.5c.7-1.6 2.1-2.7 3.9-2.7v1.5h-.1c-2.1 0-3.8 1.5-3.8 4.4v3.8h-1.4v-9.5zM49.4 170.8c0-2.1 1.7-3.1 4.1-3.1 1.2 0 2.1.2 2.9.4v-.3c0-1.7-1.1-2.6-2.8-2.6-1.1 0-2 .3-2.9.7l-.4-1.2c1.1-.5 2.1-.8 3.5-.8s2.4.4 3.1 1.1c.6.6 1 1.6 1 2.8v5.8h-1.4v-1.4c-.7.9-1.8 1.6-3.5 1.6-1.9 0-3.6-1-3.6-3m7-.7v-.9c-.7-.2-1.6-.4-2.8-.4-1.8 0-2.8.8-2.8 2s1.1 1.9 2.4 1.9c1.8 0 3.2-1.1 3.2-2.6"/><path clip-path="url(#j)" fill="#fff" d="M60 164h1.4v1.7c.6-1 1.6-1.9 3.3-1.9 2.3 0 3.7 1.6 3.7 3.8v5.9h-1.4v-5.5c0-1.8-1-2.9-2.6-2.9s-2.9 1.2-2.9 3v5.5h-1.5v-9.6zM69.9 172.4l.7-1c1 .8 2.2 1.2 3.3 1.2 1.1 0 2-.6 2-1.5 0-1-1.1-1.3-2.4-1.7-1.5-.4-3.2-.9-3.2-2.7 0-1.6 1.4-2.7 3.3-2.7 1.2 0 2.5.4 3.4 1.1l-.6 1.1c-.9-.6-1.9-.9-2.8-.9-1.1 0-1.9.6-1.9 1.4 0 .9 1.2 1.3 2.5 1.6 1.5.4 3.1 1 3.1 2.7 0 1.8-1.5 2.9-3.4 2.9-1.4-.1-2.9-.7-4-1.5"/><path clip-path="url(#j)" fill="#fff" d="M79.2 160.4h1.6v1.6h-1.6v-1.6zm.1 3.6h1.4v9.6h-1.4v-9.6zM83.8 171.1v-5.8h-1.3v-1.3h1.3v-2.9h1.4v2.9h3v1.3h-3v5.6c0 1.2.6 1.6 1.6 1.6.5 0 .9-.1 1.4-.3v1.2c-.5.3-1 .4-1.7.4-1.5 0-2.7-.8-2.7-2.7"/><path clip-path="url(#j)" fill="#fff" d="M90.1 160.4h1.6v1.6h-1.6v-1.6zm.1 3.6h1.4v9.6h-1.4v-9.6zM93.6 168.8c0-2.7 2.1-5 5-5s5 2.3 5 5-2.1 5-5 5-5-2.2-5-5m8.5 0c0-2.1-1.5-3.8-3.6-3.8s-3.5 1.7-3.5 3.7c0 2.1 1.5 3.7 3.5 3.7 2.1.1 3.6-1.5 3.6-3.6"/><path clip-path="url(#j)" fill="#fff" d="M105.4 164h1.4v1.7c.6-1 1.6-1.9 3.3-1.9 2.3 0 3.7 1.6 3.7 3.8v5.9h-1.4v-5.5c0-1.8-1-2.9-2.6-2.9s-2.9 1.2-2.9 3v5.5h-1.4v-9.6zM118.2 170.8c0-2.1 1.6-3.2 4-3.2 1.1 0 1.9.2 2.6.4v-.2c0-1.4-.9-2.1-2.4-2.1-1.1 0-1.9.2-2.8.6l-.6-1.8c1.1-.5 2.1-.8 3.7-.8 1.5 0 2.6.4 3.2 1.1.7.7 1.1 1.7 1.1 3v5.8h-2.2v-1.2c-.7.8-1.7 1.4-3.2 1.4-1.8 0-3.4-1.1-3.4-3m6.7-.7v-.7c-.6-.2-1.3-.4-2.2-.4-1.4 0-2.3.6-2.3 1.6 0 .9.8 1.5 1.9 1.5 1.5.1 2.6-.8 2.6-2"/><path clip-path="url(#j)" fill="#fff" d="M129 163.8h2.2v1.5c.6-.9 1.5-1.7 3.1-1.7 2.2 0 3.5 1.5 3.5 3.7v6.2h-2.2v-5.5c0-1.5-.8-2.4-2.1-2.4s-2.2.9-2.2 2.4v5.5h-2.3v-9.7zM139.7 175.4l.8-1.7c1.1.6 2.1 1 3.5 1 2 0 3.1-1 3.1-3v-.7c-.8 1.1-1.8 1.8-3.4 1.8-2.3 0-4.4-1.7-4.4-4.6 0-2.9 2.2-4.6 4.4-4.6 1.6 0 2.7.8 3.4 1.7v-1.5h2.2v7.8c0 1.6-.4 2.9-1.2 3.7-.9.9-2.3 1.3-4 1.3-1.7 0-3.2-.4-4.4-1.2m7.4-7.2c0-1.6-1.3-2.7-2.9-2.7-1.6 0-2.8 1.1-2.8 2.7s1.2 2.7 2.8 2.7c1.6 0 2.9-1.1 2.9-2.7"/><path clip-path="url(#j)" fill="#fff" d="M150.8 168.7c0-2.8 2-5.1 4.8-5.1 3.1 0 4.7 2.4 4.7 5.3v.6h-7.2c.2 1.6 1.4 2.5 2.8 2.5 1.1 0 1.9-.4 2.6-1.2l1.3 1.2c-.9 1.1-2.2 1.8-4 1.8-2.8 0-5-2-5-5.1m7.3-.7c-.1-1.4-1-2.6-2.5-2.6-1.4 0-2.3 1.1-2.5 2.6h5zM161.9 160.1h2.2v13.5h-2.2zM165.6 172.3l1-1.5c1.1.8 2.2 1.2 3.2 1.2s1.5-.4 1.5-1.1c0-.8-1-1-2.2-1.4-1.4-.4-3.1-1-3.1-2.9 0-1.8 1.5-3 3.5-3 1.2 0 2.6.4 3.6 1.1l-.9 1.6c-.9-.6-1.9-.9-2.8-.9-.9 0-1.4.4-1.4 1 0 .7 1.1 1 2.2 1.4 1.4.4 3 1.1 3 2.8 0 2.1-1.6 3.1-3.6 3.1-1.3.1-2.8-.4-4-1.4M69.3 156.4h5.5s.4-3-1.2-6.9c-1.6-3.9-3.9-6.8-7.9-8.8-4.1-2-9-2.2-12.8-.7-3.9 1.6-6.2 3.7-9.1 7.6 0 0-3.7-6.9-11.9-8.4s-14 3.7-15.8 6.7c-1.8 3-2.6 5.1-3.3 10.2-.6 5.1 1 10.1 2.8 14.4 1.8 4.3 3.3 6.5 6.8 9.9 3.5 3.5 21.5 20.6 21.5 20.6l14-13.5-3.9-4.4-10.3 9.9-12.9-12.5s-6.6-6.5-7.7-8.3c-1.2-1.9-4.4-6.4-4.9-14-.5-7.7 4.9-11.2 4.9-11.2s6.3-4.3 12.6.4c0 0 4.2 2.5 8.1 9.1 0 0 3.4-5.5 7.1-8.4 3.8-2.9 6.5-3.4 10.7-2.5 4.1.9 7.7 5.4 7.7 10.8"/><path clip-path="url(#j)" fill="#fff" d="M45.2 180.5v5.7h6.1l-.6 1.9 2.3 2.7 1.6.2v6.3h5.4v-16.8z"/><path clip-path="url(#j)" fill="#8C0B42" d="M88.7 71.9h65.8v65.2h-65.8z"/></svg>