<svg xmlns="http://www.w3.org/2000/svg" xmlns:xlink="http://www.w3.org/1999/xlink" viewBox="0 0 30 23" enable-background="new 0 0 30 23"><defs><path id="a" d="M.5.4h29v22.2h-29z"/></defs><clipPath id="b"><use xlink:href="#a" overflow="visible"/></clipPath><path clip-path="url(#b)" fill="#fff" d="M16.8 14.6c0 2.1.7 3.9 2 5.6 1.4 1.6 3.1 2.5 5.2 2.5 2 0 3.4-.6 4.2-1.7.8-1.1 1.3-2.3 1.3-3.5 0-1.5-.5-2.7-1.6-3.5-1.1-.8-2.2-1.2-3.3-1.2-.1 0-1.2.1-3.1.3-.4 0-.8-.1-.9-.3-.2-.2-.3-.5-.3-.8 0-1 .3-2.1.9-3.3 1.2-2.4 3.4-4.5 6.6-6.4l-.8-1.9c-2.5 1.2-4.9 3-7 5.6s-3.2 5.4-3.2 8.6m-16.3 0c0 2.1.7 3.9 2 5.6 1.4 1.6 3.1 2.5 5.2 2.5 2 0 3.4-.6 4.2-1.7.8-1.1 1.3-2.3 1.3-3.5 0-1.5-.5-2.7-1.6-3.5-1.1-.8-2.2-1.2-3.3-1.2-.1 0-1.2.1-3.1.3-.4 0-.8-.1-.9-.3-.2-.2-.3-.5-.3-.8 0-1 .3-2.1.9-3.3 1.4-2.6 3.5-4.7 6.7-6.5l-.8-1.8c-2.5 1.2-4.9 3-7 5.6-2.2 2.5-3.3 5.4-3.3 8.6"/></svg>