<?xml version="1.0" encoding="utf-8"?>
<!-- Generator: Adobe Illustrator 18.1.1, SVG Export Plug-In . SVG Version: 6.00 Build 0)  -->
<svg version="1.1" id="Layer_1" xmlns="http://www.w3.org/2000/svg" xmlns:xlink="http://www.w3.org/1999/xlink" x="0px" y="0px"
	 viewBox="0 0 30 23" enable-background="new 0 0 30 23" xml:space="preserve">
<g>
	<defs>
		<rect id="SVGID_1_" x="0.5" y="0.4" width="29" height="22.2"/>
	</defs>
	<clipPath id="SVGID_2_">
		<use xlink:href="#SVGID_1_"  overflow="visible"/>
	</clipPath>
	<path clip-path="url(#SVGID_2_)" fill="#FFFFFF" d="M16.8,14.6c0,2.1,0.7,3.9,2,5.6c1.4,1.6,3.1,2.5,5.2,2.5c2,0,3.4-0.6,4.2-1.7
		c0.8-1.1,1.3-2.3,1.3-3.5c0-1.5-0.5-2.7-1.6-3.5c-1.1-0.8-2.2-1.2-3.3-1.2c-0.1,0-1.2,0.1-3.1,0.3c-0.4,0-0.8-0.1-0.9-0.3
		c-0.2-0.2-0.3-0.5-0.3-0.8c0-1,0.3-2.1,0.9-3.3c1.2-2.4,3.4-4.5,6.6-6.4L27,0.4c-2.5,1.2-4.9,3-7,5.6S16.8,11.4,16.8,14.6
		 M0.5,14.6c0,2.1,0.7,3.9,2,5.6c1.4,1.6,3.1,2.5,5.2,2.5c2,0,3.4-0.6,4.2-1.7c0.8-1.1,1.3-2.3,1.3-3.5c0-1.5-0.5-2.7-1.6-3.5
		c-1.1-0.8-2.2-1.2-3.3-1.2c-0.1,0-1.2,0.1-3.1,0.3c-0.4,0-0.8-0.1-0.9-0.3c-0.2-0.2-0.3-0.5-0.3-0.8c0-1,0.3-2.1,0.9-3.3
		C6.3,6.1,8.4,4,11.6,2.2l-0.8-1.8c-2.5,1.2-4.9,3-7,5.6C1.6,8.5,0.5,11.4,0.5,14.6"/>
</g>
</svg>
