<svg xmlns="http://www.w3.org/2000/svg" xmlns:xlink="http://www.w3.org/1999/xlink" viewBox="0 0 350 110" enable-background="new 0 0 350 110"><defs><path id="a" d="M4 1.6h341.2v107.4h-341.2z"/></defs><clipPath id="b"><use xlink:href="#a" overflow="visible"/></clipPath><linearGradient id="c" gradientUnits="userSpaceOnUse" x1="1.009" y1="111.033" x2="2.009" y2="111.033" gradientTransform="matrix(341.21 0 0 -341.21 -340.21 37985.309)"><stop offset="0" stop-color="#8B0B42"/><stop offset="1" stop-color="#EC135D"/></linearGradient><path clip-path="url(#b)" fill="url(#c)" d="M20.4 90.2v2.2h-6.3v16.6h-2.6v-16.6h-6.3v-2.2h15.2zm11.1-.5c3.3 0 5.8 1.1 7.4 3.2 1.2 1.7 1.9 3.8 1.9 6.4 0 2.8-.7 5.1-2.1 7-1.7 2.2-4.1 3.3-7.2 3.3-2.9 0-5.2-1-6.8-2.9-1.5-1.8-2.2-4.2-2.2-7 0-2.5.6-4.7 1.9-6.5 1.5-2.3 3.9-3.5 7.1-3.5zm.3 17.6c2.2 0 3.9-.8 4.9-2.4 1-1.6 1.5-3.5 1.5-5.6 0-2.2-.6-4-1.7-5.3-1.2-1.3-2.7-2-4.7-2-1.9 0-3.5.7-4.8 2s-1.8 3.3-1.8 5.9c0 2.1.5 3.8 1.6 5.3.9 1.4 2.6 2.1 5 2.1zm36.1-17.1v2.2h-6.3v16.6h-2.6v-16.6h-6.3v-2.2h15.2zm3.8 0h8.5c1.4 0 2.6.2 3.5.6 1.7.8 2.6 2.3 2.6 4.4 0 1.1-.2 2-.7 2.8-.5.7-1.1 1.3-2 1.7.7.3 1.3.7 1.7 1.2.4.5.6 1.3.6 2.4l.1 2.5c0 .7.1 1.2.2 1.6.2.6.4 1 .8 1.2v.4h-3.1c-.1-.2-.2-.4-.2-.6-.1-.3-.1-.8-.1-1.5l-.2-3.1c-.1-1.2-.5-2.1-1.3-2.5-.5-.2-1.2-.3-2.2-.3h-5.6v8.1h-2.5v-18.9zm8.2 8.6c1.2 0 2.1-.2 2.8-.7.7-.5 1-1.3 1-2.6s-.5-2.3-1.4-2.7c-.5-.3-1.2-.4-2-.4h-6v6.4h5.6zm17.5-8.6h2.9l6.8 18.8h-2.8l-2-5.6h-7.3l-2 5.6h-2.6l7-18.8zm4.3 11.1l-2.9-8.3-3 8.3h5.9zm9.1-11.1h3l9.4 15.2v-15.2h2.4v18.8h-2.9l-9.5-15.2v15.2h-2.4v-18.8zm21.7 12.7c.1 1.1.3 1.9.7 2.6.8 1.2 2.2 1.9 4.3 1.9.9 0 1.8-.1 2.5-.4 1.5-.5 2.2-1.5 2.2-2.8 0-1-.3-1.8-.9-2.2-.6-.4-1.6-.8-2.9-1.1l-2.5-.6c-1.6-.4-2.8-.8-3.4-1.2-1.2-.8-1.7-2-1.7-3.5 0-1.7.6-3.1 1.7-4.2s2.7-1.6 4.8-1.6c1.9 0 3.5.5 4.9 1.4 1.3 1 2 2.5 2 4.6h-2.4c-.1-1-.4-1.8-.8-2.3-.7-1-2-1.5-3.8-1.5-1.4 0-2.5.3-3.1.9-.6.6-.9 1.4-.9 2.2 0 .9.4 1.6 1.1 2 .5.3 1.6.6 3.3 1l2.6.6c1.2.3 2.2.7 2.9 1.2 1.2.9 1.7 2.2 1.7 3.8 0 2.1-.7 3.6-2.2 4.5-1.5.9-3.2 1.3-5.1 1.3-2.3 0-4.1-.6-5.4-1.8-1.3-1.2-1.9-2.8-1.9-4.8h2.3zm17.2-12.7h2.6v18.8h-2.6v-18.8zm21.6 0v2.2h-6.3v16.6h-2.6v-16.6h-6.3v-2.2h15.2zm3.9 0h2.6v18.8h-2.6v-18.8zm16.2-.5c3.3 0 5.8 1.1 7.4 3.2 1.2 1.7 1.9 3.8 1.9 6.4 0 2.8-.7 5.1-2.1 7-1.7 2.2-4.1 3.3-7.2 3.3-2.9 0-5.2-1-6.8-2.9-1.5-1.8-2.2-4.2-2.2-7 0-2.5.6-4.7 1.9-6.5 1.6-2.3 4-3.5 7.1-3.5zm.3 17.6c2.2 0 3.9-.8 4.9-2.4 1-1.6 1.5-3.5 1.5-5.6 0-2.2-.6-4-1.7-5.3-1.2-1.3-2.7-2-4.7-2-1.9 0-3.5.7-4.8 2s-1.8 3.3-1.8 5.9c0 2.1.5 3.8 1.6 5.3.9 1.4 2.6 2.1 5 2.1zm13.4-17.1h3l9.4 15.2v-15.2h2.4v18.8h-2.9l-9.5-15.2v15.2h-2.4v-18.8zm34.9 0h2.9l6.8 18.8h-2.8l-2-5.6h-7.4l-2 5.6h-2.6l7.1-18.8zm4.2 11.1l-2.9-8.3-3 8.3h5.9zm9.1-11.1h3l9.4 15.2v-15.2h2.4v18.8h-2.9l-9.5-15.2v15.2h-2.4v-18.8zm28.2-.5c1.7 0 3.2.3 4.5 1 1.8 1 3 2.7 3.4 5.2h-2.5c-.3-1.4-.9-2.4-1.9-3-.9-.6-2.1-.9-3.6-.9-1.7 0-3.1.7-4.3 2-1.2 1.3-1.7 3.2-1.7 5.8 0 2.2.5 4.1 1.4 5.5 1 1.4 2.5 2.1 4.7 2.1 1.7 0 3-.5 4.1-1.5 1.1-1 1.6-2.6 1.7-4.8h-5.9v-2.1h8.3v10h-1.7l-.6-2.4c-.8.9-1.6 1.6-2.3 2-1.1.6-2.5.9-4.2.9-2.2 0-4.1-.7-5.7-2.2-1.7-1.8-2.6-4.3-2.6-7.4 0-3.1.8-5.6 2.5-7.5 1.8-1.8 3.8-2.7 6.4-2.7zm13.6.5h13.6v2.3h-11.2v5.7h10.3v2.2h-10.3v6.4h11.5v2.2h-13.8v-18.8zm18.2 0h2.5v16.6h9.4v2.2h-12v-18.8zm17.4 12.7c.1 1.1.3 1.9.7 2.6.8 1.2 2.2 1.9 4.3 1.9.9 0 1.8-.1 2.5-.4 1.5-.5 2.2-1.5 2.2-2.8 0-1-.3-1.8-.9-2.2-.6-.4-1.6-.8-2.9-1.1l-2.5-.6c-1.6-.4-2.8-.8-3.4-1.2-1.2-.8-1.7-2-1.7-3.5 0-1.7.6-3.1 1.7-4.2s2.7-1.6 4.8-1.6c1.9 0 3.5.5 4.9 1.4 1.3 1 2 2.5 2 4.6h-2.4c-.1-1-.4-1.8-.8-2.3-.7-1-2-1.5-3.8-1.5-1.4 0-2.5.3-3.1.9-.6.6-.9 1.4-.9 2.2 0 .9.4 1.6 1.1 2 .5.3 1.6.6 3.3 1l2.6.6c1.2.3 2.2.7 2.9 1.2 1.2.9 1.7 2.2 1.7 3.8 0 2.1-.7 3.6-2.2 4.5-1.5.9-3.2 1.3-5.1 1.3-2.3 0-4.1-.6-5.4-1.8-1.3-1.2-1.9-2.8-1.9-4.8h2.3z"/><path clip-path="url(#b)" fill="#C5AAA5" d="M276.5 54.9c-2.8-3.1.2-12.5 3.7-15.1 3.6-2.7 1.7 4.2 1.7 4.2-1.3 9-5.4 10.9-5.4 10.9m-78.7 11.2c-6.4.8-6.3-6.6-6.3-6.6-.1-6.4 5.2-10.1 6.8-10.8 1.6-.7 1.7 0 2.2 3.1.5 3.1 4.6 7.1 4.6 7.1 0 2.3-1 6.3-7.3 7.2m-57.9-20.3c.6-15.1 9.1-31.7 9.1-31.7s1.1-4.3 3.6-3.6c2.5.7 1.3 5.3 1.3 5.3-2.7 18.2-14 30-14 30m-35.8 9.1c-2.8-3.1.2-12.5 3.7-15.1 3.6-2.7 1.7 4.2 1.7 4.2-1.3 9-5.4 10.9-5.4 10.9m206.8-6.4c-2.5-.7-4.9 1.8-4.9 1.8s-8.8 22.3-25 17c0 0-3.9-2.8-2.7-6 0 0-.1-2.8 3-4.4 3.1-1.6 12.3-21.4 6.9-26.4-5.3-4.9-12.4 3.7-12.4 3.7s-9.5 9.2-6.2 29.1c0 0-15.1 6.7-13.7-2.2 1.4-8.9 2.1-14.3 3.8-19 1.8-4.7.7-5.3.2-6.1-.5-.8-2-1-4.5.3s-7.3 5.6-7.3 5.6-1.9.6-1.3-2.5.1-7.2-3.4-6.8c-3.6.4-6.5 4.2-6.5 4.2s-7.7 9.1-7.7 4.7c0-4.3 1.4-12.1-3.8-12.3-5.2-.2-1.5 10.3-1.5 10.3s.9 11.7-1.7 12.5-12.7 5.9-10.3-2c2.4-7.9 4.9-14.2-.3-14.1-5.2.1-17-.2-24.8 24.1 0 0-17.6 18.4-22.2 2 0 0-3-7.8 4.5-16.8 7.5-9.1 10.4-7.6 9.8-6.3-.7 1.3-2.1 9.4 1.6 9.5 3.7.1 4.7-3.8 4.4-6.9-.2-3.1.6-10.8-7-9.7-7.6 1.1-20.1 15.9-18 29.8 0 0-3 3.3-12.4 1 0 0-6.6-1.6-6.1-6.4.4-4.8 3.4-9.5 5.1-12.1 1.7-2.7 10-13.7 12.3-28.4 0 0 2-11.1-4.5-13.9 0 0-2.5-1.9-6.2 4.4-3.7 6.3-10 13.9-13.6 41.4 0 0-6.3 20.1-21.4 20.6 0 0-9.6.7-7.1-7.5 0 0 .6-.8 1.7-2.1 1-1.3 16.8-26.2 6.5-29.1 0 0-12.7-1.2-16.7 16.8 0 0-5.9 1.6-7.5 0-1.6-1.6-4.3-5.4-6.4-2.7-2 2.7-2 4.1-1.3 6.1.7 1.9-2.8 17.6-9.7 15.9-6.9-1.7-4.3-11.7-4.2-11.9 0-.3 1-7-1.7-7.4-2.7-.5-4.7-.1-5.7 5.7s-15 20.5-12.5 8.9l2.9-15.7s1.7-5.1-1.4-5.6c-3.1-.6-4.3 4.4-4.3 4.4s-3.9 16.2-.6 23.4c3.3 7.2 11.2 1 16.9-5.1 0 0 7.6 13.9 15.5 8 7.9-6 9.1-16.4 9.1-16.4l10.2-3.5s-3.7 17.9 9.8 23c13.5 5.1 29.3-14.8 29.3-14.8s5.6 23.1 26.2 8.8c0 0 5.9 15 26.1-.5 0 0 9.9 13.1 21.2-4.5 0 0 9.1-3.2 12.9-5.8l-2.5 8.9s-1.4 3.5 1.4 4.5 3.5-3.3 3.5-3.3 7-22.7 13.1-26c0 0 4.1-1.3 3.1 1.9-1 3.2-6.7 22.3-6.7 22.3s-1.2 2.6 1.9 3.6c3.1 1 3.7-3.1 3.7-3.1s8.4-20.6 12.9-19.8c0 0 .5-.5 0 2.5-.5 2.9-5.5 19.3 1.9 23.1 7.4 3.8 15.4-4.3 15.4-4.3s8.7 11.8 21.2 5.7c12.6-6.1 14.5-10.6 21.1-20.4.1-.3 1.1-3-1.4-3.7"/></svg>