<svg xmlns="http://www.w3.org/2000/svg" viewBox="0 0 337.8 108.07"><defs><linearGradient id="a" x1="-509.71" y1="330.39" x2="-508.71" y2="330.39" gradientTransform="translate(173915.35 -112634.63) scale(341.21)" gradientUnits="userSpaceOnUse"><stop offset="0" stop-color="#8b0b42"/><stop offset="1" stop-color="#ec135d"/></linearGradient></defs><title>welcome</title><g><path d="M271.3 53.37c-2.8-3.1.2-12.5 3.7-15.1l1.7 4.2c-1.3 9-5.4 10.9-5.4 10.9m-78.7 11.2c-6.4.8-6.3-6.6-6.3-6.6-.1-6.4 5.2-10.1 6.8-10.8s1.7 0 2.2 3.1l4.6 7.1c0 2.3-1 6.3-7.3 7.2m-57.9-20.3c.6-15.1 9.1-31.7 9.1-31.7s1.1-4.3 3.6-3.6l1.3 5.3a59.83 59.83 0 0 1-14 30m-35.8 9.1c-2.8-3.1.2-12.5 3.7-15.1l1.7 4.2c-1.3 9-5.4 10.9-5.4 10.9m206.8-6.37c-2.5-.7-4.9 1.8-4.9 1.8s-8.8 22.3-25 17c0 0-3.9-2.8-2.7-6a5.07 5.07 0 0 1 3-4.4c3.1-1.6 12.3-21.4 6.9-26.4l-12.4 3.7s-9.5 9.2-6.2 29.1c0 0-15.1 6.7-13.7-2.2s2.1-14.3 3.8-19 .7-5.3.2-6.1-2-1-4.5.3l-7.3 5.6s-1.9.6-1.3-2.5.1-7.2-3.4-6.8l-6.5 4.2s-7.7 9.07-7.7 4.7 1.4-12.1-3.8-12.3l-1.5 10.3s.9 11.7-1.7 12.5-12.7 5.9-10.3-2 4.9-14.2-.3-14.1-17-.2-24.8 24.1c0 0-17.6 18.4-22.2 2 0 0-3-7.8 4.5-16.8s10.4-7.6 9.8-6.3-2.1 9.4 1.6 9.5 4.7-3.8 4.4-6.9.6-10.8-7-9.7-20.1 15.9-18 29.8c0 0-3 3.3-12.4 1 0 0-6.6-1.6-6.1-6.4s3.4-9.5 5.1-12.1 10-13.7 12.3-28.4c0 0 2-11.1-4.5-13.9 0 0-2.5-1.9-6.2 4.4s-10 13.9-13.6 41.4c0 0-6.3 20.1-21.4 20.6 0 0-9.6.7-7.1-7.5 0 0 .6-.8 1.7-2.1s16.8-26.23 6.5-29.1c0 0-12.7-1.2-16.7 16.8 0 0-5.9 1.6-7.5 0s-4.3-5.4-6.4-2.7-2 4.1-1.3 6.1-2.8 17.6-9.7 15.9-4.3-11.7-4.2-11.9 1-7-1.7-7.4-4.7-.1-5.7 5.7-15 20.5-12.5 8.9l2.9-15.7s1.7-5.1-1.4-5.6l-4.3 4.4s-3.9 16.2-.6 23.4 11.2 1 16.9-5.1c0 0 7.6 13.9 15.5 8l9.1-16.4 10.2-3.5s-3.7 17.9 9.8 23l29.3-14.8s5.6 23.1 26.2 8.8c0 0 5.9 15 26.1-.5 0 0 9.9 13.1 21.2-4.5 0 0 9.1-3.2 12.9-5.8l-2.5 8.9s-1.4 3.5 1.4 4.5l3.5-3.3s7-22.7 13.1-26c0 0 4.1-1.3 3.1 1.9l-6.7 22.3s-1.2 2.6 1.9 3.6l3.7-3.1s8.4-20.6 12.9-19.8c0 0 .5-.5 0 2.5s-5.5 19.3 1.9 23.1l15.4-4.3s8.7 11.8 21.2 5.7 14.5-10.6 21.1-20.4c.1-.3 1.1-3-1.4-3.7" fill="#c5aaa5"/><path d="M15.2 88.67v2.2h-6.3v16.6h-2.6v-16.6h-6.3v-2.2zm11.1-.5c3.3 0 5.8 1.1 7.4 3.2a10.79 10.79 0 0 1 1.9 6.4 11.41 11.41 0 0 1-2.1 7 8.57 8.57 0 0 1-7.2 3.3 8.48 8.48 0 0 1-6.8-2.9 10.67 10.67 0 0 1-2.2-7 10.84 10.84 0 0 1 1.9-6.5 7.93 7.93 0 0 1 7.1-3.5zm.3 17.6a5.41 5.41 0 0 0 4.9-2.4 10.43 10.43 0 0 0 1.5-5.6 8 8 0 0 0-1.7-5.3 6 6 0 0 0-4.7-2 6.57 6.57 0 0 0-4.8 2c-1.3 1.3-1.8 3.3-1.8 5.9a8.55 8.55 0 0 0 1.6 5.3c.9 1.4 2.6 2.1 5 2.1zm36.1-17.1v2.2h-6.3v16.6h-2.6v-16.6h-6.3v-2.2zm3.8 0h8.5a8.8 8.8 0 0 1 3.5.6 4.49 4.49 0 0 1 2.6 4.4 5.07 5.07 0 0 1-.7 2.8 4.8 4.8 0 0 1-2 1.7 4.34 4.34 0 0 1 1.7 1.2 3.84 3.84 0 0 1 .6 2.4l.1 2.5a6.27 6.27 0 0 0 .2 1.6 1.84 1.84 0 0 0 .8 1.2v.4h-3.1a1.42 1.42 0 0 1-.2-.6 5.76 5.76 0 0 1-.1-1.5l-.2-3.1a2.83 2.83 0 0 0-1.3-2.5 6.08 6.08 0 0 0-2.2-.3h-5.6v8.1h-2.5v-18.9zm8.2 8.6a4.65 4.65 0 0 0 2.8-.7 2.88 2.88 0 0 0 1-2.6 2.75 2.75 0 0 0-1.4-2.7 4 4 0 0 0-2-.4h-6v6.4zm17.5-8.6h2.9l6.8 18.8h-2.8l-2-5.6h-7.3l-2 5.6h-2.6zm4.3 11.1l-2.9-8.3-3 8.3zm9.1-11.1h3l9.4 15.2v-15.2h2.4v18.8h-2.9l-9.5-15.2v15.2h-2.4zm21.7 12.7a6.17 6.17 0 0 0 .7 2.6c.8 1.2 2.2 1.9 4.3 1.9a6.57 6.57 0 0 0 2.5-.4 2.83 2.83 0 0 0 2.2-2.8 2.53 2.53 0 0 0-.9-2.2 9.24 9.24 0 0 0-2.9-1.1l-2.5-.6a12.59 12.59 0 0 1-3.4-1.2 3.9 3.9 0 0 1-1.7-3.5 5.73 5.73 0 0 1 1.7-4.2 6.48 6.48 0 0 1 4.8-1.6 8.81 8.81 0 0 1 4.9 1.4 5.42 5.42 0 0 1 2 4.6h-2.4a4.44 4.44 0 0 0-.8-2.3c-.7-1-2-1.5-3.8-1.5a4.42 4.42 0 0 0-3.1.9 3.1 3.1 0 0 0-.9 2.2 2.19 2.19 0 0 0 1.1 2 14.73 14.73 0 0 0 3.3 1l2.6.6a8.73 8.73 0 0 1 2.9 1.2 4.44 4.44 0 0 1 1.7 3.8 4.8 4.8 0 0 1-2.2 4.5 9.69 9.69 0 0 1-5.1 1.3 7.66 7.66 0 0 1-5.4-1.8 6.18 6.18 0 0 1-1.9-4.8h2.3zm17.2-12.7h2.6v18.8h-2.6zm21.6 0v2.2h-6.3v16.6h-2.6v-16.6h-6.3v-2.2h15.2zm3.9 0h2.6v18.8h-2.6zm16.2-.5c3.3 0 5.8 1.1 7.4 3.2a10.79 10.79 0 0 1 1.9 6.4 11.41 11.41 0 0 1-2.1 7 8.57 8.57 0 0 1-7.2 3.3 8.48 8.48 0 0 1-6.8-2.9 10.67 10.67 0 0 1-2.2-7 10.84 10.84 0 0 1 1.9-6.5 8.17 8.17 0 0 1 7.1-3.5zm.3 17.6a5.41 5.41 0 0 0 4.9-2.4 10.43 10.43 0 0 0 1.5-5.6 8 8 0 0 0-1.7-5.3 6 6 0 0 0-4.7-2 6.57 6.57 0 0 0-4.8 2c-1.3 1.3-1.8 3.3-1.8 5.9a8.55 8.55 0 0 0 1.6 5.3c.9 1.4 2.6 2.1 5 2.1zm13.4-17.1h3l9.4 15.2v-15.2h2.4v18.8h-2.9l-9.5-15.2v15.2h-2.4zm34.9 0h2.9l6.8 18.8h-2.8l-2-5.6h-7.4l-2 5.6h-2.6zm4.2 11.1l-2.9-8.3-3 8.3zm9.1-11.1h3l9.4 15.2v-15.2h2.4v18.8h-2.9l-9.5-15.2v15.2h-2.4v-18.8zm28.2-.5a9.33 9.33 0 0 1 4.5 1 6.81 6.81 0 0 1 3.4 5.2h-2.5a4.3 4.3 0 0 0-1.9-3 6.4 6.4 0 0 0-3.6-.9 5.65 5.65 0 0 0-4.3 2c-1.2 1.3-1.7 3.2-1.7 5.8a10.19 10.19 0 0 0 1.4 5.5 5.3 5.3 0 0 0 4.7 2.1 5.75 5.75 0 0 0 4.1-1.5c1.1-1 1.6-2.6 1.7-4.8h-5.9v-2.1h8.3v10h-1.7l-.6-2.4a9.9 9.9 0 0 1-2.3 2 8.71 8.71 0 0 1-4.2.9 8 8 0 0 1-5.7-2.2 10.42 10.42 0 0 1-2.6-7.4 10.8 10.8 0 0 1 2.5-7.5 8.54 8.54 0 0 1 6.4-2.7zm13.6.5h13.6v2.33h-11.2v5.7h10.3v2.2h-10.3v6.4h11.5v2.2h-13.8v-18.83zm18.2 0h2.5v16.6h9.4v2.2h-12v-18.8zm17.4 12.7a6.17 6.17 0 0 0 .7 2.6c.8 1.2 2.2 1.9 4.3 1.9a6.57 6.57 0 0 0 2.5-.4 2.83 2.83 0 0 0 2.2-2.8 2.53 2.53 0 0 0-.9-2.2 9.24 9.24 0 0 0-2.9-1.1l-2.5-.6a12.59 12.59 0 0 1-3.4-1.2 3.9 3.9 0 0 1-1.7-3.5 5.73 5.73 0 0 1 1.7-4.2 6.48 6.48 0 0 1 4.8-1.6 8.81 8.81 0 0 1 4.9 1.4 5.42 5.42 0 0 1 2 4.6h-2.4a4.44 4.44 0 0 0-.8-2.27c-.7-1-2-1.5-3.8-1.5a4.42 4.42 0 0 0-3.1.9 3.1 3.1 0 0 0-.9 2.2 2.19 2.19 0 0 0 1.1 2 14.73 14.73 0 0 0 3.3 1l2.6.6a8.73 8.73 0 0 1 2.9 1.2 4.44 4.44 0 0 1 1.7 3.8 4.8 4.8 0 0 1-2.2 4.5 9.69 9.69 0 0 1-5.1 1.3 7.66 7.66 0 0 1-5.4-1.8 6.18 6.18 0 0 1-1.9-4.8h2.3z" fill="url(#a)"/></g></svg>