<?xml version="1.0" encoding="utf-8"?>
<!-- Generator: Adobe Illustrator 18.1.1, SVG Export Plug-In . SVG Version: 6.00 Build 0)  -->
<svg version="1.1" id="Layer_1" xmlns="http://www.w3.org/2000/svg" xmlns:xlink="http://www.w3.org/1999/xlink" x="0px" y="0px"
	 viewBox="0 0 350 110" enable-background="new 0 0 350 110" xml:space="preserve">
<g>
	<defs>
		<rect id="SVGID_1_" x="4" y="1.6" width="341.2" height="107.4"/>
	</defs>
	<clipPath id="SVGID_2_">
		<use xlink:href="#SVGID_1_"  overflow="visible"/>
	</clipPath>
	
		<linearGradient id="SVGID_3_" gradientUnits="userSpaceOnUse" x1="1.0088" y1="111.0333" x2="2.0088" y2="111.0333" gradientTransform="matrix(341.21 0 0 -341.21 -340.21 37985.3086)">
		<stop  offset="0" style="stop-color:#8B0B42"/>
		<stop  offset="1" style="stop-color:#EC135D"/>
	</linearGradient>
	<path clip-path="url(#SVGID_2_)" fill="url(#SVGID_3_)" d="M20.4,90.2v2.2h-6.3V109h-2.6V92.4H5.2v-2.2H20.4z M31.5,89.7
		c3.3,0,5.8,1.1,7.4,3.2c1.2,1.7,1.9,3.8,1.9,6.4c0,2.8-0.7,5.1-2.1,7c-1.7,2.2-4.1,3.3-7.2,3.3c-2.9,0-5.2-1-6.8-2.9
		c-1.5-1.8-2.2-4.2-2.2-7c0-2.5,0.6-4.7,1.9-6.5C25.9,90.9,28.3,89.7,31.5,89.7L31.5,89.7z M31.8,107.3c2.2,0,3.9-0.8,4.9-2.4
		c1-1.6,1.5-3.5,1.5-5.6c0-2.2-0.6-4-1.7-5.3c-1.2-1.3-2.7-2-4.7-2c-1.9,0-3.5,0.7-4.8,2s-1.8,3.3-1.8,5.9c0,2.1,0.5,3.8,1.6,5.3
		C27.7,106.6,29.4,107.3,31.8,107.3L31.8,107.3z M67.9,90.2v2.2h-6.3V109H59V92.4h-6.3v-2.2H67.9z M71.7,90.2h8.5
		c1.4,0,2.6,0.2,3.5,0.6c1.7,0.8,2.6,2.3,2.6,4.4c0,1.1-0.2,2-0.7,2.8c-0.5,0.7-1.1,1.3-2,1.7c0.7,0.3,1.3,0.7,1.7,1.2
		c0.4,0.5,0.6,1.3,0.6,2.4l0.1,2.5c0,0.7,0.1,1.2,0.2,1.6c0.2,0.6,0.4,1,0.8,1.2v0.4h-3.1c-0.1-0.2-0.2-0.4-0.2-0.6
		c-0.1-0.3-0.1-0.8-0.1-1.5l-0.2-3.1c-0.1-1.2-0.5-2.1-1.3-2.5c-0.5-0.2-1.2-0.3-2.2-0.3h-5.6v8.1h-2.5V90.2z M79.9,98.8
		c1.2,0,2.1-0.2,2.8-0.7c0.7-0.5,1-1.3,1-2.6c0-1.3-0.5-2.3-1.4-2.7c-0.5-0.3-1.2-0.4-2-0.4h-6v6.4H79.9z M97.4,90.2h2.9l6.8,18.8
		h-2.8l-2-5.6H95l-2,5.6h-2.6L97.4,90.2z M101.7,101.3L98.8,93l-3,8.3H101.7z M110.8,90.2h3l9.4,15.2V90.2h2.4V109h-2.9l-9.5-15.2
		V109h-2.4V90.2z M132.5,102.9c0.1,1.1,0.3,1.9,0.7,2.6c0.8,1.2,2.2,1.9,4.3,1.9c0.9,0,1.8-0.1,2.5-0.4c1.5-0.5,2.2-1.5,2.2-2.8
		c0-1-0.3-1.8-0.9-2.2c-0.6-0.4-1.6-0.8-2.9-1.1l-2.5-0.6c-1.6-0.4-2.8-0.8-3.4-1.2c-1.2-0.8-1.7-2-1.7-3.5c0-1.7,0.6-3.1,1.7-4.2
		c1.1-1.1,2.7-1.6,4.8-1.6c1.9,0,3.5,0.5,4.9,1.4c1.3,1,2,2.5,2,4.6h-2.4c-0.1-1-0.4-1.8-0.8-2.3c-0.7-1-2-1.5-3.8-1.5
		c-1.4,0-2.5,0.3-3.1,0.9c-0.6,0.6-0.9,1.4-0.9,2.2c0,0.9,0.4,1.6,1.1,2c0.5,0.3,1.6,0.6,3.3,1l2.6,0.6c1.2,0.3,2.2,0.7,2.9,1.2
		c1.2,0.9,1.7,2.2,1.7,3.8c0,2.1-0.7,3.6-2.2,4.5c-1.5,0.9-3.2,1.3-5.1,1.3c-2.3,0-4.1-0.6-5.4-1.8c-1.3-1.2-1.9-2.8-1.9-4.8H132.5z
		 M149.7,90.2h2.6V109h-2.6V90.2z M171.3,90.2v2.2H165V109h-2.6V92.4h-6.3v-2.2H171.3z M175.2,90.2h2.6V109h-2.6V90.2z M191.4,89.7
		c3.3,0,5.8,1.1,7.4,3.2c1.2,1.7,1.9,3.8,1.9,6.4c0,2.8-0.7,5.1-2.1,7c-1.7,2.2-4.1,3.3-7.2,3.3c-2.9,0-5.2-1-6.8-2.9
		c-1.5-1.8-2.2-4.2-2.2-7c0-2.5,0.6-4.7,1.9-6.5C185.9,90.9,188.3,89.7,191.4,89.7L191.4,89.7z M191.7,107.3c2.2,0,3.9-0.8,4.9-2.4
		c1-1.6,1.5-3.5,1.5-5.6c0-2.2-0.6-4-1.7-5.3c-1.2-1.3-2.7-2-4.7-2c-1.9,0-3.5,0.7-4.8,2s-1.8,3.3-1.8,5.9c0,2.1,0.5,3.8,1.6,5.3
		C187.6,106.6,189.3,107.3,191.7,107.3L191.7,107.3z M205.1,90.2h3l9.4,15.2V90.2h2.4V109h-2.9l-9.5-15.2V109h-2.4V90.2z M240,90.2
		h2.9l6.8,18.8h-2.8l-2-5.6h-7.4l-2,5.6h-2.6L240,90.2z M244.2,101.3l-2.9-8.3l-3,8.3H244.2z M253.3,90.2h3l9.4,15.2V90.2h2.4V109
		h-2.9l-9.5-15.2V109h-2.4V90.2z M281.5,89.7c1.7,0,3.2,0.3,4.5,1c1.8,1,3,2.7,3.4,5.2h-2.5c-0.3-1.4-0.9-2.4-1.9-3
		c-0.9-0.6-2.1-0.9-3.6-0.9c-1.7,0-3.1,0.7-4.3,2c-1.2,1.3-1.7,3.2-1.7,5.8c0,2.2,0.5,4.1,1.4,5.5c1,1.4,2.5,2.1,4.7,2.1
		c1.7,0,3-0.5,4.1-1.5c1.1-1,1.6-2.6,1.7-4.8h-5.9v-2.1h8.3V109H288l-0.6-2.4c-0.8,0.9-1.6,1.6-2.3,2c-1.1,0.6-2.5,0.9-4.2,0.9
		c-2.2,0-4.1-0.7-5.7-2.2c-1.7-1.8-2.6-4.3-2.6-7.4c0-3.1,0.8-5.6,2.5-7.5C276.9,90.6,278.9,89.7,281.5,89.7L281.5,89.7z
		 M295.1,90.2h13.6v2.3h-11.2v5.7h10.3v2.2h-10.3v6.4H309v2.2h-13.8V90.2z M313.3,90.2h2.5v16.6h9.4v2.2h-12V90.2z M330.7,102.9
		c0.1,1.1,0.3,1.9,0.7,2.6c0.8,1.2,2.2,1.9,4.3,1.9c0.9,0,1.8-0.1,2.5-0.4c1.5-0.5,2.2-1.5,2.2-2.8c0-1-0.3-1.8-0.9-2.2
		c-0.6-0.4-1.6-0.8-2.9-1.1l-2.5-0.6c-1.6-0.4-2.8-0.8-3.4-1.2c-1.2-0.8-1.7-2-1.7-3.5c0-1.7,0.6-3.1,1.7-4.2
		c1.1-1.1,2.7-1.6,4.8-1.6c1.9,0,3.5,0.5,4.9,1.4c1.3,1,2,2.5,2,4.6h-2.4c-0.1-1-0.4-1.8-0.8-2.3c-0.7-1-2-1.5-3.8-1.5
		c-1.4,0-2.5,0.3-3.1,0.9c-0.6,0.6-0.9,1.4-0.9,2.2c0,0.9,0.4,1.6,1.1,2c0.5,0.3,1.6,0.6,3.3,1l2.6,0.6c1.2,0.3,2.2,0.7,2.9,1.2
		c1.2,0.9,1.7,2.2,1.7,3.8c0,2.1-0.7,3.6-2.2,4.5c-1.5,0.9-3.2,1.3-5.1,1.3c-2.3,0-4.1-0.6-5.4-1.8c-1.3-1.2-1.9-2.8-1.9-4.8H330.7z
		"/>
	<path clip-path="url(#SVGID_2_)" fill="#C5AAA5" d="M276.5,54.9c-2.8-3.1,0.2-12.5,3.7-15.1c3.6-2.7,1.7,4.2,1.7,4.2
		C280.6,53,276.5,54.9,276.5,54.9 M197.8,66.1c-6.4,0.8-6.3-6.6-6.3-6.6c-0.1-6.4,5.2-10.1,6.8-10.8c1.6-0.7,1.7,0,2.2,3.1
		c0.5,3.1,4.6,7.1,4.6,7.1C205.1,61.2,204.1,65.2,197.8,66.1 M139.9,45.8c0.6-15.1,9.1-31.7,9.1-31.7s1.1-4.3,3.6-3.6
		c2.5,0.7,1.3,5.3,1.3,5.3C151.2,34,139.9,45.8,139.9,45.8 M104.1,54.9c-2.8-3.1,0.2-12.5,3.7-15.1c3.6-2.7,1.7,4.2,1.7,4.2
		C108.2,53,104.1,54.9,104.1,54.9 M310.9,48.5c-2.5-0.7-4.9,1.8-4.9,1.8s-8.8,22.3-25,17c0,0-3.9-2.8-2.7-6c0,0-0.1-2.8,3-4.4
		c3.1-1.6,12.3-21.4,6.9-26.4c-5.3-4.9-12.4,3.7-12.4,3.7s-9.5,9.2-6.2,29.1c0,0-15.1,6.7-13.7-2.2c1.4-8.9,2.1-14.3,3.8-19
		c1.8-4.7,0.7-5.3,0.2-6.1c-0.5-0.8-2-1-4.5,0.3c-2.5,1.3-7.3,5.6-7.3,5.6s-1.9,0.6-1.3-2.5s0.1-7.2-3.4-6.8
		c-3.6,0.4-6.5,4.2-6.5,4.2s-7.7,9.1-7.7,4.7c0-4.3,1.4-12.1-3.8-12.3c-5.2-0.2-1.5,10.3-1.5,10.3s0.9,11.7-1.7,12.5
		s-12.7,5.9-10.3-2c2.4-7.9,4.9-14.2-0.3-14.1c-5.2,0.1-17-0.2-24.8,24.1c0,0-17.6,18.4-22.2,2c0,0-3-7.8,4.5-16.8
		c7.5-9.1,10.4-7.6,9.8-6.3c-0.7,1.3-2.1,9.4,1.6,9.5c3.7,0.1,4.7-3.8,4.4-6.9c-0.2-3.1,0.6-10.8-7-9.7c-7.6,1.1-20.1,15.9-18,29.8
		c0,0-3,3.3-12.4,1c0,0-6.6-1.6-6.1-6.4c0.4-4.8,3.4-9.5,5.1-12.1c1.7-2.7,10-13.7,12.3-28.4c0,0,2-11.1-4.5-13.9
		c0,0-2.5-1.9-6.2,4.4c-3.7,6.3-10,13.9-13.6,41.4c0,0-6.3,20.1-21.4,20.6c0,0-9.6,0.7-7.1-7.5c0,0,0.6-0.8,1.7-2.1
		c1-1.3,16.8-26.2,6.5-29.1c0,0-12.7-1.2-16.7,16.8c0,0-5.9,1.6-7.5,0c-1.6-1.6-4.3-5.4-6.4-2.7c-2,2.7-2,4.1-1.3,6.1
		c0.7,1.9-2.8,17.6-9.7,15.9c-6.9-1.7-4.3-11.7-4.2-11.9c0-0.3,1-7-1.7-7.4C64,45.8,62,46.2,61,52c-1,5.8-15,20.5-12.5,8.9
		s2.9-15.7,2.9-15.7s1.7-5.1-1.4-5.6C46.9,39,45.7,44,45.7,44s-3.9,16.2-0.6,23.4c3.3,7.2,11.2,1,16.9-5.1c0,0,7.6,13.9,15.5,8
		c7.9-6,9.1-16.4,9.1-16.4l10.2-3.5c0,0-3.7,17.9,9.8,23c13.5,5.1,29.3-14.8,29.3-14.8s5.6,23.1,26.2,8.8c0,0,5.9,15,26.1-0.5
		c0,0,9.9,13.1,21.2-4.5c0,0,9.1-3.2,12.9-5.8l-2.5,8.9c0,0-1.4,3.5,1.4,4.5c2.8,1,3.5-3.3,3.5-3.3s7-22.7,13.1-26
		c0,0,4.1-1.3,3.1,1.9c-1,3.2-6.7,22.3-6.7,22.3s-1.2,2.6,1.9,3.6c3.1,1,3.7-3.1,3.7-3.1s8.4-20.6,12.9-19.8c0,0,0.5-0.5,0,2.5
		c-0.5,2.9-5.5,19.3,1.9,23.1c7.4,3.8,15.4-4.3,15.4-4.3s8.7,11.8,21.2,5.7c12.6-6.1,14.5-10.6,21.1-20.4
		C312.4,51.9,313.4,49.2,310.9,48.5"/>
</g>
</svg>
